<svg width="24" height="24" viewBox="0 0 24 24" fill="none" xmlns="http://www.w3.org/2000/svg">
<mask id="path-1-inside-1_55_2065" fill="white">
<path d="M3 12C3 8.25027 3 6.3754 3.95492 5.06107C4.26331 4.6366 4.6366 4.26331 5.06107 3.95492C6.3754 3 8.25027 3 12 3C15.7497 3 17.6246 3 18.9389 3.95492C19.3634 4.26331 19.7367 4.6366 20.0451 5.06107C21 6.3754 21 8.25027 21 12C21 15.7497 21 17.6246 20.0451 18.9389C19.7367 19.3634 19.3634 19.7367 18.9389 20.0451C17.6246 21 15.7497 21 12 21C8.25027 21 6.3754 21 5.06107 20.0451C4.6366 19.7367 4.26331 19.3634 3.95492 18.9389C3 17.6246 3 15.7497 3 12Z"/>
</mask>
<path d="M5.06107 20.0451L4.1794 21.2586L5.06107 20.0451ZM3.95492 18.9389L2.74139 19.8206L3.95492 18.9389ZM20.0451 18.9389L21.2586 19.8206L20.0451 18.9389ZM18.9389 20.0451L19.8206 21.2586L18.9389 20.0451ZM18.9389 3.95492L19.8206 2.74139L18.9389 3.95492ZM20.0451 5.06107L21.2586 4.1794L20.0451 5.06107ZM5.06107 3.95492L4.1794 2.74139L5.06107 3.95492ZM3.95492 5.06107L2.74139 4.1794L3.95492 5.06107ZM12 19.5C10.0917 19.5 8.781 19.4979 7.77883 19.3894C6.80473 19.2838 6.3016 19.0923 5.94275 18.8316L4.1794 21.2586C5.13488 21.9528 6.22634 22.2387 7.45569 22.3719C8.65697 22.5021 10.1585 22.5 12 22.5V19.5ZM1.5 12C1.5 13.8415 1.49794 15.343 1.62809 16.5443C1.76128 17.7737 2.04719 18.8651 2.74139 19.8206L5.16844 18.0572C4.90772 17.6984 4.71617 17.1953 4.61064 16.2212C4.50206 15.219 4.5 13.9083 4.5 12H1.5ZM5.94275 18.8316C5.64562 18.6157 5.38432 18.3544 5.16844 18.0572L2.74139 19.8206C3.14231 20.3724 3.62758 20.8577 4.1794 21.2586L5.94275 18.8316ZM19.5 12C19.5 13.9083 19.4979 15.219 19.3894 16.2212C19.2838 17.1953 19.0923 17.6984 18.8316 18.0572L21.2586 19.8206C21.9528 18.8651 22.2387 17.7737 22.3719 16.5443C22.5021 15.343 22.5 13.8415 22.5 12H19.5ZM12 22.5C13.8415 22.5 15.343 22.5021 16.5443 22.3719C17.7737 22.2387 18.8651 21.9528 19.8206 21.2586L18.0572 18.8316C17.6984 19.0923 17.1953 19.2838 16.2212 19.3894C15.219 19.4979 13.9083 19.5 12 19.5V22.5ZM18.8316 18.0572C18.6157 18.3544 18.3544 18.6157 18.0572 18.8316L19.8206 21.2586C20.3724 20.8577 20.8577 20.3724 21.2586 19.8206L18.8316 18.0572ZM12 4.5C13.9083 4.5 15.219 4.50206 16.2212 4.61064C17.1953 4.71617 17.6984 4.90772 18.0572 5.16844L19.8206 2.74139C18.8651 2.04719 17.7737 1.76128 16.5443 1.62809C15.343 1.49794 13.8415 1.5 12 1.5V4.5ZM22.5 12C22.5 10.1585 22.5021 8.65697 22.3719 7.45569C22.2387 6.22634 21.9528 5.13488 21.2586 4.1794L18.8316 5.94275C19.0923 6.3016 19.2838 6.80473 19.3894 7.77883C19.4979 8.781 19.5 10.0917 19.5 12H22.5ZM18.0572 5.16844C18.3544 5.38432 18.6157 5.64562 18.8316 5.94275L21.2586 4.1794C20.8577 3.62758 20.3724 3.14231 19.8206 2.74139L18.0572 5.16844ZM12 1.5C10.1585 1.5 8.65697 1.49794 7.45569 1.62809C6.22634 1.76128 5.13488 2.04719 4.1794 2.74139L5.94275 5.16844C6.3016 4.90772 6.80473 4.71617 7.77883 4.61064C8.781 4.50206 10.0917 4.5 12 4.5V1.5ZM4.5 12C4.5 10.0917 4.50206 8.781 4.61064 7.77883C4.71617 6.80473 4.90772 6.3016 5.16844 5.94275L2.74139 4.1794C2.04719 5.13488 1.76128 6.22634 1.62809 7.45569C1.49794 8.65697 1.5 10.1585 1.5 12H4.5ZM4.1794 2.74139C3.62758 3.14231 3.14231 3.62758 2.74139 4.1794L5.16844 5.94275C5.38432 5.64562 5.64562 5.38432 5.94275 5.16844L4.1794 2.74139Z" fill="#D3D3D3" mask="url(#path-1-inside-1_55_2065)"/>
</svg>
