<svg width="24" height="24" viewBox="0 0 24 24" fill="none" xmlns="http://www.w3.org/2000/svg">
<path d="M22 12C22 17.5228 17.5228 22 12 22C6.47715 22 2 17.5228 2 12C2 6.47715 6.47715 2 12 2C17.5228 2 22 6.47715 22 12ZM4.5 12C4.5 16.1421 7.85786 19.5 12 19.5C16.1421 19.5 19.5 16.1421 19.5 12C19.5 7.85786 16.1421 4.5 12 4.5C7.85786 4.5 4.5 7.85786 4.5 12Z" fill="#0F0F0F" fill-opacity="0.1"/>
<path d="M22.0001 12C22.0001 13.5781 21.6266 15.1338 20.9101 16.5399C20.1937 17.946 19.1546 19.1626 17.8779 20.0902C16.6012 21.0178 15.1231 21.63 13.5644 21.8769C12.0058 22.1238 10.4108 21.9982 8.90991 21.5106L9.68245 19.1329C10.8081 19.4987 12.0043 19.5928 13.1733 19.4077C14.3423 19.2225 15.4509 18.7633 16.4085 18.0676C17.366 17.3719 18.1453 16.4595 18.6826 15.4049C19.22 14.3504 19.5001 13.1836 19.5001 12H22.0001Z" fill="#505050"/>
<path d="M1.99992 12C1.99992 10.4219 2.37341 8.8662 3.08985 7.4601C3.8063 6.05399 4.84535 4.83742 6.12207 3.90983C7.39878 2.98224 8.8769 2.36999 10.4356 2.12312C11.9942 1.87625 13.5892 2.00177 15.0901 2.48944L14.3175 4.86708C13.1919 4.50133 11.9957 4.40719 10.8267 4.59234C9.65765 4.77749 8.54906 5.23668 7.59153 5.93237C6.63399 6.62806 5.8547 7.5405 5.31737 8.59507C4.78004 9.64965 4.49992 10.8164 4.49992 12H1.99992Z" fill="#505050"/>
</svg>
