<svg width="24" height="24" viewBox="0 0 24 24" fill="none" xmlns="http://www.w3.org/2000/svg">
<path d="M9.77576 10.2136C9.38396 10.2136 9.06635 10.5314 9.06635 10.9231V14.9819C9.06635 15.3736 9.38396 15.6914 9.77576 15.6914C10.171 15.6914 10.4887 15.3736 10.4887 14.9819V10.9231C10.4887 10.5314 10.171 10.2136 9.77576 10.2136ZM12.4581 10.2136C12.0663 10.2136 11.7452 10.5314 11.7452 10.9231V14.9819C11.7452 15.3736 12.0663 15.6914 12.4581 15.6914C12.85 15.6914 13.1676 15.3736 13.1676 14.9819V10.9231C13.1676 10.5314 12.85 10.2136 12.4581 10.2136ZM15.1334 10.2136C14.7417 10.2136 14.4241 10.5314 14.4241 10.9231V14.9819C14.4241 15.3736 14.7417 15.6914 15.1334 15.6914C15.5253 15.6914 15.8463 15.3736 15.8463 14.9819V10.9231C15.8463 10.5314 15.5253 10.2136 15.1334 10.2136Z" fill="#505050"/>
<path d="M21.1299 12.6147L21.7469 9.628C21.9182 8.80872 21.2894 8.04338 20.4587 8.04338H15.6971L16.2734 7.30303C16.4925 7.02661 16.5307 6.65988 16.3734 6.34537C16.2211 6.02621 15.9066 5.83078 15.554 5.83078H15.0586V1.74973C15.0586 1.34681 14.7319 1.02023 14.329 1.02023H12.8202C12.4173 1.02023 12.0906 1.34681 12.0906 1.74973V5.83078H11.5667C11.2141 5.83078 10.8996 6.02621 10.7472 6.34537C10.5949 6.65988 10.633 7.02661 10.8473 7.30303L11.424 8.04338H6.25633L5.99869 6.70572C5.88573 6.13047 5.40922 5.70687 4.8375 5.6469C4.68921 5.20572 4.27983 4.88811 3.79281 4.88811H1.72807C1.11749 4.88811 0.619873 5.38581 0.619873 5.99622C0.619873 6.60698 1.11749 7.10451 1.72807 7.10451H3.79281C4.26578 7.10451 4.6681 6.80447 4.8269 6.38449C5.05283 6.4374 5.23637 6.60698 5.28221 6.84342L7.3504 17.534C6.57748 17.6045 5.9669 18.2609 5.9669 19.0516C5.9669 19.8952 6.65158 20.5764 7.49163 20.5764H8.9563C8.67755 20.8304 8.50108 21.1904 8.50108 21.5963C8.50108 22.3587 9.12217 22.9798 9.88458 22.9798C10.6504 22.9798 11.2716 22.3587 11.2716 21.5963C11.2716 21.1904 11.0916 20.8304 10.8128 20.5764H15.5951C15.3163 20.8304 15.1363 21.1904 15.1363 21.5963C15.1363 22.3587 15.7575 22.9798 16.5234 22.9798C17.2857 22.9798 17.9069 22.3587 17.9069 21.5963C17.9069 21.1904 17.7305 20.8304 17.4516 20.5764H19.234C19.4352 20.5764 19.5975 20.4139 19.5975 20.2128C19.5975 20.0117 19.4352 19.8492 19.234 19.8492H7.49163C7.05398 19.8492 6.69398 19.4928 6.69398 19.0516C6.69398 18.6139 7.05398 18.2575 7.49163 18.2575H17.4333C18.063 18.9082 18.9434 19.3149 19.9184 19.3149C21.8272 19.3149 23.3801 17.762 23.3801 15.8532C23.3801 14.3712 22.4421 13.1073 21.1299 12.6147ZM8.09161 17.527L6.43634 8.77046H11.9902L12.8434 9.86599C13.015 10.085 13.2768 10.2136 13.5627 10.2136C13.8437 10.2136 14.1057 10.085 14.2821 9.86134L15.1311 8.77046H20.4587C20.8061 8.77046 21.1061 9.08379 21.0339 9.47979L20.4238 12.4327C20.2583 12.4084 20.0905 12.3916 19.9184 12.3916C19.4224 12.3916 18.9515 12.4984 18.5246 12.6869V10.9234C18.5246 10.5316 18.207 10.2139 17.8152 10.2139C17.4198 10.2139 17.1022 10.5316 17.1022 10.9234V13.8476C16.6975 14.4142 16.4567 15.1055 16.4567 15.8532C16.4567 16.4602 16.6148 17.0305 16.8904 17.527H8.09161ZM19.9184 18.609C18.3989 18.609 17.1626 17.3727 17.1626 15.8532C17.1626 14.3338 18.3989 13.0974 19.9184 13.0974C21.4379 13.0974 22.6742 14.3338 22.6742 15.8532C22.6742 17.3727 21.4379 18.609 19.9184 18.609Z" fill="#505050"/>
<path d="M21.0875 15.4998L20.2715 15.5001V14.6841C20.2715 14.4892 20.1135 14.3312 19.9186 14.3312C19.7237 14.3312 19.5657 14.4892 19.5657 14.6841V15.5001L18.7495 15.5005C18.5544 15.5005 18.3965 15.6585 18.3965 15.8534C18.3965 16.0483 18.5546 16.2063 18.7495 16.2063L19.5657 16.206V17.0224C19.5657 17.2173 19.7237 17.3753 19.9186 17.3753C20.1135 17.3753 20.2715 17.2173 20.2715 17.0224V16.206L21.0875 16.2057C21.2826 16.2057 21.4405 16.0476 21.4405 15.8527C21.4405 15.6578 21.2825 15.4998 21.0875 15.4998Z" fill="#505050"/>
</svg>
