<svg width="24" height="24" viewBox="0 0 24 24" fill="none" xmlns="http://www.w3.org/2000/svg">
<path fill-rule="evenodd" clip-rule="evenodd" d="M11.8321 6.55468C12.1384 6.09516 12.0142 5.47429 11.5547 5.16793C11.0952 4.86158 10.4743 4.98576 10.168 5.44528L6.16795 11.4453C5.96338 11.7521 5.94431 12.1467 6.11833 12.4718C6.29235 12.797 6.63121 13 7 13H11.1315L8.16795 17.4453C7.8616 17.9048 7.98577 18.5257 8.4453 18.832C8.90483 19.1384 9.5257 19.0142 9.83205 18.5547L13.8321 12.5547C14.0366 12.2478 14.0557 11.8533 13.8817 11.5281C13.7077 11.203 13.3688 11 13 11H8.86852L11.8321 6.55468ZM3 6.99997C2.44772 6.99997 2 7.44768 2 7.99997V16C2 16.5523 2.44772 17 3 17H5C5.55228 17 6 17.4477 6 18C6 18.5523 5.55228 19 5 19H3C1.34315 19 0 17.6568 0 16V7.99997C0 6.34312 1.34315 4.99997 3 4.99997H6.19C6.74228 4.99997 7.19 5.44768 7.19 5.99997C7.19 6.55225 6.74228 6.99997 6.19 6.99997H3ZM14.0001 5.99997C14.0001 5.44768 14.4478 4.99997 15.0001 4.99997H17.0001C18.6569 4.99997 20.0001 6.34312 20.0001 7.99997V16C20.0001 17.6568 18.6569 19 17.0001 19H13.8101C13.2578 19 12.8101 18.5523 12.8101 18C12.8101 17.4477 13.2578 17 13.8101 17H17.0001C17.5523 17 18.0001 16.5523 18.0001 16V7.99997C18.0001 7.44768 17.5523 6.99997 17.0001 6.99997H15.0001C14.4478 6.99997 14.0001 6.55225 14.0001 5.99997ZM23 9.99997C23.5523 9.99997 24 10.4477 24 11V13C24 13.5523 23.5523 14 23 14C22.4477 14 22 13.5523 22 13V11C22 10.4477 22.4477 9.99997 23 9.99997Z" fill="#505050"/>
</svg>
