<svg width="24" height="24" viewBox="0 0 24 24" fill="none" xmlns="http://www.w3.org/2000/svg">
<g clip-path="url(#clip0_40_1107)">
<path d="M4.15851 7.14679C6.74818 4.11688 11.0223 3.1512 14.6631 4.77343C15.1675 4.99821 15.7587 4.77147 15.9835 4.267C16.2083 3.76253 15.9815 3.17135 15.4771 2.94657C11.0272 0.96385 5.80332 2.14413 2.63816 5.84735C-0.526988 9.55057 -0.87937 14.8946 1.77211 18.9813C4.42359 23.0681 9.44731 24.9241 14.1189 23.5429C18.7906 22.1616 21.9973 17.8716 22.0001 13V12.07C22.0001 11.5177 21.5523 11.07 21.0001 11.07C20.4478 11.07 20.0001 11.5177 20.0001 12.07V12.9994C19.9978 16.9852 17.3741 20.4948 13.5519 21.6249C9.72963 22.7551 5.61932 21.2365 3.44992 17.8928C1.28053 14.5491 1.56884 10.1767 4.15851 7.14679Z" fill="#505050"/>
<path d="M22.7072 4.70711C23.0977 4.31658 23.0977 3.68342 22.7072 3.29289C22.3166 2.90237 21.6835 2.90237 21.293 3.29289L11.0001 13.5858L8.70717 11.2929C8.31664 10.9024 7.68348 10.9024 7.29295 11.2929C6.90243 11.6834 6.90243 12.3166 7.29295 12.7071L10.293 15.7071C10.6835 16.0976 11.3166 16.0976 11.7072 15.7071L22.7072 4.70711Z" fill="#505050"/>
</g>
<defs>
<clipPath id="clip0_40_1107">
<rect width="24" height="24" fill="white"/>
</clipPath>
</defs>
</svg>
