<svg width="24" height="24" viewBox="0 0 24 24" fill="none" xmlns="http://www.w3.org/2000/svg">
<g clip-path="url(#clip0_40_942)">
<path fill-rule="evenodd" clip-rule="evenodd" d="M17.49 9.03023C16.0571 4.92073 11.8448 2.38584 7.48293 3.12876C2.87463 3.91365 -0.365021 8.09567 0.0255256 12.7529C0.117829 14.1387 0.668792 16.1708 2.04117 17.8808C3.44935 19.6353 5.68725 21.001 9.00005 21.001H18C21.3137 21.001 24 18.3147 24 15.001C24 12.7931 22.9168 11.2455 21.4501 10.292C20.2558 9.51555 18.8182 9.13321 17.49 9.03023ZM15.7718 10.251C14.8622 6.72815 11.4055 4.48947 7.81874 5.10037C4.23202 5.71126 1.71128 8.96803 2.01917 12.5934L2.02064 12.6129C2.0894 13.6679 2.52773 15.2917 3.60095 16.6289C4.64165 17.9256 6.31284 19.001 9.00005 19.001H18C20.2092 19.001 22 17.2101 22 15.001C22 13.5539 21.3333 12.6016 20.36 11.9688C19.3435 11.3079 17.9825 11.001 16.74 11.001C16.284 11.001 15.8858 10.6925 15.7718 10.251Z" fill="#505050"/>
</g>
<defs>
<clipPath id="clip0_40_942">
<rect width="24" height="24" fill="white"/>
</clipPath>
</defs>
</svg>
