<svg width="24" height="24" viewBox="0 0 24 24" fill="none" xmlns="http://www.w3.org/2000/svg">
<g clip-path="url(#clip0_40_947)">
<path d="M9.50019 0.0145204C5.59012 -0.205657 1.9865 2.12793 0.587786 5.78589C-0.810924 9.44386 0.316386 13.5864 3.37582 16.0312C3.80727 16.376 4.43653 16.3057 4.7813 15.8743C5.12607 15.4428 5.0558 14.8136 4.62435 14.4688C2.24479 12.5673 1.36799 9.34529 2.45588 6.5002C3.54376 3.65512 6.34658 1.84011 9.38774 2.01136C12.4289 2.18261 15.0102 4.3008 15.7718 7.25003C15.8859 7.69153 16.2841 8 16.7401 8H17.9993C19.8914 8.0024 21.5231 9.3303 21.9098 11.1825C22.2965 13.0349 21.3323 14.9048 19.5989 15.664C19.093 15.8856 18.8625 16.4753 19.0841 16.9812C19.3056 17.4871 19.8954 17.7176 20.4013 17.496C23.0013 16.3573 24.4476 13.5524 23.8676 10.7738C23.2875 7.99526 20.8397 6.00334 18.0013 6H17.4796C16.2801 2.60317 13.1473 0.219893 9.50019 0.0145204Z" fill="#505050"/>
<path d="M8 12C8.55229 12 9 12.4477 9 13V15C9 15.5523 8.55229 16 8 16C7.44772 16 7 15.5523 7 15V13C7 12.4477 7.44772 12 8 12Z" fill="#505050"/>
<path d="M8 18C8.55229 18 9 18.4477 9 19V21C9 21.5523 8.55229 22 8 22C7.44772 22 7 21.5523 7 21V19C7 18.4477 7.44772 18 8 18Z" fill="#505050"/>
<path d="M17 19C17 18.4477 16.5523 18 16 18C15.4477 18 15 18.4477 15 19V21C15 21.5523 15.4477 22 16 22C16.5523 22 17 21.5523 17 21V19Z" fill="#505050"/>
<path d="M16 12C16.5523 12 17 12.4477 17 13V15C17 15.5523 16.5523 16 16 16C15.4477 16 15 15.5523 15 15V13C15 12.4477 15.4477 12 16 12Z" fill="#505050"/>
<path d="M13 21C13 20.4477 12.5523 20 12 20C11.4477 20 11 20.4477 11 21V23C11 23.5523 11.4477 24 12 24C12.5523 24 13 23.5523 13 23V21Z" fill="#505050"/>
<path d="M12 14C12.5523 14 13 14.4477 13 15V17C13 17.5523 12.5523 18 12 18C11.4477 18 11 17.5523 11 17V15C11 14.4477 11.4477 14 12 14Z" fill="#505050"/>
</g>
<defs>
<clipPath id="clip0_40_947">
<rect width="24" height="24" fill="white"/>
</clipPath>
</defs>
</svg>
