<svg width="24" height="24" viewBox="0 0 24 24" fill="none" xmlns="http://www.w3.org/2000/svg">
<path fill-rule="evenodd" clip-rule="evenodd" d="M11.9996 1.69C12.265 1.68989 12.5195 1.79525 12.7071 1.9829L18.3669 7.64266C18.3668 7.64259 18.367 7.64274 18.3669 7.64266C20.9419 10.2162 21.7131 14.0878 20.3205 17.4515C18.9278 20.8153 15.6457 23.0087 12.005 23.0087C8.36433 23.0087 5.08223 20.8153 3.68954 17.4515C2.29697 14.088 3.06782 10.2168 5.64255 7.64326C5.64235 7.64346 5.64275 7.64306 5.64255 7.64326L11.2923 1.98352C11.4798 1.79571 11.7342 1.69012 11.9996 1.69ZM12.0007 4.10484L7.0569 9.05734C5.05396 11.059 4.45423 14.0702 5.53743 16.6864C6.62063 19.3027 9.17337 21.0087 12.005 21.0087C14.8367 21.0087 17.3894 19.3027 18.4726 16.6864C19.5558 14.0702 18.9561 11.059 16.9531 9.05734L12.0007 4.10484Z" fill="#505050"/>
</svg>
