<svg width="24" height="24" viewBox="0 0 24 24" fill="none" xmlns="http://www.w3.org/2000/svg">
<path fill-rule="evenodd" clip-rule="evenodd" d="M5.94449 4.92128C9.09681 1.78394 13.9432 1.10521 17.8366 3.25753C21.7346 5.41235 23.7376 9.88533 22.7493 14.2282C21.761 18.5711 18.0197 21.7368 13.5732 21.9928C9.12665 22.2487 5.04683 19.533 3.56683 15.3322C3.38331 14.8113 3.65681 14.2403 4.17771 14.0568C4.69861 13.8732 5.26966 14.1467 5.45318 14.6676C6.63718 18.0283 9.90104 20.2008 13.4583 19.9961C17.0155 19.7913 20.0085 17.2587 20.7992 13.7844C21.5898 10.3101 19.9874 6.73173 16.869 5.00788C13.7507 3.28402 9.86814 3.83028 7.34651 6.34765C7.33937 6.35477 7.33213 6.36179 7.32478 6.36869L4.47426 8.99994H8C8.55228 8.99994 9 9.44765 9 9.99994C9 10.5522 8.55228 10.9999 8 10.9999H2C1.44772 10.9999 1 10.5522 1 9.99994V3.99994C1 3.44765 1.44772 2.99994 2 2.99994C2.55228 2.99994 3 3.44765 3 3.99994V7.63912L5.94449 4.92128ZM12 6C12.5523 6 13 6.44772 13 7V12.5858L15.7071 15.2929C16.0976 15.6834 16.0976 16.3166 15.7071 16.7071C15.3166 17.0976 14.6834 17.0976 14.2929 16.7071L11.2929 13.7071C11.1054 13.5196 11 13.2652 11 13V7C11 6.44772 11.4477 6 12 6Z" fill="#505050"/>
</svg>
