<svg width="24" height="24" viewBox="0 0 24 24" fill="none" xmlns="http://www.w3.org/2000/svg">
<path d="M3 6.00012C2.17545 6.00012 1.5 6.67565 1.5 7.50012V17.2501C1.5 18.0747 2.17545 18.7501 3 18.7501H21C21.8246 18.7501 22.5 18.0747 22.5 17.2501V7.50012C22.5 6.67565 21.8246 6.00012 21 6.00012H3ZM3 6.75012H21C21.4219 6.75012 21.75 7.0781 21.75 7.50012V17.2501C21.75 17.6721 21.4219 18.0001 21 18.0001H3C2.57805 18.0001 2.25 17.6721 2.25 17.2501V7.50012C2.25 7.0781 2.57805 6.75012 3 6.75012ZM3.375 9.00012C3.27555 9.00013 3.18017 9.03966 3.10985 9.10999C3.03952 9.18031 3.00001 9.27567 3 9.37512V15.3751C3.00001 15.4746 3.03952 15.5699 3.10985 15.6403C3.18017 15.7106 3.27555 15.7501 3.375 15.7501H9.375C9.47445 15.7501 9.56983 15.7106 9.64015 15.6403C9.71048 15.5699 9.74999 15.4746 9.75 15.3751V9.37512C9.74999 9.27567 9.71048 9.18031 9.64015 9.10999C9.56983 9.03966 9.47445 9.00013 9.375 9.00012H3.375ZM3.75 9.75012H9V15.0001H8.625C8.625 14.1533 8.14695 13.421 7.45162 13.0372C7.71248 12.7669 7.875 12.4024 7.875 12.0001C7.875 11.1762 7.19895 10.5001 6.375 10.5001C5.55097 10.5 4.875 11.1761 4.875 12.0001C4.875 12.4021 5.0379 12.767 5.29837 13.0372C4.60335 13.4212 4.125 14.1535 4.125 15.0001H3.75V9.75012ZM10.8427 9.75012C10.7433 9.7552 10.6499 9.79962 10.5832 9.87354C10.5165 9.94745 10.4818 10.0448 10.4869 10.1443C10.492 10.2437 10.5364 10.3371 10.6103 10.4038C10.6842 10.4705 10.7815 10.5052 10.881 10.5001H13.131C13.1807 10.5008 13.23 10.4916 13.2761 10.4731C13.3223 10.4546 13.3642 10.4271 13.3996 10.3922C13.435 10.3573 13.4631 10.3157 13.4823 10.2699C13.5015 10.224 13.5113 10.1748 13.5113 10.1251C13.5113 10.0754 13.5015 10.0262 13.4823 9.98038C13.4631 9.93453 13.435 9.89295 13.3996 9.85806C13.3642 9.82317 13.3223 9.79566 13.2761 9.77713C13.23 9.7586 13.1807 9.74942 13.131 9.75012H10.881C10.8683 9.74947 10.8555 9.74947 10.8427 9.75012ZM14.647 9.75012C14.5475 9.7552 14.4542 9.79962 14.3874 9.87354C14.3207 9.94745 14.2861 10.0448 14.2911 10.1443C14.2962 10.2437 14.3406 10.3371 14.4145 10.4038C14.4884 10.4705 14.5858 10.5052 14.6852 10.5001H20.1389C20.1885 10.5008 20.2379 10.4916 20.284 10.4731C20.3301 10.4546 20.3721 10.4271 20.4075 10.3922C20.4429 10.3573 20.471 10.3157 20.4901 10.2699C20.5093 10.224 20.5192 10.1748 20.5192 10.1251C20.5192 10.0754 20.5093 10.0262 20.4901 9.98038C20.471 9.93453 20.4429 9.89295 20.4075 9.85806C20.3721 9.82317 20.3301 9.79566 20.284 9.77713C20.2379 9.7586 20.1885 9.74942 20.1389 9.75012H14.6852C14.6725 9.74947 14.6597 9.74947 14.647 9.75012ZM6.375 11.2501C6.79365 11.2501 7.125 11.5815 7.125 12.0001C7.125 12.4188 6.79365 12.7501 6.375 12.7501C5.95635 12.7501 5.625 12.4188 5.625 12.0001C5.625 11.5815 5.95635 11.2501 6.375 11.2501ZM10.8369 11.2501C10.7375 11.2552 10.6441 11.2996 10.5774 11.3735C10.5106 11.4474 10.476 11.5448 10.4811 11.6443C10.4861 11.7437 10.5305 11.8371 10.6044 11.9038C10.6783 11.9705 10.7757 12.0052 10.8752 12.0001H19.9059C19.9556 12.0008 20.0049 11.9916 20.051 11.9731C20.0972 11.9546 20.1391 11.9271 20.1745 11.8922C20.2099 11.8573 20.238 11.8157 20.2572 11.7699C20.2764 11.724 20.2862 11.6748 20.2862 11.6251C20.2862 11.5754 20.2764 11.5262 20.2572 11.4804C20.238 11.4345 20.2099 11.393 20.1745 11.3581C20.1391 11.3232 20.0972 11.2957 20.051 11.2771C20.0049 11.2586 19.9556 11.2494 19.9059 11.2501H10.8752C10.8624 11.2495 10.8496 11.2495 10.8369 11.2501ZM10.8369 12.7501C10.7375 12.7552 10.6441 12.7996 10.5774 12.8735C10.5106 12.9474 10.476 13.0448 10.4811 13.1443C10.4861 13.2437 10.5305 13.3371 10.6044 13.4038C10.6783 13.4705 10.7757 13.5052 10.8752 13.5001H16.5002C16.5498 13.5008 16.5992 13.4916 16.6453 13.4731C16.6914 13.4546 16.7334 13.4271 16.7688 13.3922C16.8041 13.3573 16.8323 13.3157 16.8514 13.2699C16.8706 13.224 16.8805 13.1748 16.8805 13.1251C16.8805 13.0754 16.8706 13.0262 16.8514 12.9804C16.8323 12.9345 16.8041 12.893 16.7688 12.8581C16.7334 12.8232 16.6914 12.7957 16.6453 12.7771C16.5992 12.7586 16.5498 12.7494 16.5002 12.7501H10.8752C10.8624 12.7495 10.8496 12.7495 10.8369 12.7501ZM17.9619 12.7501C17.8624 12.7552 17.7691 12.7996 17.7024 12.8735C17.6356 12.9474 17.601 13.0448 17.6061 13.1443C17.6111 13.2437 17.6555 13.3371 17.7294 13.4038C17.8033 13.4705 17.9007 13.5052 18.0002 13.5001H19.9059C19.9556 13.5008 20.0049 13.4916 20.051 13.4731C20.0972 13.4546 20.1391 13.4271 20.1745 13.3922C20.2099 13.3573 20.238 13.3157 20.2572 13.2699C20.2764 13.224 20.2862 13.1748 20.2862 13.1251C20.2862 13.0754 20.2764 13.0262 20.2572 12.9804C20.238 12.9345 20.2099 12.893 20.1745 12.8581C20.1391 12.8232 20.0972 12.7957 20.051 12.7771C20.0049 12.7586 19.9556 12.7494 19.9059 12.7501H18.0002C17.9874 12.7495 17.9746 12.7495 17.9619 12.7501ZM6.375 13.5001C7.20787 13.5001 7.875 14.1672 7.875 15.0001H4.875C4.875 14.1679 5.54265 13.5017 6.375 13.5017V13.5001ZM11.9619 16.5001C11.8625 16.5052 11.7691 16.5496 11.7024 16.6235C11.6356 16.6974 11.601 16.7948 11.6061 16.8943C11.6111 16.9937 11.6555 17.0871 11.7294 17.1538C11.8033 17.2205 11.9007 17.2552 12.0002 17.2501H15.381C15.4307 17.2508 15.48 17.2416 15.5261 17.2231C15.5723 17.2046 15.6142 17.1771 15.6496 17.1422C15.685 17.1073 15.7131 17.0657 15.7323 17.0199C15.7515 16.974 15.7613 16.9248 15.7613 16.8751C15.7613 16.8254 15.7515 16.7762 15.7323 16.7304C15.7131 16.6845 15.685 16.643 15.6496 16.6081C15.6142 16.5732 15.5723 16.5457 15.5261 16.5271C15.48 16.5086 15.4307 16.4994 15.381 16.5001H12.0002C11.9874 16.4995 11.9746 16.4995 11.9619 16.5001ZM17.2119 16.5001C17.1125 16.5052 17.0191 16.5496 16.9524 16.6235C16.8856 16.6974 16.851 16.7948 16.8561 16.8943C16.8611 16.9937 16.9055 17.0871 16.9794 17.1538C17.0533 17.2205 17.1507 17.2552 17.2502 17.2501H20.631C20.6807 17.2508 20.73 17.2416 20.7761 17.2231C20.8223 17.2046 20.8642 17.1771 20.8996 17.1422C20.935 17.1073 20.9631 17.0657 20.9823 17.0199C21.0015 16.974 21.0113 16.9248 21.0113 16.8751C21.0113 16.8254 21.0015 16.7762 20.9823 16.7304C20.9631 16.6845 20.935 16.643 20.8996 16.6081C20.8642 16.5732 20.8223 16.5457 20.7761 16.5271C20.73 16.5086 20.6807 16.4994 20.631 16.5001H17.2502C17.2374 16.4995 17.2246 16.4995 17.2119 16.5001Z" fill="black"/>
</svg>
