<svg width="24" height="24" viewBox="0 0 24 24" fill="none" xmlns="http://www.w3.org/2000/svg">
<path d="M21.1863 2.82383C18.8719 0.509425 15.1296 0.476906 12.7753 2.75074L12.765 2.76086L11.045 4.47086C10.6534 4.86025 10.6515 5.49341 11.0409 5.88507C11.4303 6.27673 12.0634 6.27858 12.4551 5.88919L14.1697 4.18457C15.7395 2.67347 18.2307 2.69672 19.772 4.23804C21.313 5.77904 21.3366 8.26954 19.8265 9.8394L16.833 12.8329C16.0124 13.6537 14.8758 14.0778 13.7181 13.9949C12.5605 13.912 11.496 13.3304 10.8008 12.401C10.47 11.9588 9.84333 11.8685 9.40108 12.1993C8.95883 12.5301 8.86849 13.1568 9.1993 13.599C10.242 14.993 11.8388 15.8654 13.5753 15.9898C15.3117 16.1142 17.0165 15.4782 18.2473 14.247L21.2472 11.2471L21.2593 11.2347C23.5332 8.88047 23.5007 5.13823 21.1863 2.82383Z" fill="#505050"/>
<path d="M10.4247 8.01022C8.68837 7.88586 6.9836 8.52177 5.75285 9.75289L2.75285 12.7529L2.74067 12.7653C0.466835 15.1196 0.499354 18.8618 2.81376 21.1762C5.12816 23.4906 8.8704 23.5231 11.2247 21.2493L11.2371 21.2371L12.9471 19.5271C13.3376 19.1366 13.3376 18.5034 12.9471 18.1129C12.5565 17.7224 11.9234 17.7224 11.5329 18.1129L9.82933 19.8164C8.25947 21.3265 5.76897 21.303 4.22797 19.762C2.68697 18.221 2.66341 15.7305 4.17354 14.1606L7.16719 11.167C7.9877 10.3462 9.12425 9.9222 10.2819 10.0051C11.4395 10.088 12.504 10.6696 13.1992 11.599C13.53 12.0412 14.1567 12.1316 14.5989 11.8008C15.0412 11.47 15.1315 10.8433 14.8007 10.401C13.758 9.00699 12.1612 8.13458 10.4247 8.01022Z" fill="#505050"/>
</svg>
