<svg width="24" height="24" viewBox="0 0 24 24" fill="none" xmlns="http://www.w3.org/2000/svg">
<path fill-rule="evenodd" clip-rule="evenodd" d="M6.49335 2.63774L2.55877 4.60261C1.97162 4.88831 0.999978 5.76044 0.999988 7.24004V16.7569C0.993506 17.8959 1.63264 18.9404 2.65001 19.4531L2.65277 19.4545L10.6525 23.4543C11.4975 23.8772 12.4924 23.8772 13.3375 23.4543L21.335 19.4556L21.336 19.4551C22.3549 18.9483 22.9994 17.9081 23 16.77V7.2395C22.9994 6.10159 22.3551 5.06203 21.3364 4.55518L21.335 4.5545L13.3372 0.555598L13.335 0.554497C12.494 0.136619 11.5059 0.136619 10.665 0.554497L6.61373 2.57763C6.57239 2.59492 6.53216 2.61499 6.49335 2.63774ZM9.23962 3.50182L11.555 2.34556C11.8348 2.20679 12.1642 2.20639 12.4441 2.34511L12.445 2.34556L19.7589 6.00254L17 7.382L9.23962 3.50182ZM7.00218 4.61916L14.7639 8.50004L12 9.88201L4.23654 6.00028L7.00218 4.61916ZM2.99999 7.61807V16.767C2.99734 17.1468 3.21012 17.4954 3.54914 17.6666L11 21.392V11.6181L2.99999 7.61807ZM13 21.387L20.4428 17.6656L20.445 17.6645C20.7848 17.4956 20.9998 17.149 21 16.7695V7.61808L13 11.6181V21.387Z" fill="#505050"/>
</svg>
