<svg width="29" height="25" viewBox="0 0 29 25" fill="none" xmlns="http://www.w3.org/2000/svg">
<path fill-rule="evenodd" clip-rule="evenodd" d="M1 1C0.447715 1 0 1.44772 0 2C0 2.28581 0.119901 2.54361 0.312146 2.72585C0.491389 2.89577 0.733522 3 1 3H3.24911C3.75029 3.00107 4.17343 3.37381 4.23859 3.87081L5.75859 15.3908C5.95576 16.8918 7.24033 18.0105 8.75378 18H19.3113C20.7593 18.0227 22.0175 17.0073 22.3006 15.5862L22.3008 15.5848L23.9805 7.19634C24.0394 6.90254 23.9634 6.59784 23.7734 6.3661C23.5835 6.13436 23.2996 6 23 6H6.53686L6.22146 3.60958C6.02571 2.11819 4.75574 1.00228 3.25151 1H1ZM7.74141 15.1292L6.80075 8H21.7799L20.3395 15.1937L20.3392 15.1952C20.2448 15.6703 19.8235 16.0095 19.3392 16.0002L19.32 16L8.75 16L8.74152 16C8.23626 16.0043 7.80708 15.6302 7.74141 15.1292Z" fill="#505050"/>
<path fill-rule="evenodd" clip-rule="evenodd" d="M5 22C5 20.3431 6.34315 19 8 19C9.65685 19 11 20.3431 11 22C11 23.6569 9.65685 25 8 25C6.34315 25 5 23.6569 5 22ZM8 21C7.44772 21 7 21.4477 7 22C7 22.5523 7.44772 23 8 23C8.55228 23 9 22.5523 9 22C9 21.4477 8.55228 21 8 21Z" fill="#505050"/>
<path fill-rule="evenodd" clip-rule="evenodd" d="M17 22C17 20.3431 18.3431 19 20 19C21.6569 19 23 20.3431 23 22C23 23.6569 21.6569 25 20 25C18.3431 25 17 23.6569 17 22ZM20 21C19.4477 21 19 21.4477 19 22C19 22.5523 19.4477 23 20 23C20.5523 23 21 22.5523 21 22C21 21.4477 20.5523 21 20 21Z" fill="#505050"/>
<circle cx="24" cy="5" r="4.4" fill="#E22517" stroke="white" stroke-width="0.8"/>
</svg>
