<svg width="24" height="24" viewBox="0 0 24 24" fill="none" xmlns="http://www.w3.org/2000/svg">
<g clip-path="url(#clip0_40_905)">
<path fill-rule="evenodd" clip-rule="evenodd" d="M12.2446 5.04447C12.7668 4.86471 13.3359 5.14232 13.5156 5.66453L14.1673 7.55755L16.0645 6.90446C16.5867 6.7247 17.1558 7.00231 17.3356 7.52452C17.5153 8.04673 17.2377 8.61579 16.7155 8.79555L14.8182 9.44864L15.7915 12.2761L17.6845 11.6244C18.2067 11.4447 18.7758 11.7223 18.9556 12.2445C19.1353 12.7667 18.8577 13.3358 18.3355 13.5155L16.4425 14.1671L17.0956 16.0645C17.2754 16.5867 16.9978 17.1558 16.4756 17.3356C15.9534 17.5153 15.3843 17.2377 15.2045 16.7155L14.5514 14.8181L11.724 15.7914L12.3757 17.6845C12.5554 18.2067 12.2778 18.7758 11.7556 18.9556C11.2334 19.1353 10.6643 18.8577 10.4846 18.3355L9.83291 16.4424L7.9355 17.0955C7.41329 17.2753 6.84423 16.9977 6.66447 16.4755C6.48471 15.9532 6.76232 15.3842 7.28453 15.2044L9.18194 14.5513L8.20865 11.7239L6.3155 12.3756C5.79329 12.5553 5.22423 12.2777 5.04447 11.7555C4.86471 11.2333 5.14232 10.6642 5.66453 10.4845L7.55768 9.83278L6.90458 7.9355C6.72482 7.41329 7.00243 6.84423 7.52464 6.66447C8.04685 6.48471 8.61591 6.76232 8.79567 7.28453L9.44877 9.1818L12.2762 8.20852L11.6245 6.3155C11.4448 5.79329 11.7224 5.22423 12.2446 5.04447ZM11.073 13.9003L13.9004 12.927L12.9272 10.0996L10.0997 11.0729L11.073 13.9003Z" fill="#505050"/>
<path fill-rule="evenodd" clip-rule="evenodd" d="M17.9919 0.882805C20.4045 2.18722 21.8873 4.86606 23.0378 8.71236C24.1896 12.5386 24.4093 15.5809 23.0973 17.9939C21.787 20.4037 19.1109 21.8867 15.2883 23.0375C11.4618 24.1895 8.41925 24.4093 6.0061 23.0972C3.59631 21.787 2.11331 19.1108 0.962492 15.2882C-0.189536 11.4617 -0.409347 8.41918 0.902757 6.00603C2.21304 3.59623 4.88922 2.11323 8.71176 0.962417C12.5347 -0.188514 15.5777 -0.422465 17.9919 0.882805ZM17.0407 2.64212C15.3673 1.73739 13.0054 1.75844 9.28832 2.87751C5.57086 3.99669 3.57204 5.28369 2.65982 6.9614C1.74942 8.63575 1.75961 10.9982 2.87758 14.7117C3.99677 18.4291 5.28377 20.428 6.96147 21.3402C8.63582 22.2506 10.9983 22.2404 14.7118 21.1224C18.4292 20.0032 20.428 18.7162 21.3403 17.0385C22.2507 15.3642 22.2405 13.0017 21.1225 9.28824L21.122 9.2865C20.0025 5.54338 18.7154 3.54758 17.0407 2.64212Z" fill="#505050"/>
</g>
<defs>
<clipPath id="clip0_40_905">
<rect width="24" height="24" fill="white"/>
</clipPath>
</defs>
</svg>
