<svg width="24" height="24" viewBox="0 0 24 24" fill="none" xmlns="http://www.w3.org/2000/svg">
<path fill-rule="evenodd" clip-rule="evenodd" d="M1.41003 2.41C1.41003 1.85772 1.85775 1.41 2.41003 1.41H12.41C12.6753 1.41 12.9296 1.51536 13.1171 1.7029L21.7092 10.295C22.8724 11.4651 22.8724 13.3549 21.7092 14.525L21.7071 14.5271L14.5375 21.6967C13.9749 22.2598 13.2111 22.5766 12.415 22.5766C11.6189 22.5766 10.8554 22.2601 10.2927 21.6969L1.70334 13.1175C1.51555 12.93 1.41003 12.6754 1.41003 12.41V2.41ZM3.41003 3.41V11.9954L11.7067 20.2825L11.7075 20.2833C11.8951 20.4711 12.1496 20.5766 12.415 20.5766C12.6804 20.5766 12.935 20.4711 13.1225 20.2833L20.2908 13.115L20.2917 13.1141C20.6782 12.7243 20.6782 12.0957 20.2917 11.7059L20.2908 11.705L11.9958 3.41H3.41003Z" fill="#505050"/>
<path d="M10.41 8.91C10.41 9.73843 9.73846 10.41 8.91003 10.41C8.08161 10.41 7.41003 9.73843 7.41003 8.91C7.41003 8.08158 8.08161 7.41 8.91003 7.41C9.73846 7.41 10.41 8.08158 10.41 8.91Z" fill="#505050"/>
</svg>
