<svg width="24" height="24" viewBox="0 0 24 24" fill="none" xmlns="http://www.w3.org/2000/svg">
<path fill-rule="evenodd" clip-rule="evenodd" d="M9.43502 3.34139C9.97887 2.44482 10.9514 1.89728 12 1.89728C13.0486 1.89728 14.0212 2.44482 14.565 3.34139L14.5679 3.34614L23.0379 17.4862L23.046 17.5C23.5791 18.4231 23.5822 19.5597 23.0544 20.4858C22.5265 21.4118 21.5469 21.9882 20.481 22L20.47 22.0001L3.51903 22C2.45315 21.9883 1.47353 21.4118 0.94567 20.4858C0.41781 19.5597 0.420993 18.4231 0.95403 17.5L0.962153 17.4862L9.43502 3.34139ZM11.1462 4.37666L2.6827 18.5059C2.50833 18.8125 2.50837 19.1886 2.68322 19.4953C2.85842 19.8027 3.1829 19.9945 3.53642 20H20.4636C20.8171 19.9945 21.1416 19.8027 21.3168 19.4953C21.4917 19.1886 21.4917 18.8126 21.3174 18.5059L12.855 4.37865C12.8546 4.37799 12.8542 4.37732 12.8538 4.37666C12.6723 4.07898 12.3488 3.89728 12 3.89728C11.6513 3.89728 11.3277 4.07898 11.1462 4.37666Z" fill="#505050"/>
</svg>
