<svg width="24" height="24" viewBox="0 0 24 24" fill="none" xmlns="http://www.w3.org/2000/svg">
<g clip-path="url(#clip0_40_928)">
<path fill-rule="evenodd" clip-rule="evenodd" d="M20.1328 3.38503C18.6196 2.03079 16.4579 1.61263 14.5255 2.35019C12.3887 3.16577 10.9843 5.22196 10.9997 7.5065C8.13296 7.29139 5.48993 5.80553 3.81834 3.42528C3.6113 3.13047 3.26168 2.9698 2.90312 3.0047C2.54456 3.03959 2.23248 3.26465 2.08617 3.59386L2.99998 3.99999C2.08617 3.59386 2.08596 3.59434 2.08573 3.59485L2.08519 3.59606L2.08385 3.5991L2.08011 3.60766L2.06854 3.63459C2.05908 3.65684 2.04619 3.68765 2.03042 3.72658C1.99889 3.80441 1.95575 3.91488 1.90526 4.05453C1.8044 4.3335 1.67356 4.73077 1.54746 5.21836C1.29646 6.18889 1.05769 7.54228 1.12601 9.0454C1.19454 10.5529 1.57341 12.2316 2.57704 13.8163C3.3294 15.0042 4.41157 16.1054 5.91472 17.033C4.39635 17.7325 2.72654 18.0679 1.03973 18.0008C0.577005 17.9824 0.162178 18.2841 0.0371299 18.73C-0.0879187 19.1758 0.109527 19.6493 0.514338 19.8742C5.29085 22.5278 10.6509 22.5525 14.8448 20.3202C19.0631 18.075 22 13.5999 22 7.49999L22 7.49669C21.9994 7.33443 21.9917 7.17237 21.9769 7.01096C22.9424 5.93956 23.629 4.64314 23.9716 3.23661C24.0702 2.83161 23.9073 2.40791 23.5627 2.17335C23.2181 1.93879 22.7642 1.94256 22.4236 2.18283C21.7152 2.68253 20.9449 3.08652 20.1328 3.38503ZM3.40458 6.0438C3.22091 6.84514 3.07426 7.86132 3.12395 8.95459C3.18043 10.1971 3.48906 11.5184 4.26667 12.7462C5.04027 13.9677 6.31602 15.1573 8.40612 16.0862C8.73792 16.2337 8.96372 16.5494 8.99602 16.911C9.02831 17.2727 8.86204 17.6235 8.56161 17.8274C7.45067 18.5815 6.23418 19.1488 4.96008 19.5157C8.13025 20.3233 11.307 19.9376 13.9051 18.5547C17.4365 16.6752 19.9995 12.9008 20 7.50166C19.9992 7.28556 19.9783 7.07 19.9378 6.85774C19.8751 6.52988 19.9801 6.19237 20.2178 5.95799C20.4406 5.7383 20.6469 5.50416 20.8357 5.25749C20.6092 5.34105 20.3799 5.41777 20.1483 5.48752C19.7717 5.60094 19.3635 5.48302 19.1054 5.18623C18.1472 4.08439 16.6029 3.698 15.2387 4.21871C13.8744 4.73942 12.9803 6.05647 12.9999 7.51659L13.0001 7.52999H13V8.52999C13 9.07218 12.5679 9.5156 12.0259 9.52966C8.76543 9.6142 5.65043 8.33083 3.40458 6.0438Z" fill="#505050"/>
</g>
<defs>
<clipPath id="clip0_40_928">
<rect width="24" height="24" fill="white"/>
</clipPath>
</defs>
</svg>
