<svg width="24" height="24" viewBox="0 0 24 24" fill="none" xmlns="http://www.w3.org/2000/svg">
<g clip-path="url(#clip0_40_1045)">
<path d="M1.01335 6.84348C2.73496 3.53956 6.31423 1.63791 10.0157 2.06055C13.4558 2.45333 16.3404 4.77817 17.4794 7.99999H18.0001C20.7423 8.0018 23.135 9.86253 23.8114 12.52C24.4878 15.1775 23.2764 17.9554 20.8688 19.268C20.3838 19.5323 19.7764 19.3536 19.5121 18.8687C19.2477 18.3837 19.4265 17.7763 19.9114 17.512C21.5165 16.6369 22.3241 14.785 21.8732 13.0133C21.4223 11.2417 19.8276 10.0012 17.9994 9.99999H16.7401C16.2842 9.99999 15.886 9.69167 15.7719 9.2503C15.0466 6.44488 12.6678 4.37635 9.78885 4.04764C6.9099 3.71892 4.12602 5.19798 2.78699 7.76769C1.44796 10.3374 1.83062 13.4665 3.74942 15.6378C4.11514 16.0516 4.07613 16.6836 3.66228 17.0493C3.24844 17.415 2.61648 17.376 2.25076 16.9622C-0.21628 14.1705 -0.708264 10.1474 1.01335 6.84348Z" fill="#505050"/>
<path d="M12.7072 11.2929C12.3166 10.9024 11.6835 10.9024 11.293 11.2929L7.29295 15.2929C6.90243 15.6834 6.90243 16.3166 7.29295 16.7071C7.68348 17.0976 8.31664 17.0976 8.70717 16.7071L11.0001 14.4142V21C11.0001 21.5523 11.4478 22 12.0001 22C12.5523 22 13.0001 21.5523 13.0001 21V14.4142L15.293 16.7071C15.6835 17.0976 16.3166 17.0976 16.7072 16.7071C17.0977 16.3166 17.0977 15.6834 16.7072 15.2929L12.7072 11.2929Z" fill="#505050"/>
</g>
<defs>
<clipPath id="clip0_40_1045">
<rect width="24" height="24" fill="white"/>
</clipPath>
</defs>
</svg>
