<svg width="24" height="24" viewBox="0 0 24 24" fill="none" xmlns="http://www.w3.org/2000/svg">
<path d="M12 8.10278C12.5523 8.10278 13 8.5505 13 9.10278V13.1028C13 13.6551 12.5523 14.1028 12 14.1028C11.4477 14.1028 11 13.6551 11 13.1028V9.10278C11 8.5505 11.4477 8.10278 12 8.10278Z" fill="#505050"/>
<path d="M12 18.1028C12.5523 18.1028 13 17.6551 13 17.1028C13 16.5505 12.5523 16.1028 12 16.1028C11.4477 16.1028 11 16.5505 11 17.1028C11 17.6551 11.4477 18.1028 12 18.1028Z" fill="#505050"/>
<path fill-rule="evenodd" clip-rule="evenodd" d="M9.43502 3.44415C9.97887 2.54757 10.9514 2.00003 12 2.00003C13.0486 2.00003 14.0212 2.54757 14.565 3.44415L14.5679 3.4489L23.0379 17.5889L23.046 17.6027C23.5791 18.5258 23.5822 19.6624 23.0544 20.5885C22.5265 21.5146 21.5469 22.091 20.481 22.1027L20.47 22.1028L3.51903 22.1028C2.45315 22.0911 1.47353 21.5146 0.94567 20.5885C0.41781 19.6624 0.420993 18.5258 0.95403 17.6027L0.962153 17.5889L9.43502 3.44415ZM11.1462 4.47941L2.6827 18.6086C2.50833 18.9153 2.50837 19.2913 2.68322 19.5981C2.85842 19.9055 3.1829 20.0973 3.53642 20.1028H20.4636C20.8171 20.0973 21.1416 19.9055 21.3168 19.5981C21.4917 19.2914 21.4917 18.9153 21.3174 18.6087L12.855 4.4814L12.8538 4.47941C12.6723 4.18173 12.3488 4.00003 12 4.00003C11.6513 4.00003 11.3277 4.18173 11.1462 4.47941Z" fill="#505050"/>
</svg>
