<svg width="24" height="24" viewBox="0 0 24 24" fill="none" xmlns="http://www.w3.org/2000/svg">
<path fill-rule="evenodd" clip-rule="evenodd" d="M14.4998 1.28846C9.52178 0.126727 4.39945 2.5474 2.1365 7.13102C-0.126448 11.7146 1.06642 17.2531 5.01561 20.4988C8.96481 23.7445 14.6295 23.8419 18.6879 20.7339C19.1264 20.3981 19.2096 19.7705 18.8739 19.332C18.5381 18.8935 17.9104 18.8103 17.4719 19.1461C14.1514 21.6889 9.51664 21.6092 6.28548 18.9537C3.05432 16.2981 2.07835 11.7666 3.92985 8.01641C5.78135 4.26617 9.97235 2.28562 14.0453 3.23612C18.1182 4.18662 20.9996 7.8177 20.9999 12.0001V13C20.9999 14.1046 20.1045 15 18.9999 15C17.8953 15 16.9999 14.1046 16.9999 13V12.014C16.9999 12.0093 16.9999 12.0047 16.9999 12C16.9999 9.23858 14.7614 7 11.9999 7C9.23851 7 6.99994 9.23858 6.99994 12C6.99994 14.7614 9.23851 17 11.9999 17C13.4879 17 14.8241 16.35 15.74 15.3185C16.4652 16.3363 17.655 17 18.9999 17C21.2091 17 22.9999 15.2091 22.9999 13V11.9999C22.9996 6.88812 19.4779 2.45018 14.4998 1.28846ZM14.9999 11.9945L14.9999 12V12.0111C14.9939 13.6628 13.6531 15 11.9999 15C10.3431 15 8.99994 13.6569 8.99994 12C8.99994 10.3431 10.3431 9 11.9999 9C13.6549 9 14.9969 10.3401 14.9999 11.9945Z" fill="#505050"/>
</svg>
