<svg width="24" height="24" viewBox="0 0 24 24" fill="none" xmlns="http://www.w3.org/2000/svg">
<path fill-rule="evenodd" clip-rule="evenodd" d="M10.665 0.554497C11.506 0.136619 12.4941 0.136619 13.335 0.554497L13.3373 0.555598L21.335 4.5545L21.3364 4.55518C22.3551 5.06203 22.9994 6.10159 23 7.2395V16.77C22.9994 17.9081 22.355 18.9483 21.3361 19.4551L21.335 19.4556L13.3375 23.4543C12.4925 23.8772 11.4976 23.8772 10.6525 23.4543L2.65284 19.4545L2.65007 19.4531C1.6327 18.9404 0.993567 17.8959 1.00005 16.7569V7.24004C1.00004 5.76044 1.97168 4.88831 2.55883 4.60261L10.665 0.554497ZM11.555 2.34556L4.23661 6.00028L12 9.88199L19.759 6.00253L12.445 2.34556L12.4441 2.34511C12.1643 2.20639 11.8349 2.20679 11.555 2.34556ZM3.00005 16.767V7.61806L11.0001 11.6181V21.392L3.54921 17.6666C3.21018 17.4954 2.99741 17.1468 3.00005 16.767ZM13.0001 21.387L20.4428 17.6656L20.445 17.6645C20.7849 17.4956 20.9998 17.149 21 16.7695V7.61806L13.0001 11.6181V21.387Z" fill="#505050"/>
</svg>
