<svg width="24" height="24" viewBox="0 0 24 24" fill="none" xmlns="http://www.w3.org/2000/svg">
<g clip-path="url(#clip0_40_930)">
<path d="M9.50012 0.0145204C5.59006 -0.205657 1.98643 2.12793 0.587725 5.78589C-0.810985 9.44386 0.316325 13.5864 3.37576 16.0312C3.80721 16.376 4.43647 16.3057 4.78124 15.8743C5.12601 15.4428 5.05574 14.8136 4.62429 14.4688C2.24473 12.5673 1.36793 9.34529 2.45582 6.5002C3.5437 3.65512 6.34652 1.84011 9.38768 2.01136C12.4288 2.18261 15.0102 4.3008 15.7718 7.25003C15.8858 7.69153 16.284 8 16.74 8H17.9992C19.8914 8.0024 21.523 9.3303 21.9097 11.1825C22.2964 13.0349 21.3322 14.9048 19.5988 15.664C19.093 15.8856 18.8625 16.4753 19.084 16.9812C19.3056 17.4871 19.8953 17.7176 20.4012 17.496C23.0012 16.3573 24.4476 13.5524 23.8675 10.7738C23.2874 7.99526 20.8397 6.00334 18.0012 6H17.4795C16.2801 2.60317 13.1473 0.219893 9.50012 0.0145204Z" fill="#505050"/>
<path d="M9 13C9 12.4477 8.55229 12 8 12C7.44772 12 7 12.4477 7 13V21C7 21.5523 7.44772 22 8 22C8.55229 22 9 21.5523 9 21V13Z" fill="#505050"/>
<path d="M17 13C17 12.4477 16.5523 12 16 12C15.4477 12 15 12.4477 15 13V21C15 21.5523 15.4477 22 16 22C16.5523 22 17 21.5523 17 21V13Z" fill="#505050"/>
<path d="M12 14C12.5523 14 13 14.4477 13 15V23C13 23.5523 12.5523 24 12 24C11.4477 24 11 23.5523 11 23V15C11 14.4477 11.4477 14 12 14Z" fill="#505050"/>
</g>
<defs>
<clipPath id="clip0_40_930">
<rect width="24" height="24" fill="white"/>
</clipPath>
</defs>
</svg>
