<svg width="24" height="24" viewBox="0 0 24 24" fill="none" xmlns="http://www.w3.org/2000/svg">
<g clip-path="url(#clip0_40_934)">
<path d="M0.587786 5.78589C1.9865 2.12793 5.59012 -0.205657 9.50019 0.0145204C13.1473 0.219893 16.2801 2.60317 17.4796 6H18.0013C20.8397 6.00334 23.2875 7.99526 23.8676 10.7738C24.4476 13.5524 23.0013 16.3573 20.4013 17.496C19.8954 17.7176 19.3056 17.4871 19.0841 16.9812C18.8625 16.4753 19.093 15.8856 19.5989 15.664C21.3323 14.9048 22.2965 13.0349 21.9098 11.1825C21.5231 9.3303 19.8914 8.0024 17.9993 8H16.7401C16.2841 8 15.8859 7.69153 15.7718 7.25003C15.0102 4.3008 12.4289 2.18261 9.38774 2.01136C6.34658 1.84011 3.54376 3.65512 2.45588 6.5002C1.36799 9.34529 2.24479 12.5673 4.62435 14.4688C5.0558 14.8136 5.12607 15.4428 4.7813 15.8743C4.43653 16.3057 3.80727 16.376 3.37582 16.0312C0.316386 13.5864 -0.810924 9.44386 0.587786 5.78589Z" fill="#505050"/>
<path d="M13.8321 11.5547C14.1384 11.0952 14.0142 10.4743 13.5547 10.1679C13.0952 9.86158 12.4743 9.98575 12.168 10.4453L8.16795 16.4453C7.96338 16.7521 7.94431 17.1467 8.11833 17.4718C8.29235 17.797 8.63121 18 9 18H13.1315L10.168 22.4453C9.8616 22.9048 9.98577 23.5257 10.4453 23.832C10.9048 24.1384 11.5257 24.0142 11.8321 23.5547L15.8321 17.5547C16.0366 17.2478 16.0557 16.8533 15.8817 16.5281C15.7077 16.203 15.3688 16 15 16H10.8685L13.8321 11.5547Z" fill="#505050"/>
</g>
<defs>
<clipPath id="clip0_40_934">
<rect width="24" height="24" fill="white"/>
</clipPath>
</defs>
</svg>
