<svg width="24" height="24" viewBox="0 0 24 24" fill="none" xmlns="http://www.w3.org/2000/svg">
<g clip-path="url(#clip0_40_908)">
<path d="M8.08229 1.04661C9.50117 0.902126 10.9341 1.09692 12.2629 1.61493C13.5917 2.13294 14.7784 2.95934 15.7251 4.02601C16.4979 4.89668 17.0928 5.90709 17.4792 7.00002H18.0011C19.3783 7.00164 20.713 7.47697 21.7811 8.34622C22.8493 9.21547 23.586 10.4257 23.8674 11.7738C24.1488 13.1219 23.958 14.5258 23.3268 15.7499C22.6956 16.9739 21.6626 17.9435 20.4011 18.496C19.8952 18.7176 19.3055 18.4871 19.0839 17.9812C18.8623 17.4753 19.0928 16.8856 19.5987 16.664C20.4397 16.2957 21.1284 15.6493 21.5492 14.8332C21.97 14.0172 22.0972 13.0813 21.9096 12.1826C21.722 11.2838 21.2309 10.477 20.5188 9.89749C19.8068 9.31807 18.9171 9.00119 17.9991 9.00002H16.7399C16.2839 9.00002 15.8857 8.69155 15.7717 8.25005C15.4943 7.17601 14.9657 6.18326 14.2293 5.35363C13.493 4.524 12.57 3.88125 11.5365 3.47835C10.5029 3.07545 9.38847 2.92394 8.2849 3.03632C7.18132 3.14869 6.12026 3.52173 5.18916 4.12468C4.25806 4.72763 3.48358 5.54323 2.92957 6.50425C2.37555 7.46528 2.05786 8.54421 2.00269 9.65211C1.94751 10.76 2.15642 11.8652 2.6122 12.8765C3.06799 13.8878 3.75759 14.7763 4.62418 15.4688C5.05563 15.8136 5.1259 16.4428 4.78113 16.8743C4.43635 17.3057 3.8071 17.376 3.37565 17.0312C2.26147 16.1409 1.37484 14.9985 0.788827 13.6983C0.20282 12.398 -0.0657823 10.9771 0.00516086 9.55263C0.0761041 8.12818 0.484561 6.74098 1.19687 5.50538C1.90917 4.26978 2.90492 3.22115 4.10205 2.44593C5.29918 1.6707 6.66341 1.19109 8.08229 1.04661Z" fill="#505050"/>
<path d="M6.99994 16C6.99994 15.4477 7.44765 15 7.99994 15H8.00994C8.56222 15 9.00994 15.4477 9.00994 16C9.00994 16.5523 8.56222 17 8.00994 17H7.99994C7.44765 17 6.99994 16.5523 6.99994 16Z" fill="#505050"/>
<path d="M7.99994 19C7.44765 19 6.99994 19.4477 6.99994 20C6.99994 20.5523 7.44765 21 7.99994 21H8.00994C8.56222 21 9.00994 20.5523 9.00994 20C9.00994 19.4477 8.56222 19 8.00994 19H7.99994Z" fill="#505050"/>
<path d="M10.9999 18C10.9999 17.4477 11.4477 17 11.9999 17H12.0099C12.5622 17 13.0099 17.4477 13.0099 18C13.0099 18.5523 12.5622 19 12.0099 19H11.9999C11.4477 19 10.9999 18.5523 10.9999 18Z" fill="#505050"/>
<path d="M11.9999 21C11.4477 21 10.9999 21.4477 10.9999 22C10.9999 22.5523 11.4477 23 11.9999 23H12.0099C12.5622 23 13.0099 22.5523 13.0099 22C13.0099 21.4477 12.5622 21 12.0099 21H11.9999Z" fill="#505050"/>
<path d="M14.9999 16C14.9999 15.4477 15.4477 15 15.9999 15H16.0099C16.5622 15 17.0099 15.4477 17.0099 16C17.0099 16.5523 16.5622 17 16.0099 17H15.9999C15.4477 17 14.9999 16.5523 14.9999 16Z" fill="#505050"/>
<path d="M15.9999 19C15.4477 19 14.9999 19.4477 14.9999 20C14.9999 20.5523 15.4477 21 15.9999 21H16.0099C16.5622 21 17.0099 20.5523 17.0099 20C17.0099 19.4477 16.5622 19 16.0099 19H15.9999Z" fill="#505050"/>
</g>
<defs>
<clipPath id="clip0_40_908">
<rect width="24" height="24" fill="white"/>
</clipPath>
</defs>
</svg>
