<svg width="24" height="24" viewBox="0 0 24 24" fill="none" xmlns="http://www.w3.org/2000/svg">
<path d="M21.9558 6.04308H18.2868C18.1362 4.2134 16.602 2.76993 14.7342 2.76993C12.8665 2.76993 11.3323 4.2134 11.1818 6.04308H6.43696L6.17579 4.68422C6.06287 4.09828 5.57581 3.66779 4.99698 3.6042C4.84519 3.1594 4.42875 2.83473 3.93109 2.83473H1.83459C1.21341 2.83473 0.7052 3.33949 0.7052 3.96076C0.7052 4.5853 1.21341 5.09007 1.83459 5.09007H3.93109C4.41462 5.09007 4.82404 4.78297 4.98638 4.35592C5.2158 4.40883 5.40287 4.5853 5.44871 4.82174L7.54874 15.6924C6.76522 15.7665 6.14404 16.4336 6.14404 17.2348C6.14404 18.0924 6.83932 18.7877 7.69345 18.7877H9.18639C8.90048 19.0454 8.72048 19.4124 8.72048 19.8217C8.72048 20.5983 9.35226 21.2301 10.1287 21.2301C10.9052 21.2301 11.5369 20.5983 11.5369 19.8217C11.5369 19.4124 11.357 19.0454 11.0711 18.7877H17.0111C16.7252 19.0454 16.5452 19.4124 16.5452 19.8217C16.5452 20.5983 17.177 21.2301 17.9534 21.2301C18.7299 21.2301 19.3617 20.5983 19.3617 19.8217C19.3617 19.4124 19.1817 19.0454 18.8958 18.7877H20.7099C20.9146 18.7877 21.0805 18.6218 21.0805 18.4172C21.0805 18.2125 20.9146 18.0465 20.7099 18.0465H7.69345C7.24874 18.0465 6.8852 17.6831 6.8852 17.2348C6.8852 16.79 7.24874 16.43 7.69345 16.43H19.6758C20.7029 16.43 21.5993 15.6961 21.8076 14.6901L23.2652 7.65596C23.4414 6.83349 22.8112 6.04308 21.9558 6.04308ZM14.7342 3.47581C16.3121 3.47581 17.5958 4.75953 17.5958 6.33743C17.5958 7.91515 16.3121 9.19904 14.7342 9.19904C13.1565 9.19904 11.8727 7.91515 11.8727 6.33743C11.8727 4.75953 13.1565 3.47581 14.7342 3.47581ZM22.5417 7.50413L21.084 14.5418C20.9464 15.2054 20.357 15.6854 19.6758 15.6854H8.30403L6.6205 6.78067H11.1974C11.3076 7.66406 11.7415 8.44628 12.377 9.00792V13.0983C12.377 13.4971 12.7052 13.8183 13.104 13.8183C13.5029 13.8183 13.824 13.4971 13.824 13.0983V9.78274C14.1152 9.85977 14.4192 9.90492 14.7342 9.90492C14.9835 9.90492 15.2267 9.87873 15.4617 9.82978V13.0983C15.4617 13.4971 15.7828 13.8183 16.1817 13.8183C16.5805 13.8183 16.9052 13.4971 16.9052 13.0983V9.16182C17.6417 8.59432 18.1505 7.74798 18.2711 6.78067H21.9558C22.3083 6.78067 22.6152 7.10064 22.5417 7.50413Z" fill="#505050"/>
<path d="M10.0165 8.25C9.61812 8.25 9.29517 8.57296 9.29517 8.97122V13.0981C9.29517 13.4966 9.61812 13.8195 10.0165 13.8195C10.4184 13.8195 10.7414 13.4966 10.7414 13.0981V8.97122C10.7414 8.57296 10.4184 8.25 10.0165 8.25ZM19.2678 8.25C18.8659 8.25 18.543 8.57296 18.543 8.97122V13.0981C18.543 13.4966 18.8659 13.8195 19.2678 13.8195C19.6662 13.8195 19.9893 13.4966 19.9893 13.0981V8.97122C19.9893 8.57296 19.6662 8.25 19.2678 8.25ZM13.6476 7.424C13.7854 7.56186 14.0088 7.56187 14.1466 7.424L14.7342 6.83651L15.3218 7.424C15.4597 7.56186 15.683 7.56187 15.8209 7.424C15.9587 7.28613 15.9587 7.06279 15.8209 6.92492L15.2333 6.33743L15.8209 5.74994C15.9587 5.61207 15.9587 5.38856 15.8209 5.25086C15.683 5.11299 15.4597 5.11299 15.3218 5.25086L14.7342 5.83835L14.1466 5.25086C14.0088 5.11299 13.7854 5.11299 13.6476 5.25086C13.5097 5.38856 13.5097 5.61207 13.6476 5.74994L14.2351 6.33743L13.6476 6.92492C13.5097 7.06279 13.5097 7.28613 13.6476 7.424Z" fill="#505050"/>
</svg>
