<svg width="24" height="24" viewBox="0 0 24 24" fill="none" xmlns="http://www.w3.org/2000/svg">
<g clip-path="url(#clip0_40_924)">
<path fill-rule="evenodd" clip-rule="evenodd" d="M17.855 1.31976C18.6995 1.07104 19.5002 0.991898 20.016 1.00015C20.4706 1.00742 20.863 1.32041 20.9712 1.76197C21.1356 2.4327 21.3702 4.0095 21.0918 5.4926C22.2038 6.87893 22.4888 8.62636 22.4997 9.45108C22.6099 10.7149 22.379 12.5853 21.3146 14.2274C20.4058 15.6296 18.9314 16.7975 16.7173 17.2923C16.9451 17.8827 17.0445 18.5218 17 19.1667V23C17 23.5523 16.5523 24 16 24C15.4477 24 15 23.5523 15 23V19.13C15 19.1038 15.001 19.0777 15.0031 19.0516C15.0564 18.3732 14.8156 17.7046 14.342 17.2161C14.071 16.9365 13.9869 16.5251 14.1264 16.1617C14.2659 15.7982 14.6037 15.5487 14.9922 15.5223C17.5206 15.3504 18.8877 14.2945 19.6364 13.1396C20.4188 11.9325 20.5913 10.5102 20.5045 9.5944C20.5015 9.56303 20.5 9.53153 20.5 9.50002C20.5 8.90004 20.2339 7.41814 19.2929 6.47713C19.0353 6.21956 18.9382 5.8423 19.0393 5.49237C19.2623 4.72096 19.2468 3.78304 19.1677 3.0691C18.9367 3.10641 18.6823 3.16104 18.42 3.23828C17.7705 3.42959 17.1522 3.73613 16.7118 4.18243C16.4584 4.43914 16.0865 4.53954 15.7384 4.4452C13.6177 3.87045 11.3823 3.87045 9.26158 4.4452C8.96211 4.52636 8.64193 4.46392 8.39491 4.27618C7.46998 3.57323 6.49906 3.23812 5.81162 3.09419C5.75353 3.6958 5.7542 4.56307 5.97577 5.55124C6.04434 5.8571 5.96554 6.17741 5.76289 6.41654C4.7433 7.61966 4.49999 9.05079 4.49999 9.52002C4.49999 9.5539 4.49827 9.58776 4.49483 9.62147C4.41128 10.4408 4.5746 11.7703 5.35916 12.9593C6.11745 14.1085 7.51271 15.2144 10.0734 15.559C10.4473 15.6093 10.761 15.8657 10.8847 16.2222C11.0084 16.5786 10.921 16.9743 10.6586 17.2454C10.1907 17.729 9.95032 18.3886 9.99753 19.0599C9.99917 19.0832 9.99999 19.1066 9.99999 19.13V19.9776C10.0003 19.9928 10.0003 20.0081 9.99999 20.0233V23C9.99999 23.5523 9.55228 24 8.99999 24C8.44771 24 7.99999 23.5523 7.99999 23V21.2543C7.19382 21.3777 6.48439 21.3565 5.85023 21.2081C4.88546 20.9823 4.19642 20.4857 3.66789 19.9571C3.40924 19.6985 3.18642 19.4296 2.99387 19.1884C2.92845 19.1064 2.86866 19.0305 2.81216 18.9588C2.69174 18.8058 2.58628 18.6719 2.47312 18.5391C2.14508 18.154 1.94159 18.0162 1.75746 17.9702C1.22166 17.8362 0.895901 17.2933 1.02985 16.7575C1.1638 16.2217 1.70673 15.8959 2.24253 16.0299C3.0584 16.2338 3.60491 16.7835 3.99561 17.2422C4.13475 17.4055 4.27845 17.5879 4.41008 17.755C4.46116 17.8198 4.51042 17.8824 4.55689 17.9406C4.73544 18.1642 4.90324 18.3641 5.0821 18.5429C5.42857 18.8894 5.80202 19.1428 6.306 19.2607C6.70619 19.3544 7.24823 19.3764 7.99999 19.2233V19.1629C7.95909 18.5006 8.06983 17.8452 8.31522 17.2434C6.08068 16.6376 4.60183 15.4429 3.68982 14.0608C2.62899 12.4531 2.38836 10.6738 2.50044 9.46697C2.51372 8.66204 2.82748 7.01409 3.9295 5.51328C3.62503 3.76755 3.84423 2.32151 4.04887 1.69121C4.1804 1.28608 4.55413 1.00874 4.98 1.00022C5.78253 0.984169 7.52234 1.26937 9.2036 2.39706C11.3496 1.89164 13.583 1.88655 15.7308 2.38178C16.4022 1.85098 17.1693 1.5217 17.855 1.31976Z" fill="#505050"/>
</g>
<defs>
<clipPath id="clip0_40_924">
<rect width="24" height="24" fill="white"/>
</clipPath>
</defs>
</svg>
