<svg width="24" height="24" viewBox="0 0 24 24" fill="none" xmlns="http://www.w3.org/2000/svg">
<g clip-path="url(#clip0_40_910)">
<path fill-rule="evenodd" clip-rule="evenodd" d="M4.55666 2.48167C4.55545 2.47795 4.55427 2.47422 4.55313 2.47048L4.55666 2.48167ZM5.10751 4.17287L6.9992 9.97977C7.13331 10.3914 7.51708 10.67 7.95002 10.67H16.05C16.4833 10.67 16.8672 10.3911 17.0011 9.97902L18.8868 4.17512L20.779 9.99902L22.0032 13.6239L12 20.8938L2.0356 13.6521L5.10751 4.17287ZM19.2708 2.74168L19.2744 2.73837C19.2732 2.73948 19.272 2.74058 19.2708 2.74168ZM4.14742 1.26001C4.69363 0.762793 5.52888 0.763346 6.07444 1.26167C6.08139 1.26802 6.08824 1.27446 6.09501 1.281C6.26559 1.44587 6.39209 1.65081 6.46305 1.87704L8.67598 8.67002H15.3235L17.539 1.85102C17.5446 1.83362 17.5507 1.81638 17.5573 1.79931C17.6371 1.59318 17.7638 1.40852 17.9274 1.26001C18.4736 0.762793 19.3089 0.763346 19.8544 1.26167C19.8614 1.26802 19.8682 1.27446 19.875 1.281C20.0457 1.44599 20.1723 1.6511 20.2432 1.87753L22.6793 9.37541L23.9474 13.13C23.952 13.1434 23.9562 13.1569 23.9601 13.1704C24.1844 13.9405 23.8839 14.7657 23.2203 15.2118L12.5879 22.939C12.2374 23.1937 11.7627 23.1937 11.4121 22.939L0.762123 15.199L0.757562 15.1956C0.117075 14.7246 -0.148318 13.8956 0.0991758 13.1404L3.75896 1.85102C3.76462 1.83362 3.77075 1.81638 3.77735 1.79931C3.85706 1.59319 3.98379 1.40853 4.14742 1.26001Z" fill="#505050"/>
</g>
<defs>
<clipPath id="clip0_40_910">
<rect width="24" height="24" fill="white"/>
</clipPath>
</defs>
</svg>
