<svg width="24" height="24" viewBox="0 0 24 24" fill="none" xmlns="http://www.w3.org/2000/svg">
<g clip-path="url(#clip0_40_1141)">
<path d="M12.3535 0.0126364C13.8025 0.0334338 14.7788 0.713682 15.3459 1.59794C15.876 2.42448 16.0189 3.37318 16 4.01591V9.5C16 10.0523 15.5523 10.5 15 10.5C14.4477 10.5 14 10.0523 14 9.5V4C14 3.98845 14.0002 3.9769 14.0006 3.96536C14.0127 3.61642 13.9246 3.08654 13.6624 2.67764C13.4382 2.32805 13.0632 2.0155 12.2972 2.01217C12.2651 2.01203 12.233 2.01035 12.2011 2.00712C11.1788 1.90386 10.2445 2.59205 10.0401 3.599C9.93016 4.14024 9.4023 4.48991 8.86106 4.38001C8.31982 4.27011 7.97016 3.74225 8.08006 3.20101C8.48576 1.20305 10.3279 -0.167444 12.3535 0.0126364Z" fill="#505050"/>
<path fill-rule="evenodd" clip-rule="evenodd" d="M0.292893 1.70711L8 9.41421V12.0009C8.00142 13.6176 8.97597 15.0746 10.4697 15.6931C11.6471 16.1806 12.9646 16.0717 14.03 15.4442L15.5061 16.9203C14.5584 17.6031 13.4401 17.9875 12.2945 18.0441C12.2014 18.0154 12.1025 18 12 18C11.8973 18 11.7983 18.0155 11.705 18.0442C11.032 18.0112 10.358 17.8644 9.71177 17.5978C7.45063 16.6651 5.98205 14.4532 5.99994 12.0073V10C5.99994 9.44771 5.55223 9 4.99994 9C4.44766 9 3.99994 9.44771 3.99994 10V11.9965C3.97763 15.2562 5.93542 18.2036 8.94911 19.4467C9.61646 19.722 10.306 19.9015 11 19.9889V22H8C7.44772 22 7 22.4477 7 23C7 23.5523 7.44772 24 8 24H16C16.5523 24 17 23.5523 17 23C17 22.4477 16.5523 22 16 22H13V19.9885C14.4179 19.8096 15.7816 19.2522 16.9342 18.3484L22.2929 23.7071C22.6834 24.0976 23.3166 24.0976 23.7071 23.7071C24.0976 23.3166 24.0976 22.6834 23.7071 22.2929L17.869 16.4548C17.8241 16.3761 17.7677 16.3022 17.6998 16.2357C17.637 16.1741 17.5681 16.1226 17.4951 16.0809L1.70711 0.292893C1.31658 -0.0976311 0.683417 -0.0976311 0.292893 0.292893C-0.0976311 0.683417 -0.0976311 1.31658 0.292893 1.70711ZM10 11.9995V11.4142L12.5156 13.9298C12.0997 14.0407 11.6499 14.0171 11.2349 13.8452C10.4881 13.536 10.0009 12.8077 10 11.9995Z" fill="#505050"/>
<path d="M20 10C20 9.44771 19.5523 9 19 9C18.4477 9 18 9.44771 18 10V12C18 12.2149 17.9214 12.9212 17.6056 13.5528C17.3586 14.0468 17.5588 14.6474 18.0528 14.8944C18.5468 15.1414 19.1474 14.9412 19.3944 14.4472C19.8786 13.4788 20 12.4518 20 12V10Z" fill="#505050"/>
</g>
<defs>
<clipPath id="clip0_40_1141">
<rect width="24" height="24" fill="white"/>
</clipPath>
</defs>
</svg>
