<svg width="85" height="84" viewBox="0 0 85 84" fill="none" xmlns="http://www.w3.org/2000/svg">
<g filter="url(#filter0_f_334_11067)">
<path d="M75.7947 33.5858C74.5191 32.2527 73.1996 30.879 72.7022 29.6711C72.2421 28.5647 72.215 26.7309 72.1879 24.9546C72.1372 21.6523 72.083 17.9102 69.4812 15.3083C66.8793 12.7064 63.1372 12.6523 59.8349 12.6015C58.0586 12.5745 56.2248 12.5474 55.1184 12.0873C53.9139 11.5899 52.5368 10.2703 51.2037 8.99478C48.8691 6.75155 46.2165 4.21057 42.6842 4.21057C39.1518 4.21057 36.5026 6.75155 34.1646 8.99478C32.8315 10.2703 31.4578 11.5899 30.25 12.0873C29.1503 12.5474 27.3097 12.5745 25.5334 12.6015C22.2312 12.6523 18.4891 12.7064 15.8872 15.3083C13.2853 17.9102 13.2481 21.6523 13.1804 24.9546C13.1533 26.7309 13.1263 28.5647 12.6661 29.6711C12.1688 30.8756 10.8492 32.2527 9.57364 33.5858C7.33041 35.9203 4.78943 38.573 4.78943 42.1053C4.78943 45.6376 7.33041 48.2869 9.57364 50.6249C10.8492 51.9579 12.1688 53.3316 12.6661 54.5395C13.1263 55.6459 13.1533 57.4797 13.1804 59.2561C13.2312 62.5583 13.2853 66.3004 15.8872 68.9023C18.4891 71.5042 22.2312 71.5583 25.5334 71.6091C27.3097 71.6361 29.1436 71.6632 30.25 72.1234C31.4545 72.6207 32.8315 73.9403 34.1646 75.2158C36.4992 77.4591 39.1518 80 42.6842 80C46.2165 80 48.8657 77.4591 51.2037 75.2158C52.5368 73.9403 53.9105 72.6207 55.1184 72.1234C56.2248 71.6632 58.0586 71.6361 59.8349 71.6091C63.1372 71.5583 66.8793 71.5042 69.4812 68.9023C72.083 66.3004 72.1372 62.5583 72.1879 59.2561C72.215 57.4797 72.2421 55.6459 72.7022 54.5395C73.1996 53.335 74.5191 51.9579 75.7947 50.6249C78.0379 48.2903 80.5789 45.6376 80.5789 42.1053C80.5789 38.573 78.0379 35.9237 75.7947 33.5858ZM58.133 35.9L39.1857 54.8474C38.9343 55.0991 38.6358 55.2987 38.3072 55.4349C37.9786 55.5712 37.6263 55.6413 37.2706 55.6413C36.9149 55.6413 36.5627 55.5712 36.2341 55.4349C35.9055 55.2987 35.607 55.0991 35.3556 54.8474L27.2353 46.7271C26.9838 46.4756 26.7843 46.1771 26.6482 45.8485C26.5121 45.5199 26.4421 45.1677 26.4421 44.8121C26.4421 44.4564 26.5121 44.1042 26.6482 43.7757C26.7843 43.4471 26.9838 43.1485 27.2353 42.897C27.7432 42.3891 28.4321 42.1038 29.1503 42.1038C29.506 42.1038 29.8582 42.1739 30.1867 42.31C30.5153 42.4461 30.8139 42.6455 31.0654 42.897L37.2706 49.1057L54.303 32.07C54.5544 31.8185 54.853 31.619 55.1816 31.4829C55.5102 31.3468 55.8623 31.2767 56.218 31.2767C56.5737 31.2767 56.9258 31.3468 57.2544 31.4829C57.583 31.619 57.8815 31.8185 58.133 32.07C58.3845 32.3215 58.584 32.62 58.7201 32.9486C58.8562 33.2772 58.9263 33.6294 58.9263 33.985C58.9263 34.3407 58.8562 34.6928 58.7201 35.0214C58.584 35.35 58.3845 35.6486 58.133 35.9Z" fill="#E0E1DC"/>
</g>
<path d="M75.7947 29.3752C74.5191 28.0421 73.1996 26.6684 72.7022 25.4605C72.2421 24.3541 72.215 22.5203 72.1879 20.744C72.1372 17.4417 72.083 13.6996 69.4812 11.0977C66.8793 8.49586 63.1372 8.44173 59.8349 8.39098C58.0586 8.36391 56.2248 8.33684 55.1184 7.87669C53.9139 7.37932 52.5368 6.05977 51.2037 4.78421C48.8691 2.54098 46.2165 0 42.6842 0C39.1518 0 36.5026 2.54098 34.1646 4.78421C32.8315 6.05977 31.4578 7.37932 30.25 7.87669C29.1503 8.33684 27.3097 8.36391 25.5334 8.39098C22.2312 8.44173 18.4891 8.49586 15.8872 11.0977C13.2853 13.6996 13.2481 17.4417 13.1804 20.744C13.1533 22.5203 13.1263 24.3541 12.6661 25.4605C12.1688 26.665 10.8492 28.0421 9.57364 29.3752C7.33041 31.7098 4.78943 34.3624 4.78943 37.8947C4.78943 41.4271 7.33041 44.0763 9.57364 46.4143C10.8492 47.7474 12.1688 49.1211 12.6661 50.3289C13.1263 51.4353 13.1533 53.2692 13.1804 55.0455C13.2312 58.3477 13.2853 62.0898 15.8872 64.6917C18.4891 67.2936 22.2312 67.3477 25.5334 67.3985C27.3097 67.4256 29.1436 67.4526 30.25 67.9128C31.4545 68.4101 32.8315 69.7297 34.1646 71.0053C36.4992 73.2485 39.1518 75.7895 42.6842 75.7895C46.2165 75.7895 48.8657 73.2485 51.2037 71.0053C52.5368 69.7297 53.9105 68.4101 55.1184 67.9128C56.2248 67.4526 58.0586 67.4256 59.8349 67.3985C63.1372 67.3477 66.8793 67.2936 69.4812 64.6917C72.083 62.0898 72.1372 58.3477 72.1879 55.0455C72.215 53.2692 72.2421 51.4353 72.7022 50.3289C73.1996 49.1244 74.5191 47.7474 75.7947 46.4143C78.0379 44.0797 80.5789 41.4271 80.5789 37.8947C80.5789 34.3624 78.0379 31.7132 75.7947 29.3752ZM58.133 31.6895L39.1857 50.6368C38.9343 50.8885 38.6358 51.0882 38.3072 51.2244C37.9786 51.3606 37.6263 51.4307 37.2706 51.4307C36.9149 51.4307 36.5627 51.3606 36.2341 51.2244C35.9055 51.0882 35.607 50.8885 35.3556 50.6368L27.2353 42.5165C26.9838 42.2651 26.7843 41.9665 26.6482 41.6379C26.5121 41.3093 26.4421 40.9572 26.4421 40.6015C26.4421 40.2458 26.5121 39.8937 26.6482 39.5651C26.7843 39.2365 26.9838 38.938 27.2353 38.6865C27.7432 38.1786 28.4321 37.8932 29.1503 37.8932C29.506 37.8932 29.8582 37.9633 30.1867 38.0994C30.5153 38.2355 30.8139 38.435 31.0654 38.6865L37.2706 44.8951L54.303 27.8594C54.5544 27.6079 54.853 27.4084 55.1816 27.2723C55.5102 27.1362 55.8623 27.0662 56.218 27.0662C56.5737 27.0662 56.9258 27.1362 57.2544 27.2723C57.583 27.4084 57.8815 27.6079 58.133 27.8594C58.3845 28.1109 58.584 28.4094 58.7201 28.738C58.8562 29.0666 58.9263 29.4188 58.9263 29.7744C58.9263 30.1301 58.8562 30.4823 58.7201 30.8108C58.584 31.1394 58.3845 31.438 58.133 31.6895Z" fill="#E22517"/>
<g filter="url(#filter1_i_334_11067)">
<ellipse cx="42.6841" cy="37.8947" rx="28.4211" ry="28.4211" fill="white"/>
</g>
<g filter="url(#filter2_i_334_11067)">
<path d="M44.191 27.4357C43.7189 27.2102 43.2025 27.0933 42.6794 27.0933C42.1563 27.0933 41.6399 27.2102 41.1679 27.4357C40.7529 27.6347 40.3726 27.9592 39.8407 28.4131L39.7575 28.4827C39.2982 28.8966 38.7107 29.1402 38.0932 29.1726L37.9858 29.181C37.2885 29.2369 36.7902 29.2758 36.3563 29.4296C35.863 29.6039 35.415 29.8862 35.045 30.256C34.6751 30.6258 34.3925 31.0737 34.218 31.5668C34.0653 32.0008 34.0263 32.499 33.9705 33.1963L33.962 33.3038C33.9297 33.9212 33.6861 34.5088 33.2721 34.968L33.2026 35.0502C32.7486 35.5832 32.4231 35.9634 32.2251 36.3785C31.9997 36.8505 31.8827 37.3669 31.8827 37.89C31.8827 38.4131 31.9997 38.9295 32.2251 39.4015C32.4242 39.8165 32.7486 40.1968 33.2026 40.7287L33.2721 40.8119C33.704 41.3175 33.9083 41.801 33.962 42.4762L33.9705 42.5836C34.0263 43.281 34.0653 43.7792 34.219 44.2132C34.3933 44.7064 34.6757 45.1544 35.0455 45.5244C35.4153 45.8943 35.8631 46.1769 36.3563 46.3514C36.7902 46.5042 37.2885 46.5431 37.9858 46.599L38.0932 46.6074C38.7558 46.66 39.2413 46.8581 39.7575 47.2973L39.8396 47.3668C40.3726 47.8208 40.7529 48.1463 41.1679 48.3443C41.6399 48.5697 42.1563 48.6867 42.6794 48.6867C43.2025 48.6867 43.7189 48.5697 44.191 48.3443C44.606 48.1452 44.9862 47.8208 45.5182 47.3668L45.6014 47.2973C46.107 46.8654 46.5904 46.6611 47.2656 46.6074L47.3731 46.599C48.0704 46.5431 48.5686 46.5042 49.0026 46.3504C49.4958 46.1761 49.9438 45.8938 50.3138 45.524C50.6838 45.1542 50.9664 44.7063 51.1408 44.2132C51.2936 43.7792 51.3326 43.281 51.3884 42.5836L51.3968 42.4762C51.4495 41.8137 51.6475 41.3281 52.0867 40.8119L52.1563 40.7287C52.6102 40.1968 52.9357 39.8165 53.1338 39.4015C53.3592 38.9295 53.4762 38.4131 53.4762 37.89C53.4762 37.3669 53.3592 36.8505 53.1338 36.3785C52.9347 35.9634 52.6102 35.5832 52.1563 35.0513L52.0867 34.968C51.6728 34.5088 51.4292 33.9212 51.3968 33.3038L51.3884 33.1963C51.3326 32.499 51.2936 32.0008 51.1398 31.5668C50.9655 31.0736 50.6832 30.6256 50.3134 30.2556C49.9436 29.8856 49.4957 29.6031 49.0026 29.4286C48.5686 29.2758 48.0704 29.2369 47.3731 29.181L47.2656 29.1726C46.6482 29.1402 46.0606 28.8966 45.6014 28.4827L45.5182 28.4131C44.9862 27.9592 44.606 27.6337 44.191 27.4357ZM42.6794 32.8867C42.8889 32.8867 43.0899 32.9699 43.238 33.118C43.3862 33.2662 43.4694 33.4671 43.4694 33.6767V34.2033C43.4694 34.4128 43.3862 34.6138 43.238 34.7619C43.0899 34.9101 42.8889 34.9933 42.6794 34.9933C42.4699 34.9933 42.269 34.9101 42.1208 34.7619C41.9727 34.6138 41.8894 34.4128 41.8894 34.2033V33.6767C41.8894 33.4671 41.9727 33.2662 42.1208 33.118C42.269 32.9699 42.4699 32.8867 42.6794 32.8867ZM41.3628 42.1033C41.3628 41.94 41.4134 41.7807 41.5078 41.6473C41.6021 41.5139 41.7354 41.4131 41.8894 41.3586V37.5814C41.7138 37.5192 41.5658 37.3969 41.4716 37.2362C41.3773 37.0755 41.3429 36.8867 41.3744 36.7031C41.406 36.5194 41.5013 36.3529 41.6438 36.2328C41.7862 36.1126 41.9665 36.0467 42.1528 36.0467H42.6794C42.8889 36.0467 43.0899 36.1299 43.238 36.278C43.3862 36.4262 43.4694 36.6271 43.4694 36.8367V41.3586C43.645 41.4208 43.793 41.543 43.8873 41.7037C43.9815 41.8645 44.0159 42.0533 43.9844 42.2369C43.9529 42.4205 43.8575 42.5871 43.7151 42.7072C43.5727 42.8273 43.3924 42.8932 43.2061 42.8933H42.1528C41.9432 42.8933 41.7423 42.8101 41.5941 42.6619C41.446 42.5138 41.3628 42.3128 41.3628 42.1033Z" fill="#E22517"/>
</g>
<defs>
<filter id="filter0_f_334_11067" x="0.789429" y="0.210571" width="83.7894" height="83.7894" filterUnits="userSpaceOnUse" color-interpolation-filters="sRGB">
<feFlood flood-opacity="0" result="BackgroundImageFix"/>
<feBlend mode="normal" in="SourceGraphic" in2="BackgroundImageFix" result="shape"/>
<feGaussianBlur stdDeviation="2" result="effect1_foregroundBlur_334_11067"/>
</filter>
<filter id="filter1_i_334_11067" x="14.2631" y="5.47363" width="56.8422" height="60.8422" filterUnits="userSpaceOnUse" color-interpolation-filters="sRGB">
<feFlood flood-opacity="0" result="BackgroundImageFix"/>
<feBlend mode="normal" in="SourceGraphic" in2="BackgroundImageFix" result="shape"/>
<feColorMatrix in="SourceAlpha" type="matrix" values="0 0 0 0 0 0 0 0 0 0 0 0 0 0 0 0 0 0 127 0" result="hardAlpha"/>
<feOffset dy="-4"/>
<feGaussianBlur stdDeviation="2"/>
<feComposite in2="hardAlpha" operator="arithmetic" k2="-1" k3="1"/>
<feColorMatrix type="matrix" values="0 0 0 0 0.882353 0 0 0 0 0.78 0 0 0 0 0.768627 0 0 0 0.72 0"/>
<feBlend mode="normal" in2="shape" result="effect1_innerShadow_334_11067"/>
</filter>
<filter id="filter2_i_334_11067" x="30.0394" y="25.25" width="25.28" height="29.28" filterUnits="userSpaceOnUse" color-interpolation-filters="sRGB">
<feFlood flood-opacity="0" result="BackgroundImageFix"/>
<feBlend mode="normal" in="SourceGraphic" in2="BackgroundImageFix" result="shape"/>
<feColorMatrix in="SourceAlpha" type="matrix" values="0 0 0 0 0 0 0 0 0 0 0 0 0 0 0 0 0 0 127 0" result="hardAlpha"/>
<feOffset dy="4"/>
<feGaussianBlur stdDeviation="2"/>
<feComposite in2="hardAlpha" operator="arithmetic" k2="-1" k3="1"/>
<feColorMatrix type="matrix" values="0 0 0 0 0 0 0 0 0 0 0 0 0 0 0 0 0 0 0.25 0"/>
<feBlend mode="normal" in2="shape" result="effect1_innerShadow_334_11067"/>
</filter>
</defs>
</svg>
