<svg width="84" height="84" viewBox="0 0 84 84" fill="none" xmlns="http://www.w3.org/2000/svg">
<g filter="url(#filter0_f_334_11070)">
<path d="M41.8912 4C62.8223 4 79.79 20.9677 79.79 41.8988C79.79 62.8261 62.8223 79.79 41.8912 79.79C20.9601 79.79 4 62.8261 4 41.8988C3.99621 20.9677 20.9601 4 41.8912 4ZM41.8912 47.5749C38.8642 47.57 35.8669 48.1717 33.0763 49.3445C30.2857 50.5172 27.7583 52.2372 25.6435 54.4029C25.3822 54.6696 25.1761 54.9851 25.0368 55.3315C24.8975 55.6779 24.8278 56.0483 24.8317 56.4216C24.8355 56.795 24.9129 57.1639 25.0593 57.5073C25.2058 57.8507 25.4184 58.1619 25.6851 58.4231C25.9518 58.6844 26.2674 58.8905 26.6138 59.0298C26.9602 59.1691 27.3306 59.2388 27.7039 59.2349C28.0772 59.2311 28.4461 59.1537 28.7895 59.0073C29.1329 58.8608 29.4442 58.6482 29.7054 58.3815C31.2927 56.7581 33.1882 55.468 35.2808 54.587C37.3733 53.706 39.6208 53.2518 41.8912 53.251C46.5329 53.251 50.8714 55.1077 54.0581 58.3549C54.3198 58.6212 54.6314 58.8332 54.9751 58.979C55.3188 59.1248 55.6878 59.2014 56.0611 59.2046C56.4345 59.2078 56.8047 59.1374 57.1509 58.9975C57.497 58.8575 57.8121 58.6508 58.0783 58.389C58.3445 58.1273 58.5566 57.8157 58.7024 57.472C58.8482 57.1283 58.9248 56.7593 58.928 56.386C58.9312 56.0127 58.8608 55.6424 58.7208 55.2963C58.5809 54.9502 58.3742 54.635 58.1124 54.3688C55.9989 52.2116 53.4755 50.4986 50.6905 49.3306C47.9054 48.1625 44.915 47.563 41.895 47.5673M30.5238 29.5841C29.8908 29.5662 29.2607 29.6754 28.6706 29.9053C28.0805 30.1352 27.5425 30.4811 27.0885 30.9225C26.6344 31.3639 26.2734 31.8919 26.027 32.4752C25.7805 33.0585 25.6535 33.6854 25.6535 34.3187C25.6535 34.9519 25.7805 35.5788 26.027 36.1621C26.2734 36.7454 26.6344 37.2734 27.0885 37.7148C27.5425 38.1562 28.0805 38.5021 28.6706 38.732C29.2607 38.9619 29.8908 39.0711 30.5238 39.0532C31.7563 39.0183 32.9266 38.5042 33.7861 37.6201C34.6455 36.736 35.1263 35.5516 35.1263 34.3187C35.1263 33.0857 34.6455 31.9013 33.7861 31.0172C32.9266 30.1331 31.7563 29.619 30.5238 29.5841ZM53.2586 29.5841C52.6256 29.5662 51.9954 29.6754 51.4053 29.9053C50.8152 30.1352 50.2773 30.4811 49.8232 30.9225C49.3691 31.3639 49.0082 31.8919 48.7617 32.4752C48.5152 33.0585 48.3882 33.6854 48.3882 34.3187C48.3882 34.9519 48.5152 35.5788 48.7617 36.1621C49.0082 36.7454 49.3691 37.2734 49.8232 37.7148C50.2773 38.1562 50.8152 38.5021 51.4053 38.732C51.9954 38.9619 52.6256 39.0711 53.2586 39.0532C54.4911 39.0183 55.6614 38.5042 56.5208 37.6201C57.3802 36.736 57.861 35.5516 57.861 34.3187C57.861 33.0857 57.3802 31.9013 56.5208 31.0172C55.6614 30.1331 54.4911 29.619 53.2586 29.5841Z" fill="#E0E1DC"/>
</g>
<path d="M41.8912 2C62.8223 2 79.79 18.9677 79.79 39.8988C79.79 60.8261 62.8223 77.79 41.8912 77.79C20.9601 77.79 4 60.8261 4 39.8988C3.99621 18.9677 20.9601 2 41.8912 2ZM41.8912 45.5749C38.8642 45.57 35.8669 46.1717 33.0763 47.3445C30.2857 48.5172 27.7583 50.2372 25.6435 52.4029C25.3822 52.6696 25.1761 52.9851 25.0368 53.3315C24.8975 53.6779 24.8278 54.0483 24.8317 54.4216C24.8355 54.795 24.9129 55.1639 25.0593 55.5073C25.2058 55.8507 25.4184 56.1619 25.6851 56.4231C25.9518 56.6844 26.2674 56.8905 26.6138 57.0298C26.9602 57.1691 27.3306 57.2388 27.7039 57.2349C28.0772 57.2311 28.4461 57.1537 28.7895 57.0073C29.1329 56.8608 29.4442 56.6482 29.7054 56.3815C31.2927 54.7581 33.1882 53.468 35.2808 52.587C37.3733 51.706 39.6208 51.2518 41.8912 51.251C46.5329 51.251 50.8714 53.1077 54.0581 56.3549C54.3198 56.6212 54.6314 56.8332 54.9751 56.979C55.3188 57.1248 55.6878 57.2014 56.0611 57.2046C56.4345 57.2078 56.8047 57.1374 57.1509 56.9975C57.497 56.8575 57.8121 56.6508 58.0783 56.389C58.3445 56.1273 58.5566 55.8157 58.7024 55.472C58.8482 55.1283 58.9248 54.7593 58.928 54.386C58.9312 54.0127 58.8608 53.6424 58.7208 53.2963C58.5809 52.9502 58.3742 52.635 58.1124 52.3688C55.9989 50.2116 53.4755 48.4986 50.6905 47.3306C47.9054 46.1625 44.915 45.563 41.895 45.5673M30.5238 27.5841C29.8908 27.5662 29.2607 27.6754 28.6706 27.9053C28.0805 28.1352 27.5425 28.4811 27.0885 28.9225C26.6344 29.3639 26.2734 29.8919 26.027 30.4752C25.7805 31.0585 25.6535 31.6854 25.6535 32.3187C25.6535 32.9519 25.7805 33.5788 26.027 34.1621C26.2734 34.7454 26.6344 35.2734 27.0885 35.7148C27.5425 36.1562 28.0805 36.5021 28.6706 36.732C29.2607 36.9619 29.8908 37.0711 30.5238 37.0532C31.7563 37.0183 32.9266 36.5042 33.7861 35.6201C34.6455 34.736 35.1263 33.5516 35.1263 32.3187C35.1263 31.0857 34.6455 29.9013 33.7861 29.0172C32.9266 28.1331 31.7563 27.619 30.5238 27.5841ZM53.2586 27.5841C52.6256 27.5662 51.9954 27.6754 51.4053 27.9053C50.8152 28.1352 50.2773 28.4811 49.8232 28.9225C49.3691 29.3639 49.0082 29.8919 48.7617 30.4752C48.5152 31.0585 48.3882 31.6854 48.3882 32.3187C48.3882 32.9519 48.5152 33.5788 48.7617 34.1621C49.0082 34.7454 49.3691 35.2734 49.8232 35.7148C50.2773 36.1562 50.8152 36.5021 51.4053 36.732C51.9954 36.9619 52.6256 37.0711 53.2586 37.0532C54.4911 37.0183 55.6614 36.5042 56.5208 35.6201C57.3802 34.736 57.861 33.5516 57.861 32.3187C57.861 31.0857 57.3802 29.9013 56.5208 29.0172C55.6614 28.1331 54.4911 27.619 53.2586 27.5841Z" fill="#E22517"/>
<g filter="url(#filter1_i_334_11070)">
<ellipse cx="41.9001" cy="39.871" rx="28.4211" ry="28.4211" fill="white"/>
</g>
<g filter="url(#filter2_i_334_11070)">
<path d="M41.919 29.4047C47.7376 29.4047 52.4544 34.1215 52.4544 39.9401C52.4544 45.7577 47.7376 50.4734 41.919 50.4734C36.1003 50.4734 31.3856 45.7577 31.3856 39.9401C31.3846 34.1215 36.1003 29.4047 41.919 29.4047ZM41.919 41.518C41.0775 41.5166 40.2443 41.6839 39.4685 42.0099C38.6927 42.3359 37.9902 42.8141 37.4023 43.4161C37.3296 43.4902 37.2723 43.578 37.2336 43.6743C37.1949 43.7705 37.1755 43.8735 37.1766 43.9773C37.1777 44.0811 37.1992 44.1836 37.2399 44.2791C37.2806 44.3746 37.3397 44.4611 37.4138 44.5337C37.488 44.6063 37.5757 44.6636 37.672 44.7023C37.7683 44.7411 37.8713 44.7604 37.975 44.7594C38.0788 44.7583 38.1814 44.7368 38.2768 44.6961C38.3723 44.6554 38.4588 44.5962 38.5314 44.5221C38.9727 44.0708 39.4996 43.7122 40.0813 43.4673C40.663 43.2224 41.2878 43.0961 41.919 43.0959C43.2093 43.0959 44.4154 43.612 45.3012 44.5147C45.374 44.5887 45.4606 44.6477 45.5561 44.6882C45.6517 44.7287 45.7543 44.75 45.858 44.7509C45.9618 44.7518 46.0648 44.7322 46.161 44.6933C46.2572 44.6544 46.3448 44.597 46.4188 44.5242C46.4928 44.4515 46.5517 44.3648 46.5923 44.2693C46.6328 44.1737 46.6541 44.0712 46.655 43.9674C46.6559 43.8636 46.6363 43.7607 46.5974 43.6645C46.5585 43.5682 46.501 43.4806 46.4283 43.4066C45.8407 42.8069 45.1393 42.3308 44.365 42.0061C43.5908 41.6814 42.7595 41.5147 41.92 41.5159M38.759 36.5168C38.583 36.5118 38.4078 36.5422 38.2438 36.6061C38.0797 36.67 37.9302 36.7661 37.804 36.8888C37.6777 37.0115 37.5774 37.1583 37.5089 37.3205C37.4404 37.4826 37.405 37.6569 37.405 37.8329C37.405 38.009 37.4404 38.1832 37.5089 38.3454C37.5774 38.5075 37.6777 38.6543 37.804 38.777C37.9302 38.8997 38.0797 38.9959 38.2438 39.0598C38.4078 39.1237 38.583 39.154 38.759 39.149C39.1016 39.1394 39.4269 38.9964 39.6658 38.7507C39.9047 38.5049 40.0384 38.1757 40.0384 37.8329C40.0384 37.4902 39.9047 37.1609 39.6658 36.9151C39.4269 36.6694 39.1016 36.5265 38.759 36.5168ZM45.079 36.5168C44.903 36.5118 44.7278 36.5422 44.5638 36.6061C44.3997 36.67 44.2502 36.7661 44.124 36.8888C43.9977 37.0115 43.8974 37.1583 43.8289 37.3205C43.7604 37.4826 43.725 37.6569 43.725 37.8329C43.725 38.009 43.7604 38.1832 43.8289 38.3454C43.8974 38.5075 43.9977 38.6543 44.124 38.777C44.2502 38.8997 44.3997 38.9959 44.5638 39.0598C44.7278 39.1237 44.903 39.154 45.079 39.149C45.4216 39.1394 45.7469 38.9964 45.9858 38.7507C46.2247 38.5049 46.3584 38.1757 46.3584 37.8329C46.3584 37.4902 46.2247 37.1609 45.9858 36.9151C45.7469 36.6694 45.4216 36.5265 45.079 36.5168Z" fill="#E22517"/>
</g>
<defs>
<filter id="filter0_f_334_11070" x="0" y="0" width="83.79" height="83.79" filterUnits="userSpaceOnUse" color-interpolation-filters="sRGB">
<feFlood flood-opacity="0" result="BackgroundImageFix"/>
<feBlend mode="normal" in="SourceGraphic" in2="BackgroundImageFix" result="shape"/>
<feGaussianBlur stdDeviation="2" result="effect1_foregroundBlur_334_11070"/>
</filter>
<filter id="filter1_i_334_11070" x="13.479" y="7.44995" width="56.8422" height="60.8422" filterUnits="userSpaceOnUse" color-interpolation-filters="sRGB">
<feFlood flood-opacity="0" result="BackgroundImageFix"/>
<feBlend mode="normal" in="SourceGraphic" in2="BackgroundImageFix" result="shape"/>
<feColorMatrix in="SourceAlpha" type="matrix" values="0 0 0 0 0 0 0 0 0 0 0 0 0 0 0 0 0 0 127 0" result="hardAlpha"/>
<feOffset dy="-4"/>
<feGaussianBlur stdDeviation="2"/>
<feComposite in2="hardAlpha" operator="arithmetic" k2="-1" k3="1"/>
<feColorMatrix type="matrix" values="0 0 0 0 0.882353 0 0 0 0 0.804641 0 0 0 0 0.768627 0 0 0 0.72 0"/>
<feBlend mode="normal" in2="shape" result="effect1_innerShadow_334_11070"/>
</filter>
<filter id="filter2_i_334_11070" x="29.2789" y="27.3" width="25.28" height="29.28" filterUnits="userSpaceOnUse" color-interpolation-filters="sRGB">
<feFlood flood-opacity="0" result="BackgroundImageFix"/>
<feBlend mode="normal" in="SourceGraphic" in2="BackgroundImageFix" result="shape"/>
<feColorMatrix in="SourceAlpha" type="matrix" values="0 0 0 0 0 0 0 0 0 0 0 0 0 0 0 0 0 0 127 0" result="hardAlpha"/>
<feOffset dy="4"/>
<feGaussianBlur stdDeviation="2"/>
<feComposite in2="hardAlpha" operator="arithmetic" k2="-1" k3="1"/>
<feColorMatrix type="matrix" values="0 0 0 0 0 0 0 0 0 0 0 0 0 0 0 0 0 0 0.25 0"/>
<feBlend mode="normal" in2="shape" result="effect1_innerShadow_334_11070"/>
</filter>
</defs>
</svg>
