<svg width="84" height="84" viewBox="0 0 84 84" fill="none" xmlns="http://www.w3.org/2000/svg">
<g filter="url(#filter0_f_334_11068)">
<path d="M75.0053 33.5858C73.7297 32.2527 72.4101 30.879 71.9128 29.6711C71.4526 28.5647 71.4256 26.7309 71.3985 24.9546C71.3477 21.6523 71.2936 17.9102 68.6917 15.3083C66.0898 12.7064 62.3477 12.6523 59.0455 12.6015C57.2692 12.5745 55.4353 12.5474 54.3289 12.0873C53.1244 11.5899 51.7474 10.2703 50.4143 8.99478C48.0797 6.75155 45.4271 4.21057 41.8947 4.21057C38.3624 4.21057 35.7132 6.75155 33.3752 8.99478C32.0421 10.2703 30.6684 11.5899 29.4605 12.0873C28.3609 12.5474 26.5203 12.5745 24.744 12.6015C21.4417 12.6523 17.6996 12.7064 15.0977 15.3083C12.4959 17.9102 12.4586 21.6523 12.391 24.9546C12.3639 26.7309 12.3368 28.5647 11.8767 29.6711C11.3793 30.8756 10.0598 32.2527 8.78421 33.5858C6.54098 35.9203 4 38.573 4 42.1053C4 45.6376 6.54098 48.2869 8.78421 50.6249C10.0598 51.9579 11.3793 53.3316 11.8767 54.5395C12.3368 55.6459 12.3639 57.4797 12.391 59.2561C12.4417 62.5583 12.4959 66.3004 15.0977 68.9023C17.6996 71.5042 21.4417 71.5583 24.744 71.6091C26.5203 71.6361 28.3541 71.6632 29.4605 72.1234C30.665 72.6207 32.0421 73.9403 33.3752 75.2158C35.7098 77.4591 38.3624 80 41.8947 80C45.4271 80 48.0763 77.4591 50.4143 75.2158C51.7474 73.9403 53.1211 72.6207 54.3289 72.1234C55.4353 71.6632 57.2692 71.6361 59.0455 71.6091C62.3477 71.5583 66.0898 71.5042 68.6917 68.9023C71.2936 66.3004 71.3477 62.5583 71.3985 59.2561C71.4256 57.4797 71.4526 55.6459 71.9128 54.5395C72.4101 53.335 73.7297 51.9579 75.0053 50.6249C77.2485 48.2903 79.7895 45.6376 79.7895 42.1053C79.7895 38.573 77.2485 35.9237 75.0053 33.5858ZM57.3436 35.9L38.3962 54.8474C38.1449 55.0991 37.8463 55.2987 37.5177 55.4349C37.1891 55.5712 36.8369 55.6413 36.4812 55.6413C36.1255 55.6413 35.7733 55.5712 35.4447 55.4349C35.1161 55.2987 34.8175 55.0991 34.5662 54.8474L26.4459 46.7271C26.1944 46.4756 25.9949 46.1771 25.8588 45.8485C25.7227 45.5199 25.6526 45.1677 25.6526 44.8121C25.6526 44.4564 25.7227 44.1042 25.8588 43.7757C25.9949 43.4471 26.1944 43.1485 26.4459 42.897C26.9538 42.3891 27.6426 42.1038 28.3609 42.1038C28.7166 42.1038 29.0687 42.1739 29.3973 42.31C29.7259 42.4461 30.0245 42.6455 30.2759 42.897L36.4812 49.1057L53.5135 32.07C53.765 31.8185 54.0636 31.619 54.3922 31.4829C54.7207 31.3468 55.0729 31.2767 55.4286 31.2767C55.7842 31.2767 56.1364 31.3468 56.465 31.4829C56.7936 31.619 57.0921 31.8185 57.3436 32.07C57.5951 32.3215 57.7946 32.62 57.9307 32.9486C58.0668 33.2772 58.1368 33.6294 58.1368 33.985C58.1368 34.3407 58.0668 34.6928 57.9307 35.0214C57.7946 35.35 57.5951 35.6486 57.3436 35.9Z" fill="#E0E1DC"/>
</g>
<path d="M75.0053 29.3752C73.7297 28.0421 72.4101 26.6684 71.9128 25.4605C71.4526 24.3541 71.4256 22.5203 71.3985 20.744C71.3477 17.4417 71.2936 13.6996 68.6917 11.0977C66.0898 8.49586 62.3477 8.44173 59.0455 8.39098C57.2692 8.36391 55.4353 8.33684 54.3289 7.87669C53.1244 7.37932 51.7474 6.05977 50.4143 4.78421C48.0797 2.54098 45.4271 0 41.8947 0C38.3624 0 35.7132 2.54098 33.3752 4.78421C32.0421 6.05977 30.6684 7.37932 29.4605 7.87669C28.3609 8.33684 26.5203 8.36391 24.744 8.39098C21.4417 8.44173 17.6996 8.49586 15.0977 11.0977C12.4959 13.6996 12.4586 17.4417 12.391 20.744C12.3639 22.5203 12.3368 24.3541 11.8767 25.4605C11.3793 26.665 10.0598 28.0421 8.78421 29.3752C6.54098 31.7098 4 34.3624 4 37.8947C4 41.4271 6.54098 44.0763 8.78421 46.4143C10.0598 47.7474 11.3793 49.1211 11.8767 50.3289C12.3368 51.4353 12.3639 53.2692 12.391 55.0455C12.4417 58.3477 12.4959 62.0898 15.0977 64.6917C17.6996 67.2936 21.4417 67.3477 24.744 67.3985C26.5203 67.4256 28.3541 67.4526 29.4605 67.9128C30.665 68.4101 32.0421 69.7297 33.3752 71.0053C35.7098 73.2485 38.3624 75.7895 41.8947 75.7895C45.4271 75.7895 48.0763 73.2485 50.4143 71.0053C51.7474 69.7297 53.1211 68.4101 54.3289 67.9128C55.4353 67.4526 57.2692 67.4256 59.0455 67.3985C62.3477 67.3477 66.0898 67.2936 68.6917 64.6917C71.2936 62.0898 71.3477 58.3477 71.3985 55.0455C71.4256 53.2692 71.4526 51.4353 71.9128 50.3289C72.4101 49.1244 73.7297 47.7474 75.0053 46.4143C77.2485 44.0797 79.7895 41.4271 79.7895 37.8947C79.7895 34.3624 77.2485 31.7132 75.0053 29.3752ZM57.3436 31.6895L38.3962 50.6368C38.1449 50.8885 37.8463 51.0882 37.5177 51.2244C37.1891 51.3606 36.8369 51.4307 36.4812 51.4307C36.1255 51.4307 35.7733 51.3606 35.4447 51.2244C35.1161 51.0882 34.8175 50.8885 34.5662 50.6368L26.4459 42.5165C26.1944 42.2651 25.9949 41.9665 25.8588 41.6379C25.7227 41.3093 25.6526 40.9572 25.6526 40.6015C25.6526 40.2458 25.7227 39.8937 25.8588 39.5651C25.9949 39.2365 26.1944 38.938 26.4459 38.6865C26.9538 38.1786 27.6426 37.8932 28.3609 37.8932C28.7166 37.8932 29.0687 37.9633 29.3973 38.0994C29.7259 38.2355 30.0245 38.435 30.2759 38.6865L36.4812 44.8951L53.5135 27.8594C53.765 27.6079 54.0636 27.4084 54.3922 27.2723C54.7207 27.1362 55.0729 27.0662 55.4286 27.0662C55.7842 27.0662 56.1364 27.1362 56.465 27.2723C56.7936 27.4084 57.0921 27.6079 57.3436 27.8594C57.5951 28.1109 57.7946 28.4094 57.9307 28.738C58.0668 29.0666 58.1368 29.4188 58.1368 29.7744C58.1368 30.1301 58.0668 30.4823 57.9307 30.8108C57.7946 31.1394 57.5951 31.438 57.3436 31.6895Z" fill="#51B74B"/>
<g filter="url(#filter1_i_334_11068)">
<ellipse cx="41.8947" cy="37.8947" rx="28.4211" ry="28.4211" fill="white"/>
</g>
<g filter="url(#filter2_i_334_11068)">
<path d="M51.552 35.4099C51.1799 35.0211 50.7951 34.6205 50.65 34.2681C50.5158 33.9455 50.5079 33.4106 50.5 32.8925C50.4852 31.9293 50.4694 30.8379 49.7105 30.079C48.9516 29.3201 47.8602 29.3043 46.897 29.2895C46.3789 29.2816 45.8441 29.2737 45.5214 29.1395C45.1701 28.9945 44.7684 28.6096 44.3796 28.2376C43.6987 27.5833 42.925 26.8422 41.8947 26.8422C40.8645 26.8422 40.0918 27.5833 39.4099 28.2376C39.021 28.6096 38.6204 28.9945 38.2681 29.1395C37.9474 29.2737 37.4105 29.2816 36.8924 29.2895C35.9293 29.3043 34.8378 29.3201 34.0789 30.079C33.3201 30.8379 33.3092 31.9293 33.2895 32.8925C33.2816 33.4106 33.2737 33.9455 33.1395 34.2681C32.9944 34.6195 32.6095 35.0211 32.2375 35.4099C31.5832 36.0908 30.8421 36.8645 30.8421 37.8948C30.8421 38.9251 31.5832 39.6978 32.2375 40.3797C32.6095 40.7685 32.9944 41.1691 33.1395 41.5214C33.2737 41.8441 33.2816 42.379 33.2895 42.8971C33.3043 43.8603 33.3201 44.9517 34.0789 45.7106C34.8378 46.4695 35.9293 46.4853 36.8924 46.5001C37.4105 46.508 37.9454 46.5158 38.2681 46.6501C38.6194 46.7951 39.021 47.18 39.4099 47.552C40.0908 48.2063 40.8645 48.9474 41.8947 48.9474C42.925 48.9474 43.6977 48.2063 44.3796 47.552C44.7684 47.18 45.1691 46.7951 45.5214 46.6501C45.8441 46.5158 46.3789 46.508 46.897 46.5001C47.8602 46.4853 48.9516 46.4695 49.7105 45.7106C50.4694 44.9517 50.4852 43.8603 50.5 42.8971C50.5079 42.379 50.5158 41.8441 50.65 41.5214C50.7951 41.1701 51.1799 40.7685 51.552 40.3797C52.2062 39.6987 52.9474 38.9251 52.9474 37.8948C52.9474 36.8645 52.2062 36.0918 51.552 35.4099ZM46.4007 36.0849L40.8743 41.6112C40.801 41.6846 40.7139 41.7429 40.6181 41.7826C40.5223 41.8223 40.4195 41.8428 40.3158 41.8428C40.212 41.8428 40.1093 41.8223 40.0135 41.7826C39.9176 41.7429 39.8306 41.6846 39.7572 41.6112L37.3888 39.2428C37.3155 39.1695 37.2573 39.0824 37.2176 38.9866C37.1779 38.8907 37.1575 38.788 37.1575 38.6843C37.1575 38.5805 37.1779 38.4778 37.2176 38.382C37.2573 38.2861 37.3155 38.1991 37.3888 38.1257C37.5369 37.9776 37.7379 37.8944 37.9474 37.8944C38.0511 37.8944 38.1538 37.9148 38.2497 37.9545C38.3455 37.9942 38.4326 38.0524 38.5059 38.1257L40.3158 39.9366L45.2835 34.9678C45.3569 34.8945 45.444 34.8363 45.5398 34.7966C45.6357 34.7569 45.7384 34.7365 45.8421 34.7365C45.9458 34.7365 46.0486 34.7569 46.1444 34.7966C46.2402 34.8363 46.3273 34.8945 46.4007 34.9678C46.474 35.0412 46.5322 35.1283 46.5719 35.2241C46.6116 35.3199 46.632 35.4226 46.632 35.5264C46.632 35.6301 46.6116 35.7328 46.5719 35.8287C46.5322 35.9245 46.474 36.0116 46.4007 36.0849Z" fill="#51B74B"/>
</g>
<defs>
<filter id="filter0_f_334_11068" x="0" y="0.210571" width="83.7894" height="83.7894" filterUnits="userSpaceOnUse" color-interpolation-filters="sRGB">
<feFlood flood-opacity="0" result="BackgroundImageFix"/>
<feBlend mode="normal" in="SourceGraphic" in2="BackgroundImageFix" result="shape"/>
<feGaussianBlur stdDeviation="2" result="effect1_foregroundBlur_334_11068"/>
</filter>
<filter id="filter1_i_334_11068" x="13.4737" y="5.47363" width="56.8421" height="60.8422" filterUnits="userSpaceOnUse" color-interpolation-filters="sRGB">
<feFlood flood-opacity="0" result="BackgroundImageFix"/>
<feBlend mode="normal" in="SourceGraphic" in2="BackgroundImageFix" result="shape"/>
<feColorMatrix in="SourceAlpha" type="matrix" values="0 0 0 0 0 0 0 0 0 0 0 0 0 0 0 0 0 0 127 0" result="hardAlpha"/>
<feOffset dy="-4"/>
<feGaussianBlur stdDeviation="2"/>
<feComposite in2="hardAlpha" operator="arithmetic" k2="-1" k3="1"/>
<feColorMatrix type="matrix" values="0 0 0 0 0.819608 0 0 0 0 0.882353 0 0 0 0 0.768627 0 0 0 0.72 0"/>
<feBlend mode="normal" in2="shape" result="effect1_innerShadow_334_11068"/>
</filter>
<filter id="filter2_i_334_11068" x="29.2632" y="25.2632" width="25.2632" height="29.2632" filterUnits="userSpaceOnUse" color-interpolation-filters="sRGB">
<feFlood flood-opacity="0" result="BackgroundImageFix"/>
<feBlend mode="normal" in="SourceGraphic" in2="BackgroundImageFix" result="shape"/>
<feColorMatrix in="SourceAlpha" type="matrix" values="0 0 0 0 0 0 0 0 0 0 0 0 0 0 0 0 0 0 127 0" result="hardAlpha"/>
<feOffset dy="4"/>
<feGaussianBlur stdDeviation="2"/>
<feComposite in2="hardAlpha" operator="arithmetic" k2="-1" k3="1"/>
<feColorMatrix type="matrix" values="0 0 0 0 0 0 0 0 0 0 0 0 0 0 0 0 0 0 0.25 0"/>
<feBlend mode="normal" in2="shape" result="effect1_innerShadow_334_11068"/>
</filter>
</defs>
</svg>
