<svg width="24" height="24" viewBox="0 0 24 24" fill="none" xmlns="http://www.w3.org/2000/svg">
<path fill-rule="evenodd" clip-rule="evenodd" d="M10 6.18182C10 4.97683 10.9768 4 12.1818 4C13.3868 4 14.3636 4.97683 14.3636 6.18182C14.3636 7.3868 13.3868 8.36364 12.1818 8.36364C10.9768 8.36364 10 7.3868 10 6.18182ZM10 12C10 10.795 10.9768 9.81818 12.1818 9.81818C13.3868 9.81818 14.3636 10.795 14.3636 12C14.3636 13.205 13.3868 14.1818 12.1818 14.1818C10.9768 14.1818 10 13.205 10 12ZM12.1818 15.6364C10.9768 15.6364 10 16.6132 10 17.8182C10 19.0232 10.9768 20 12.1818 20C13.3868 20 14.3636 19.0232 14.3636 17.8182C14.3636 16.6132 13.3868 15.6364 12.1818 15.6364Z" fill="#505050"/>
</svg>
