<svg width="24" height="24" viewBox="0 0 24 24" fill="none" xmlns="http://www.w3.org/2000/svg">
<path fill-rule="evenodd" clip-rule="evenodd" d="M6.18182 10C4.97683 10 4 10.9768 4 12.1818C4 13.3868 4.97683 14.3636 6.18182 14.3636C7.3868 14.3636 8.36364 13.3868 8.36364 12.1818C8.36364 10.9768 7.3868 10 6.18182 10ZM9.81818 12.1818C9.81818 10.9768 10.795 10 12 10C13.205 10 14.1818 10.9768 14.1818 12.1818C14.1818 13.3868 13.205 14.3636 12 14.3636C10.795 14.3636 9.81818 13.3868 9.81818 12.1818ZM15.6364 12.1818C15.6364 10.9768 16.6132 10 17.8182 10C19.0232 10 20 10.9768 20 12.1818C20 13.3868 19.0232 14.3636 17.8182 14.3636C16.6132 14.3636 15.6364 13.3868 15.6364 12.1818Z" fill="#505050"/>
</svg>
