<svg width="24" height="24" viewBox="0 0 24 24" fill="none" xmlns="http://www.w3.org/2000/svg">
<path fill-rule="evenodd" clip-rule="evenodd" d="M3.13138 3.69709C3.28759 3.54087 3.54085 3.54087 3.69707 3.69708L20.1314 20.1314C20.2876 20.2876 20.2876 20.5409 20.1314 20.6971L19.2829 21.5456C19.1266 21.7018 18.8734 21.7018 18.7172 21.5456L18.2887 21.1172C18.2137 21.0421 18.1119 21 18.0059 21H3.39998C3.17907 21 2.99998 20.8209 2.99998 20.6V5.99413C2.99998 5.88804 2.95784 5.78629 2.88282 5.71128L2.28285 5.11134C2.12664 4.95513 2.12663 4.70186 2.28284 4.54565L3.13138 3.69709ZM13.2667 16.6809C13.1234 16.8523 12.8639 16.8639 12.7059 16.7059L8.35348 12.3535C8.17225 12.1723 7.86972 12.2058 7.73265 12.4224L5.06196 16.642C5.02146 16.706 4.99995 16.7802 4.99995 16.8559V18.6C4.99995 18.8209 5.17904 19 5.39995 19H15.2059C15.5622 19 15.7407 18.5691 15.4887 18.3171L13.8274 16.6558C13.6694 16.4978 13.4099 16.5094 13.2667 16.6809ZM20.6 3C20.8209 3 21 3.17909 21 3.4V17.2059C21 17.5623 20.5691 17.7408 20.3171 17.4888L14.992 12.1636C14.8358 12.0074 14.8358 11.7542 14.992 11.598L15.7172 10.8728C15.8734 10.7166 16.1266 10.7166 16.2829 10.8728L18.3171 12.9071C18.5691 13.1591 19 12.9807 19 12.6243V5.39997C19 5.17905 18.8209 4.99997 18.6 4.99997H7.99403C7.88794 4.99997 7.7862 4.95783 7.71119 4.88281L6.51122 3.68284C6.25923 3.43086 6.4377 3 6.79406 3H20.6ZM5.6828 8.5112C5.43081 8.25922 4.99995 8.43768 4.99995 8.79404V11.5309C4.99995 11.9333 5.52718 12.0838 5.73964 11.7421L6.78894 10.0546C6.88711 9.89667 6.86355 9.69196 6.73209 9.5605L5.6828 8.5112ZM14.5 7.00003C15.3284 7.00003 16 7.67161 16 8.50003C16 9.32845 15.3284 10 14.5 10C13.6716 10 13 9.32845 13 8.50003C13 7.67161 13.6716 7.00003 14.5 7.00003Z" fill="#505050"/>
</svg>
