<svg width="24" height="24" viewBox="0 0 24 24" fill="none" xmlns="http://www.w3.org/2000/svg">
<path d="M13.0001 2C13.0001 1.44772 12.5524 1 12.0001 1C11.4478 1 11.0001 1.44772 11.0001 2V12C11.0001 12.5523 11.4478 13 12.0001 13C12.5524 13 13.0001 12.5523 13.0001 12V2Z" fill="#505050"/>
<path d="M6.33734 7.34701C6.7278 6.95642 6.7277 6.32325 6.33711 5.93279C5.94652 5.54233 5.31336 5.54244 4.92289 5.93302C1.01859 9.8386 1.01928 16.1697 4.92443 20.0744C8.82959 23.9791 15.1606 23.9791 19.0658 20.0744C22.971 16.1697 22.9716 9.8386 19.0673 5.93302C18.6769 5.54244 18.0437 5.54233 17.6531 5.93279C17.2625 6.32325 17.2624 6.95642 17.6529 7.34701C20.7763 10.4715 20.7758 15.5363 17.6517 18.6601C14.5275 21.7839 9.46269 21.7839 6.33857 18.6601C3.21445 15.5363 3.2139 10.4715 6.33734 7.34701Z" fill="#505050"/>
</svg>
