<svg width="24" height="24" viewBox="0 0 24 24" fill="none" xmlns="http://www.w3.org/2000/svg">
<path fill-rule="evenodd" clip-rule="evenodd" d="M5.63715 5.63699C6.02762 5.24641 6.02752 4.61324 5.63694 4.22278C5.24636 3.83231 4.61319 3.83241 4.22273 4.22299C-0.071475 8.51849 -0.071475 15.4815 4.22273 19.777C4.61319 20.1676 5.24636 20.1677 5.63694 19.7772C6.02752 19.3867 6.02762 18.7536 5.63715 18.363C2.12372 14.8485 2.12372 9.15149 5.63715 5.63699ZM19.7772 4.22299C19.3867 3.83241 18.7535 3.83231 18.3629 4.22278C17.9724 4.61324 17.9723 5.24641 18.3627 5.63699C21.8762 9.15149 21.8762 14.8485 18.3627 18.363C17.9723 18.7536 17.9724 19.3867 18.3629 19.7772C18.7535 20.1677 19.3867 20.1676 19.7772 19.777C24.0714 15.4815 24.0714 8.51849 19.7772 4.22299ZM8.46665 8.45749C8.85739 8.06719 8.85775 7.43402 8.46744 7.04328C8.07713 6.65254 7.44397 6.65219 7.05323 7.04249C5.73879 8.35547 5.00022 10.1371 5.00022 11.995C5.00022 13.8529 5.73879 15.6345 7.05323 16.9475C7.44397 17.3378 8.07713 17.3374 8.46744 16.9467C8.85775 16.556 8.85739 15.9228 8.46665 15.5325C7.52777 14.5947 7.00022 13.322 7.00022 11.995C7.00022 10.6679 7.52777 9.39533 8.46665 8.45749ZM16.9467 7.05249C16.5559 6.66219 15.9227 6.66254 15.5324 7.05328C15.1421 7.44402 15.1425 8.07719 15.5332 8.46749C16.4721 9.40533 16.9997 10.6779 16.9997 12.005C16.9997 13.332 16.4721 14.6047 15.5332 15.5425C15.1425 15.9328 15.1421 16.566 15.5324 16.9567C15.9227 17.3474 16.5559 17.3478 16.9467 16.9575C18.2611 15.6445 18.9997 13.8629 18.9997 12.005C18.9997 10.1471 18.2611 8.36547 16.9467 7.05249ZM12 9C10.3431 9 9 10.3431 9 12C9 13.6569 10.3431 15 12 15C13.6569 15 15 13.6569 15 12C15 10.3431 13.6569 9 12 9ZM11 12C11 11.4477 11.4477 11 12 11C12.5523 11 13 11.4477 13 12C13 12.5523 12.5523 13 12 13C11.4477 13 11 12.5523 11 12Z" fill="#505050"/>
</svg>
