<svg width="24" height="24" viewBox="0 0 24 24" fill="none" xmlns="http://www.w3.org/2000/svg">
<path fill-rule="evenodd" clip-rule="evenodd" d="M4.30677 18.2094C3.89709 18.6191 3.89709 19.2833 4.30677 19.6929C4.71644 20.1026 5.38065 20.1026 5.79032 19.6929L19.6926 5.79069C20.1022 5.38102 20.1022 4.7168 19.6926 4.30713C19.2829 3.89746 18.6187 3.89746 18.209 4.30713L4.30677 18.2094ZM11.3005 18.2094C10.8908 18.6191 10.8908 19.2833 11.3005 19.6929C11.7102 20.1026 12.3744 20.1026 12.784 19.6929L19.6927 12.7842C20.1024 12.3746 20.1024 11.7104 19.6927 11.3007C19.2831 10.891 18.6189 10.891 18.2092 11.3007L11.3005 18.2094Z" fill="#505050"/>
</svg>
