<svg width="24" height="24" viewBox="0 0 24 24" fill="none" xmlns="http://www.w3.org/2000/svg">
<path d="M19.7773 4.22305C19.3868 3.83247 18.7536 3.83237 18.363 4.22284C17.9725 4.61331 17.9724 5.24647 18.3628 5.63705C21.8763 9.15155 21.8763 14.8486 18.3628 18.3631C17.9724 18.7536 17.9725 19.3868 18.363 19.7773C18.7536 20.1677 19.3868 20.1676 19.7773 19.7771C24.0715 15.4816 24.0715 8.51855 19.7773 4.22305Z" fill="#505050"/>
<path d="M16.2473 7.75305C15.8568 7.36247 15.2236 7.36237 14.833 7.75284C14.4425 8.14331 14.4424 8.77647 14.8328 9.16705C16.3944 10.7291 16.3944 13.2611 14.8328 14.8231C14.4424 15.2136 14.4425 15.8468 14.833 16.2373C15.2236 16.6277 15.8568 16.6276 16.2473 16.2371C18.5895 13.8941 18.5895 10.0961 16.2473 7.75305Z" fill="#505050"/>
<path fill-rule="evenodd" clip-rule="evenodd" d="M12 5.00001C12 4.6156 11.7797 4.26523 11.4332 4.09871C11.0867 3.93219 10.6755 3.979 10.3753 4.21914L5.64922 8.00001H2C1.44772 8.00001 1 8.44772 1 9.00001V15C1 15.5523 1.44772 16 2 16H5.64922L10.3753 19.7809C10.6755 20.021 11.0867 20.0678 11.4332 19.9013C11.7797 19.7348 12 19.3844 12 19V5.00001ZM6.62469 9.78088L10 7.08063V16.9194L6.62469 14.2191C6.44738 14.0773 6.22707 14 6 14H3V10H6C6.22707 10 6.44738 9.92273 6.62469 9.78088Z" fill="#505050"/>
</svg>
