<svg width="24" height="24" viewBox="0 0 24 24" fill="none" xmlns="http://www.w3.org/2000/svg">
<path fill-rule="evenodd" clip-rule="evenodd" d="M11.5079 5.1337C11.115 4.90718 10.6189 4.97339 10.2992 5.295C9.90983 5.68668 9.27667 5.68856 8.88499 5.29919C8.49331 4.90983 8.49144 4.27666 8.8808 3.88499C9.83995 2.92013 11.3283 2.72151 12.5069 3.40107C13.6855 4.08063 14.2593 5.46823 13.9048 6.78172C13.5505 8.09448 12.3576 9.0047 10.998 8.99999C10.9973 8.99999 10.9965 8.99999 10.9958 8.99999L11 7.99999V8.99999H10.998H2C1.44772 8.99999 1 8.55228 1 7.99999C1 7.44771 1.44772 6.99999 2 6.99999H11.0042C11.4577 7.0019 11.8557 6.69841 11.9739 6.26058C12.092 5.82275 11.9008 5.36022 11.5079 5.1337ZM20.2458 8.20115C19.6585 7.86183 18.9165 7.95894 18.4362 8.438C18.0452 8.82803 17.412 8.82722 17.022 8.4362C16.632 8.04519 16.6328 7.41202 17.0238 7.02199C18.1444 5.90421 19.8757 5.67761 21.2463 6.46934C22.6168 7.26108 23.2854 8.87408 22.877 10.4033C22.4685 11.9324 21.0846 12.9972 19.5018 13L19.5 13H2C1.44772 13 1 12.5523 1 12C1 11.4477 1.44772 11 2 11H19.4989C20.177 10.9985 20.7697 10.5422 20.9447 9.88711C21.1198 9.23175 20.8332 8.54046 20.2458 8.20115ZM13.998 15C15.3576 14.9953 16.5505 15.9055 16.9048 17.2183C17.2593 18.5318 16.6855 19.9194 15.5069 20.5989C14.3283 21.2785 12.84 21.0799 11.8808 20.115C11.4914 19.7233 11.4933 19.0902 11.885 18.7008C12.2767 18.3114 12.9098 18.3133 13.2992 18.705C13.6189 19.0266 14.115 19.0928 14.5079 18.8663C14.9008 18.6398 15.092 18.1772 14.9739 17.7394C14.8557 17.3016 14.4577 16.9981 14.0042 17L14 17H2C1.44772 17 1 16.5523 1 16C1 15.4477 1.44772 15 2 15H13.998Z" fill="#505050"/>
</svg>
