<svg width="69" height="40" viewBox="0 0 69 40" fill="none" xmlns="http://www.w3.org/2000/svg">
<g clip-path="url(#clip0_49_1511)">
<path d="M7.57232 40C5.59767 39.9972 3.70473 39.2114 2.30844 37.8152C0.912144 36.4189 0.126433 34.5259 0.123535 32.5513V16.7576C0.137938 12.3524 1.88054 8.12883 4.9766 4.99508C8.07265 1.86134 12.2749 0.0677564 16.6796 5.14964e-05H16.8811C18.8559 -0.00485987 20.8158 0.341575 22.6693 1.02316C20.2892 2.89822 18.3647 5.28793 17.0401 8.01299C15.7155 10.7381 15.0253 13.7277 15.0211 16.7576V32.5491C15.0188 34.5241 14.2333 36.4176 12.837 37.8144C11.4406 39.2111 9.54736 39.9972 7.57232 40Z" fill="#232323"/>
<path d="M30.3569 40C28.3822 39.9971 26.4893 39.2114 25.093 37.8151C23.6967 36.4188 22.911 34.5259 22.9081 32.5512V16.7576C22.9231 12.3514 24.6668 8.12718 27.7641 4.99337C30.8614 1.85957 35.065 0.0665587 39.4707 -1.90933e-06H39.67C41.6448 -0.00491327 43.6047 0.341522 45.4582 1.02311C43.0796 2.89904 41.1565 5.28909 39.8331 8.01406C38.5097 10.739 37.8203 13.7282 37.8166 16.7576V32.549C37.8143 34.5259 37.0273 36.4211 35.6286 37.8182C34.2299 39.2153 32.3338 40 30.3569 40Z" fill="#232323"/>
<path d="M53.1545 40C51.179 40 49.2844 39.2152 47.8875 37.8183C46.4905 36.4214 45.7057 34.5268 45.7057 32.5512V16.7576C45.7201 12.3528 47.4624 8.12948 50.558 4.99579C53.6536 1.8621 57.8553 0.0682713 62.2596 -1.8399e-06H62.459C64.4374 -0.00621411 66.4012 0.340241 68.2581 1.02311C65.8794 2.89904 63.9564 5.28909 62.6329 8.01406C61.3095 10.739 60.6202 13.7282 60.6165 16.7576V32.549C60.6142 34.5263 59.8269 36.4218 58.4277 37.819C57.0285 39.2161 55.1318 40.0006 53.1545 40Z" fill="#232323"/>
</g>
<defs>
<clipPath id="clip0_49_1511">
<rect width="68.1236" height="40" fill="white" transform="translate(0.123535)"/>
</clipPath>
</defs>
</svg>
