<svg width="69" height="40" viewBox="0 0 69 40" fill="none" xmlns="http://www.w3.org/2000/svg">
<g clip-path="url(#clip0_49_1512)">
<path d="M7.44879 40C5.47414 39.9972 3.58119 39.2114 2.1849 37.8152C0.788609 36.4189 0.00289751 34.5259 0 32.5513V16.7576C0.0144029 12.3524 1.757 8.12883 4.85306 4.99508C7.94912 1.86134 12.1513 0.0677564 16.556 5.14964e-05H16.7576C18.7324 -0.00485987 20.6923 0.341575 22.5457 1.02316C20.1657 2.89822 18.2412 5.28793 16.9166 8.01299C15.592 10.7381 14.9017 13.7277 14.8976 16.7576V32.5491C14.8953 34.5241 14.1098 36.4176 12.7135 37.8144C11.3171 39.2111 9.42382 39.9972 7.44879 40Z" fill="#F4624E"/>
<path d="M30.2333 40C28.2587 39.9971 26.3657 39.2114 24.9694 37.8151C23.5731 36.4188 22.7874 34.5259 22.7845 32.5512V16.7576C22.7995 12.3514 24.5432 8.12718 27.6406 4.99337C30.7379 1.85957 34.9415 0.0665587 39.3471 -1.90933e-06H39.5465C41.5213 -0.00491327 43.4812 0.341522 45.3346 1.02311C42.956 2.89904 41.0329 5.28909 39.7095 8.01406C38.3861 10.739 37.6967 13.7282 37.6931 16.7576V32.549C37.6907 34.5259 36.9038 36.4211 35.5051 37.8182C34.1063 39.2153 32.2102 40 30.2333 40Z" fill="#F4624E"/>
<path d="M53.031 40C51.0555 40 49.1608 39.2152 47.7639 37.8183C46.367 36.4214 45.5822 34.5268 45.5822 32.5512V16.7576C45.5966 12.3528 47.3389 8.12948 50.4345 4.99579C53.5301 1.8621 57.7317 0.0682713 62.1361 -1.8399e-06H62.3354C64.3139 -0.00621411 66.2776 0.340241 68.1345 1.02311C65.7559 2.89904 63.8328 5.28909 62.5094 8.01406C61.186 10.739 60.4966 13.7282 60.4929 16.7576V32.549C60.4906 34.5263 59.7034 36.4218 58.3042 37.819C56.905 39.2161 55.0083 40.0006 53.031 40Z" fill="#F4624E"/>
</g>
<defs>
<clipPath id="clip0_49_1512">
<rect width="68.1236" height="40" fill="white"/>
</clipPath>
</defs>
</svg>
