<svg width="69" height="40" viewBox="0 0 69 40" fill="none" xmlns="http://www.w3.org/2000/svg">
<g clip-path="url(#clip0_49_1510)">
<path d="M7.69592 40C5.72127 39.9972 3.82832 39.2114 2.43203 37.8152C1.03574 36.4189 0.250029 34.5259 0.247131 32.5513V16.7576C0.261534 12.3524 2.00414 8.12883 5.10019 4.99508C8.19625 1.86134 12.3985 0.0677564 16.8032 5.14964e-05H17.0047C18.9795 -0.00485987 20.9394 0.341575 22.7929 1.02316C20.4128 2.89822 18.4883 5.28793 17.1637 8.01299C15.8391 10.7381 15.1489 13.7277 15.1447 16.7576V32.5491C15.1424 34.5241 14.3569 36.4176 12.9606 37.8144C11.5642 39.2111 9.67095 39.9972 7.69592 40Z" fill="#F7F6F5"/>
<path d="M30.4805 40C28.5058 39.9971 26.6129 39.2114 25.2166 37.8151C23.8203 36.4188 23.0346 34.5259 23.0317 32.5512V16.7576C23.0467 12.3514 24.7904 8.12718 27.8877 4.99337C30.9851 1.85957 35.1886 0.0665587 39.5943 -1.90933e-06H39.7936C41.7684 -0.00491327 43.7283 0.341522 45.5818 1.02311C43.2032 2.89904 41.2801 5.28909 39.9567 8.01406C38.6333 10.739 37.9439 13.7282 37.9402 16.7576V32.549C37.9379 34.5259 37.1509 36.4211 35.7522 37.8182C34.3535 39.2153 32.4574 40 30.4805 40Z" fill="#F7F6F5"/>
<path d="M53.2781 40C51.3026 40 49.408 39.2152 48.011 37.8183C46.6141 36.4214 45.8293 34.5268 45.8293 32.5512V16.7576C45.8437 12.3528 47.586 8.12948 50.6816 4.99579C53.7772 1.8621 57.9789 0.0682713 62.3832 -1.8399e-06H62.5826C64.561 -0.00621411 66.5248 0.340241 68.3817 1.02311C66.003 2.89904 64.08 5.28909 62.7565 8.01406C61.4331 10.739 60.7437 13.7282 60.7401 16.7576V32.549C60.7377 34.5263 59.9505 36.4218 58.5513 37.819C57.1521 39.2161 55.2554 40.0006 53.2781 40Z" fill="#F7F6F5"/>
</g>
<defs>
<clipPath id="clip0_49_1510">
<rect width="68.1236" height="40" fill="white" transform="translate(0.247131)"/>
</clipPath>
</defs>
</svg>
