<svg width="64" height="64" viewBox="0 0 64 64" fill="none" xmlns="http://www.w3.org/2000/svg">
<path d="M0 8C0 3.58172 3.58172 0 8 0H56C60.4183 0 64 3.58172 64 8V56C64 60.4183 60.4183 64 56 64H8C3.58172 64 0 60.4183 0 56V8Z" fill="white"/>
<g clip-path="url(#clip0_49_1590)">
<path d="M10.7096 48C9.12988 47.9977 7.61553 47.3692 6.49849 46.2521C5.38146 45.1351 4.75289 43.6207 4.75057 42.041V29.4061C4.76209 25.882 6.15618 22.5031 8.63302 19.9961C11.1099 17.4891 14.4716 16.0542 17.9954 16H18.1566C19.7365 15.9961 21.3044 16.2733 22.7872 16.8185C20.8831 18.3186 19.3435 20.2303 18.2838 22.4104C17.2242 24.5904 16.6719 26.9822 16.6686 29.4061V42.0393C16.6668 43.6193 16.0384 45.1341 14.9213 46.2515C13.8042 47.3689 12.2896 47.9977 10.7096 48Z" fill="#F4624E"/>
<path d="M28.9372 48C27.3575 47.9977 25.8431 47.3691 24.7261 46.2521C23.6091 45.135 22.9805 43.6207 22.9782 42.0409V29.406C22.9902 25.8811 24.3851 22.5017 26.863 19.9947C29.3409 17.4876 32.7037 16.0532 36.2283 16H36.3878C37.9676 15.9961 39.5355 16.2732 41.0183 16.8185C39.1154 18.3192 37.5769 20.2313 36.5182 22.4112C35.4595 24.5912 34.908 26.9826 34.905 29.406V42.0392C34.9032 43.6207 34.2736 45.1369 33.1546 46.2545C32.0356 47.3722 30.5188 48 28.9372 48Z" fill="#F4624E"/>
<path d="M47.1754 48C45.5949 48 44.0792 47.3722 42.9617 46.2546C41.8442 45.1371 41.2163 43.6214 41.2163 42.041V29.4061C41.2279 25.8822 42.6217 22.5036 45.0982 19.9966C47.5746 17.4897 50.936 16.0546 54.4594 16H54.6189C56.2017 15.995 57.7727 16.2722 59.2582 16.8185C57.3553 18.3192 55.8168 20.2313 54.7581 22.4113C53.6994 24.5912 53.1479 26.9826 53.1449 29.4061V42.0392C53.1431 43.6211 52.5133 45.1375 51.3939 46.2552C50.2745 47.3729 48.7572 48.0005 47.1754 48Z" fill="#F4624E"/>
</g>
<defs>
<clipPath id="clip0_49_1590">
<rect width="54.4989" height="32" fill="white" transform="translate(4.75057 16)"/>
</clipPath>
</defs>
</svg>
