<svg width="87" height="40" viewBox="0 0 87 40" fill="none" xmlns="http://www.w3.org/2000/svg">
<g clip-path="url(#clip0_49_1570)">
<path d="M0.618647 29.5305H2.28337C2.3027 29.5307 2.32157 29.5364 2.33782 29.5469C2.35408 29.5573 2.36705 29.5722 2.37525 29.5897L5.88533 37.4305C5.89344 37.4481 5.9064 37.4629 5.92268 37.4733C5.93896 37.4837 5.95788 37.4893 5.97721 37.4893C5.99653 37.4893 6.01545 37.4837 6.03174 37.4733C6.04802 37.4629 6.06098 37.4481 6.06909 37.4305L9.56516 29.5881C9.57293 29.5706 9.58559 29.5557 9.60161 29.5452C9.61763 29.5347 9.63633 29.5291 9.65548 29.5289H11.3062C11.3326 29.5289 11.358 29.5394 11.3767 29.5581C11.3953 29.5768 11.4058 29.6022 11.4058 29.6286V39.7649C11.4058 39.7913 11.3953 39.8166 11.3767 39.8353C11.358 39.854 11.3326 39.8645 11.3062 39.8645H9.80965C9.78321 39.8645 9.75786 39.854 9.73917 39.8353C9.72048 39.8166 9.70998 39.7913 9.70998 39.7649V33.2586C9.71043 33.2354 9.70278 33.2128 9.68835 33.1947C9.67393 33.1765 9.65363 33.164 9.63095 33.1592C9.60827 33.1544 9.58462 33.1576 9.56409 33.1684C9.54355 33.1791 9.52741 33.1967 9.51844 33.2181L6.58299 39.8069C6.57521 39.8244 6.56255 39.8393 6.54653 39.8498C6.53052 39.8603 6.51181 39.8659 6.49266 39.8661H5.44774C5.42832 39.8662 5.40929 39.8607 5.39296 39.8502C5.37664 39.8397 5.36374 39.8246 5.35586 39.8069L2.40639 33.215C2.39739 33.1935 2.38111 33.1758 2.3604 33.165C2.3397 33.1543 2.31587 33.1511 2.29308 33.1561C2.27029 33.1611 2.24997 33.174 2.23568 33.1924C2.22138 33.2108 2.21401 33.2337 2.21485 33.257V39.7664C2.21444 39.793 2.20359 39.8183 2.18466 39.837C2.16572 39.8556 2.1402 39.8661 2.11363 39.8661H0.618647C0.592214 39.8661 0.566864 39.8556 0.548173 39.8369C0.529482 39.8182 0.518982 39.7928 0.518982 39.7664V29.6302C0.518982 29.6037 0.529482 29.5784 0.548173 29.5597C0.566864 29.541 0.592214 29.5305 0.618647 29.5305Z" fill="#232323"/>
<path d="M16.3439 31.5378C17.7268 31.5378 18.6799 32.1919 19.1844 32.8615V31.7714C19.1844 31.745 19.1949 31.7196 19.2136 31.7009C19.2323 31.6822 19.2576 31.6717 19.2841 31.6717H20.7946C20.8211 31.6717 20.8464 31.6822 20.8651 31.7009C20.8838 31.7196 20.8943 31.745 20.8943 31.7714V39.7664C20.8943 39.7929 20.8838 39.8182 20.8651 39.8369C20.8464 39.8556 20.8211 39.8661 20.7946 39.8661H19.2841C19.2576 39.8661 19.2323 39.8556 19.2136 39.8369C19.1949 39.8182 19.1844 39.7929 19.1844 39.7664V38.6467C18.6643 39.346 17.6816 40 16.3144 40C14.1871 40 12.4772 38.2605 12.4772 35.7315C12.4772 33.2025 14.1871 31.5378 16.3439 31.5378ZM16.7006 33.0094C15.4361 33.0094 14.2089 33.9625 14.2089 35.7315C14.2089 37.5006 15.4283 38.5346 16.7006 38.5346C17.9729 38.5346 19.1922 37.538 19.1922 35.7674C19.1922 33.9967 17.9791 33.0141 16.7006 33.0141V33.0094Z" fill="#232323"/>
<path d="M24.1256 39.8661H22.6322C22.6058 39.8661 22.5804 39.8556 22.5617 39.8369C22.543 39.8182 22.5325 39.7928 22.5325 39.7664V31.7683C22.5325 31.7418 22.543 31.7165 22.5617 31.6978C22.5804 31.6791 22.6058 31.6686 22.6322 31.6686H24.1272C24.1538 31.6686 24.1793 31.6791 24.1982 31.6977C24.2171 31.7163 24.228 31.7417 24.2284 31.7683V32.8584C24.6956 32.0657 25.4742 31.5674 26.5736 31.5362C26.5875 31.536 26.6014 31.5386 26.6143 31.5437C26.6272 31.5488 26.639 31.5565 26.649 31.5661C26.659 31.5758 26.6669 31.5874 26.6724 31.6002C26.678 31.6129 26.6809 31.6267 26.6811 31.6406V33.2897H26.2497C25.0039 33.2897 24.2253 33.8098 24.2253 35.5493V39.7633C24.2255 39.7766 24.2231 39.7898 24.2182 39.8021C24.2133 39.8145 24.206 39.8258 24.1967 39.8353C24.1875 39.8449 24.1764 39.8525 24.1642 39.8578C24.152 39.863 24.1389 39.8659 24.1256 39.8661Z" fill="#232323"/>
<path d="M27.7478 28.8609H29.2428C29.2692 28.8609 29.2946 28.8714 29.3133 28.8901C29.332 28.9088 29.3425 28.9341 29.3425 28.9605V34.9778C29.3421 34.9986 29.3483 35.019 29.3601 35.0361C29.3719 35.0532 29.3888 35.0662 29.4084 35.0733C29.428 35.0803 29.4492 35.081 29.4693 35.0754C29.4893 35.0697 29.507 35.0579 29.52 35.0417L32.2873 31.7076C32.2967 31.6965 32.3083 31.6875 32.3215 31.6813C32.3347 31.6751 32.349 31.6719 32.3636 31.6717H34.4394C34.4589 31.6716 34.4781 31.6772 34.4945 31.6878C34.5109 31.6985 34.5238 31.7137 34.5316 31.7316C34.5394 31.7496 34.5418 31.7694 34.5384 31.7886C34.535 31.8079 34.526 31.8257 34.5126 31.8399L30.9511 35.7082C30.9343 35.727 30.9249 35.7514 30.9249 35.7767C30.9249 35.802 30.9343 35.8264 30.9511 35.8452L34.5095 39.6979C34.5229 39.7121 34.5319 39.7299 34.5353 39.7492C34.5386 39.7684 34.5363 39.7883 34.5285 39.8062C34.5207 39.8241 34.5078 39.8394 34.4914 39.85C34.475 39.8607 34.4558 39.8662 34.4363 39.8661H32.4227C32.4083 39.8662 32.394 39.8633 32.3808 39.8574C32.3676 39.8514 32.3559 39.8427 32.3464 39.8318L29.5184 36.546C29.5052 36.5302 29.4874 36.519 29.4676 36.5137C29.4477 36.5085 29.4267 36.5095 29.4074 36.5167C29.3881 36.5238 29.3715 36.5368 29.3599 36.5537C29.3483 36.5707 29.3422 36.5908 29.3425 36.6114V39.7664C29.3425 39.7929 29.332 39.8182 29.3133 39.8369C29.2946 39.8556 29.2692 39.8661 29.2428 39.8661H27.7478C27.7212 39.8661 27.6957 39.8556 27.6768 39.837C27.6578 39.8183 27.647 39.793 27.6466 39.7664V28.9652C27.6462 28.9517 27.6485 28.9382 27.6534 28.9255C27.6583 28.9129 27.6657 28.9013 27.6751 28.8916C27.6846 28.8819 27.6959 28.8741 27.7083 28.8689C27.7208 28.8636 27.7343 28.8609 27.7478 28.8609Z" fill="#232323"/>
<path d="M38.8169 40C36.467 40 34.726 38.3353 34.726 35.7611C34.726 33.187 36.3922 31.5378 38.8169 31.5378C41.1528 31.5378 42.8019 33.1589 42.8019 35.568C42.8047 35.8469 42.7849 36.1255 42.7428 36.4012H36.5978C36.583 36.4013 36.5685 36.4045 36.5551 36.4106C36.5416 36.4167 36.5296 36.4255 36.5198 36.4365C36.51 36.4475 36.5026 36.4604 36.498 36.4744C36.4935 36.4885 36.4919 36.5033 36.4935 36.518C36.657 37.8011 37.6038 38.572 38.8169 38.572C39.8291 38.572 40.4053 38.0939 40.723 37.4819C40.731 37.4661 40.7433 37.4527 40.7584 37.4434C40.7735 37.434 40.7909 37.429 40.8086 37.429H42.4344C42.4509 37.4291 42.467 37.4331 42.4816 37.4407C42.4962 37.4483 42.5087 37.4592 42.5183 37.4726C42.5279 37.4859 42.5341 37.5013 42.5366 37.5176C42.5391 37.5338 42.5377 37.5504 42.5325 37.566C42.0342 38.9317 40.7588 40 38.8169 40ZM36.618 35.0386H40.9223C40.9365 35.0384 40.9505 35.0353 40.9635 35.0296C40.9765 35.0239 40.9882 35.0157 40.9979 35.0053C41.0076 34.995 41.0152 34.9829 41.0201 34.9696C41.0251 34.9563 41.0273 34.9421 41.0267 34.928C40.9426 33.7273 39.9693 32.9721 38.7421 32.9721C37.6334 32.9721 36.7333 33.6962 36.5153 34.9171C36.5128 34.932 36.5136 34.9473 36.5176 34.9619C36.5216 34.9765 36.5287 34.9901 36.5385 35.0016C36.5483 35.0132 36.5605 35.0225 36.5742 35.0288C36.5879 35.0352 36.6029 35.0385 36.618 35.0386Z" fill="#232323"/>
<path d="M44.1412 33.0546H43.1741V31.6717H44.1412V29.7345C44.1412 29.7081 44.1517 29.6827 44.1704 29.664C44.1891 29.6453 44.2144 29.6348 44.2409 29.6348H45.7514C45.7778 29.6348 45.8032 29.6453 45.8219 29.664C45.8406 29.6827 45.8511 29.7081 45.8511 29.7345V31.5721C45.8511 31.5985 45.8616 31.6239 45.8803 31.6425C45.899 31.6612 45.9243 31.6717 45.9507 31.6717H47.7447C47.7712 31.6717 47.7965 31.6822 47.8152 31.7009C47.8339 31.7196 47.8444 31.745 47.8444 31.7714V32.9549C47.8444 32.9814 47.8339 33.0067 47.8152 33.0254C47.7965 33.0441 47.7712 33.0546 47.7447 33.0546H45.9507C45.9242 33.055 45.8988 33.0658 45.8802 33.0848C45.8615 33.1037 45.8511 33.1292 45.8511 33.1558V37.5909C45.8511 38.2014 46.0893 38.4536 46.8026 38.4536H47.7447C47.7712 38.4536 47.7965 38.4641 47.8152 38.4828C47.8339 38.5015 47.8444 38.5269 47.8444 38.5533V39.7664C47.8444 39.7928 47.8339 39.8182 47.8152 39.8369C47.7965 39.8556 47.7712 39.8661 47.7447 39.8661H46.5067C45.0475 39.8661 44.1412 39.2572 44.1412 37.5909V33.0546Z" fill="#232323"/>
<path d="M53.4957 29.3514C55.816 29.3514 57.5446 30.5116 58.2859 32.5049H57.1288C57.1098 32.5048 57.0913 32.4992 57.0755 32.4887C57.0597 32.4781 57.0474 32.4632 57.0401 32.4457C56.4514 31.0971 55.2414 30.2655 53.4957 30.2655C51.2205 30.2655 49.4811 31.9458 49.4811 34.6679C49.4811 37.39 51.2205 39.0548 53.4957 39.0548C55.2414 39.0548 56.4545 38.2169 57.0401 36.8964C57.0474 36.8793 57.0595 36.8647 57.075 36.8545C57.0905 36.8443 57.1087 36.8388 57.1273 36.8388H58.2936C57.5493 38.8025 55.8238 39.9533 53.5035 39.9533C50.6179 39.9533 48.4174 37.7825 48.4174 34.6586C48.4174 31.5347 50.6101 29.3514 53.4957 29.3514Z" fill="#232323"/>
<path d="M59.5192 29.4417C59.5146 29.3391 59.5308 29.2367 59.5668 29.1405C59.6029 29.0443 59.658 28.9565 59.729 28.8823C59.7999 28.808 59.8852 28.7489 59.9796 28.7086C60.0741 28.6682 60.1757 28.6474 60.2784 28.6474C60.3811 28.6474 60.4827 28.6682 60.5771 28.7086C60.6716 28.7489 60.7568 28.808 60.8278 28.8823C60.8987 28.9565 60.9539 29.0443 60.9899 29.1405C61.026 29.2367 61.0422 29.3391 61.0375 29.4417C61.0422 29.5443 61.026 29.6468 60.9899 29.7429C60.9539 29.8391 60.8987 29.9269 60.8278 30.0012C60.7568 30.0754 60.6716 30.1345 60.5771 30.1749C60.4827 30.2152 60.3811 30.236 60.2784 30.236C60.1757 30.236 60.0741 30.2152 59.9796 30.1749C59.8852 30.1345 59.7999 30.0754 59.729 30.0012C59.658 29.9269 59.6029 29.8391 59.5668 29.7429C59.5308 29.6468 59.5146 29.5443 59.5192 29.4417ZM59.8587 31.7449H60.6981C60.7249 31.7449 60.7507 31.7556 60.7696 31.7746C60.7886 31.7935 60.7993 31.8193 60.7993 31.8461V39.7664C60.7989 39.793 60.788 39.8183 60.7691 39.837C60.7502 39.8556 60.7246 39.8661 60.6981 39.8661H59.8587C59.8321 39.8661 59.8066 39.8556 59.7877 39.837C59.7687 39.8183 59.7579 39.793 59.7575 39.7664V31.8461C59.7575 31.8193 59.7681 31.7935 59.7871 31.7746C59.8061 31.7556 59.8318 31.7449 59.8587 31.7449Z" fill="#232323"/>
<path d="M63.5089 39.8661H62.6696C62.643 39.8661 62.6175 39.8556 62.5986 39.837C62.5796 39.8183 62.5688 39.793 62.5684 39.7664V31.8461C62.5684 31.8193 62.579 31.7936 62.598 31.7746C62.617 31.7556 62.6427 31.7449 62.6696 31.7449H63.5089C63.5358 31.7449 63.5615 31.7556 63.5805 31.7746C63.5995 31.7936 63.6102 31.8193 63.6102 31.8461V33.1885C64.0447 32.2183 64.9447 31.6312 66.284 31.5985C66.3117 31.5985 66.3384 31.6092 66.3584 31.6283C66.3784 31.6475 66.3902 31.6736 66.3915 31.7013V32.6824H66.108C64.7548 32.6824 63.6164 33.2928 63.6164 35.3298V39.7664C63.6162 39.7801 63.6132 39.7936 63.6077 39.8062C63.6021 39.8187 63.5941 39.8299 63.584 39.8393C63.574 39.8486 63.5621 39.8558 63.5492 39.8604C63.5363 39.865 63.5226 39.8669 63.5089 39.8661Z" fill="#232323"/>
<path d="M70.8234 31.6266C72.8603 31.6266 74.184 32.7166 74.5609 34.3938H73.5191C73.4978 34.3934 73.4773 34.386 73.4607 34.3728C73.4441 34.3596 73.4323 34.3412 73.4272 34.3206C73.136 33.2025 72.1674 32.5189 70.8281 32.5189C69.2366 32.5189 67.9425 33.609 67.9425 35.8063C67.9425 38.0036 69.2366 39.1077 70.8281 39.1077C72.1674 39.1077 73.122 38.4365 73.4272 37.2919C73.4323 37.2713 73.4441 37.253 73.4607 37.2397C73.4773 37.2265 73.4978 37.2191 73.5191 37.2187H74.5609C74.1887 38.8398 72.865 39.9844 70.8234 39.9844C68.5327 39.9844 66.882 38.3789 66.882 35.8063C66.882 33.2337 68.5327 31.6266 70.8234 31.6266Z" fill="#232323"/>
<path d="M75.9795 28.8609H76.8251C76.8517 28.8609 76.8772 28.8713 76.8962 28.89C76.9151 28.9086 76.9259 28.934 76.9264 28.9605V39.7664C76.9259 39.793 76.9151 39.8183 76.8962 39.837C76.8772 39.8556 76.8517 39.8661 76.8251 39.8661H75.9842C75.9578 39.8661 75.9324 39.8556 75.9137 39.8369C75.895 39.8182 75.8845 39.7929 75.8845 39.7664V28.9652C75.8839 28.9521 75.8859 28.939 75.8903 28.9267C75.8948 28.9144 75.9016 28.903 75.9104 28.8933C75.9192 28.8836 75.9299 28.8758 75.9417 28.8702C75.9536 28.8646 75.9664 28.8615 75.9795 28.8609Z" fill="#232323"/>
<path d="M82.2008 39.9844C79.8961 39.9844 78.2158 38.3789 78.2158 35.8063C78.2158 33.2337 79.8649 31.6266 82.2008 31.6266C84.5804 31.6266 86.0379 33.3224 86.0379 35.3889C86.0437 35.6623 86.0338 35.9358 86.0084 36.208H79.3806C79.3664 36.2082 79.3523 36.2113 79.3393 36.2171C79.3263 36.2229 79.3146 36.2314 79.305 36.2419C79.2953 36.2524 79.288 36.2647 79.2833 36.2782C79.2786 36.2917 79.2768 36.306 79.2778 36.3202C79.4133 38.15 80.7137 39.1077 82.2008 39.1077C83.5541 39.1077 84.4807 38.41 84.7984 37.362C84.8041 37.3421 84.8162 37.3247 84.8328 37.3123C84.8494 37.2999 84.8696 37.2933 84.8902 37.2935H85.918C85.5459 38.8258 84.2378 39.9844 82.2008 39.9844ZM79.3822 35.3593H84.8778C84.9056 35.3589 84.9321 35.3476 84.9517 35.3278C84.9712 35.308 84.9821 35.2813 84.9821 35.2534C84.9821 33.4361 83.6304 32.5189 82.1557 32.5189C80.7136 32.5189 79.4429 33.433 79.2794 35.2456C79.2783 35.2599 79.2802 35.2743 79.2848 35.2878C79.2895 35.3014 79.2969 35.3139 79.3065 35.3245C79.3161 35.3351 79.3277 35.3437 79.3408 35.3497C79.3538 35.3557 79.3679 35.3589 79.3822 35.3593Z" fill="#232323"/>
<path d="M28.8846 22.5165C27.773 22.5137 26.7077 22.0707 25.9218 21.2845C25.1359 20.4983 24.6934 19.4329 24.6909 18.3213V9.43393C24.6984 6.95407 25.6789 4.57622 27.4217 2.81194C29.1644 1.04766 31.53 0.0379374 34.0096 -2.38522e-06H34.1233C35.2347 -0.00272254 36.3377 0.191839 37.3811 0.57463C36.042 1.63105 34.9593 2.97679 34.2142 4.51105C33.469 6.04531 33.0807 7.7283 33.0784 9.43393V18.3213C33.0759 19.4329 32.6333 20.4983 31.8474 21.2845C31.0615 22.0707 29.9963 22.5137 28.8846 22.5165Z" fill="#232323"/>
<path d="M41.7134 22.5165C40.6015 22.5141 39.5359 22.0713 38.7496 21.2851C37.9634 20.4988 37.5206 19.4332 37.5181 18.3213V9.43393C37.526 6.95393 38.5069 4.57608 40.2499 2.81184C41.9929 1.04761 44.3587 0.0379346 46.8384 9.85347e-08H46.9505C48.0624 -0.00283844 49.166 0.191724 50.2099 0.574632C48.8705 1.63082 47.7877 2.97652 47.0425 4.51083C46.2973 6.04514 45.9092 7.72824 45.9071 9.43393V18.3213C45.9047 19.4329 45.4621 20.4983 44.6762 21.2845C43.8903 22.0707 42.825 22.5137 41.7134 22.5165Z" fill="#232323"/>
<path d="M54.5406 22.5165C53.4298 22.5124 52.3658 22.0689 51.5809 21.2829C50.796 20.4968 50.354 19.4321 50.3516 18.3213V9.43393C50.359 6.95486 51.339 4.5777 53.0807 2.81355C54.8224 1.04941 57.1868 0.0391491 59.6656 -2.38522e-06H59.7793C60.8907 -0.00272254 61.9937 0.191839 63.0371 0.57463C61.698 1.63105 60.6153 2.97679 59.8702 4.51105C59.125 6.04531 58.7367 7.7283 58.7344 9.43393V18.3213C58.7319 19.4329 58.2893 20.4983 57.5034 21.2845C56.7175 22.0707 55.6523 22.5137 54.5406 22.5165Z" fill="#232323"/>
</g>
<defs>
<clipPath id="clip0_49_1570">
<rect width="85.519" height="40" fill="white" transform="translate(0.518982)"/>
</clipPath>
</defs>
</svg>
