<svg width="86" height="40" viewBox="0 0 86 40" fill="none" xmlns="http://www.w3.org/2000/svg">
<g clip-path="url(#clip0_49_1571)">
<path d="M0.0996652 29.5305H1.76439C1.78372 29.5307 1.80259 29.5364 1.81884 29.5469C1.83509 29.5573 1.84806 29.5722 1.85626 29.5897L5.36635 37.4305C5.37446 37.4481 5.38742 37.4629 5.4037 37.4733C5.41998 37.4837 5.4389 37.4893 5.45823 37.4893C5.47755 37.4893 5.49647 37.4837 5.51275 37.4733C5.52904 37.4629 5.542 37.4481 5.55011 37.4305L9.04617 29.5881C9.05395 29.5706 9.06661 29.5557 9.08263 29.5452C9.09864 29.5347 9.11735 29.5291 9.13649 29.5289H10.7872C10.8136 29.5289 10.839 29.5394 10.8577 29.5581C10.8764 29.5768 10.8869 29.6022 10.8869 29.6286V39.7649C10.8869 39.7913 10.8764 39.8166 10.8577 39.8353C10.839 39.854 10.8136 39.8645 10.7872 39.8645H9.29066C9.26423 39.8645 9.23888 39.854 9.22019 39.8353C9.2015 39.8166 9.191 39.7913 9.191 39.7649V33.2586C9.19144 33.2354 9.1838 33.2128 9.16937 33.1947C9.15495 33.1765 9.13465 33.164 9.11197 33.1592C9.08928 33.1544 9.06564 33.1576 9.04511 33.1684C9.02457 33.1791 9.00843 33.1967 8.99946 33.2181L6.064 39.8069C6.05622 39.8244 6.04357 39.8393 6.02755 39.8498C6.01153 39.8603 5.99283 39.8659 5.97368 39.8661H4.92876C4.90934 39.8662 4.8903 39.8607 4.87398 39.8502C4.85766 39.8397 4.84476 39.8246 4.83688 39.8069L1.88741 33.215C1.8784 33.1935 1.86213 33.1758 1.84142 33.165C1.82072 33.1543 1.79689 33.1511 1.7741 33.1561C1.7513 33.1611 1.73099 33.174 1.71669 33.1924C1.7024 33.2108 1.69503 33.2337 1.69587 33.257V39.7664C1.69546 39.793 1.68461 39.8183 1.66567 39.837C1.64673 39.8556 1.62122 39.8661 1.59464 39.8661H0.0996652C0.0732323 39.8661 0.0478821 39.8556 0.0291913 39.8369C0.0105004 39.8182 0 39.7928 0 39.7664L0 29.6302C0 29.6037 0.0105004 29.5784 0.0291913 29.5597C0.0478821 29.541 0.0732323 29.5305 0.0996652 29.5305Z" fill="#2E2E2E"/>
<path d="M15.825 31.5378C17.2078 31.5378 18.1609 32.1919 18.6654 32.8615V31.7714C18.6654 31.745 18.6759 31.7196 18.6946 31.7009C18.7133 31.6822 18.7387 31.6717 18.7651 31.6717H20.2756C20.3021 31.6717 20.3274 31.6822 20.3461 31.7009C20.3648 31.7196 20.3753 31.745 20.3753 31.7714V39.7664C20.3753 39.7929 20.3648 39.8182 20.3461 39.8369C20.3274 39.8556 20.3021 39.8661 20.2756 39.8661H18.7651C18.7387 39.8661 18.7133 39.8556 18.6946 39.8369C18.6759 39.8182 18.6654 39.7929 18.6654 39.7664V38.6467C18.1453 39.346 17.1627 40 15.7954 40C13.6681 40 11.9583 38.2605 11.9583 35.7315C11.9583 33.2025 13.6681 31.5378 15.825 31.5378ZM16.1816 33.0094C14.9171 33.0094 13.69 33.9625 13.69 35.7315C13.69 37.5006 14.9093 38.5346 16.1816 38.5346C17.4539 38.5346 18.6732 37.538 18.6732 35.7674C18.6732 33.9967 17.4601 33.0141 16.1816 33.0141V33.0094Z" fill="#2E2E2E"/>
<path d="M23.6066 39.8661H22.1132C22.0868 39.8661 22.0614 39.8556 22.0427 39.8369C22.0241 39.8182 22.0135 39.7928 22.0135 39.7664V31.7683C22.0135 31.7418 22.0241 31.7165 22.0427 31.6978C22.0614 31.6791 22.0868 31.6686 22.1132 31.6686H23.6082C23.6348 31.6686 23.6603 31.6791 23.6792 31.6977C23.6982 31.7163 23.709 31.7417 23.7094 31.7683V32.8584C24.1766 32.0657 24.9552 31.5674 26.0547 31.5362C26.0686 31.536 26.0824 31.5386 26.0953 31.5437C26.1082 31.5488 26.12 31.5565 26.13 31.5661C26.14 31.5758 26.1479 31.5874 26.1535 31.6002C26.159 31.6129 26.1619 31.6267 26.1621 31.6406V33.2897H25.7307C24.4849 33.2897 23.7063 33.8098 23.7063 35.5493V39.7633C23.7065 39.7766 23.7041 39.7898 23.6992 39.8021C23.6943 39.8145 23.687 39.8258 23.6778 39.8353C23.6685 39.8449 23.6575 39.8525 23.6453 39.8578C23.6331 39.863 23.6199 39.8659 23.6066 39.8661Z" fill="#2E2E2E"/>
<path d="M27.2288 28.8609H28.7238C28.7503 28.8609 28.7756 28.8714 28.7943 28.8901C28.813 28.9088 28.8235 28.9341 28.8235 28.9605V34.9778C28.8231 34.9986 28.8293 35.019 28.8411 35.0361C28.853 35.0532 28.8698 35.0662 28.8894 35.0733C28.909 35.0803 28.9303 35.081 28.9503 35.0754C28.9703 35.0697 28.988 35.0579 29.001 35.0417L31.7683 31.7076C31.7777 31.6965 31.7894 31.6875 31.8025 31.6813C31.8157 31.6751 31.83 31.6719 31.8446 31.6717H33.9204C33.94 31.6716 33.9591 31.6772 33.9755 31.6878C33.9919 31.6985 34.0048 31.7137 34.0126 31.7316C34.0204 31.7496 34.0228 31.7694 34.0194 31.7886C34.016 31.8079 34.0071 31.8257 33.9936 31.8399L30.4321 35.7082C30.4153 35.727 30.406 35.7514 30.406 35.7767C30.406 35.802 30.4153 35.8264 30.4321 35.8452L33.9905 39.6979C34.0039 39.7121 34.0129 39.7299 34.0163 39.7492C34.0197 39.7684 34.0173 39.7883 34.0095 39.8062C34.0017 39.8241 33.9888 39.8394 33.9724 39.85C33.956 39.8607 33.9369 39.8662 33.9173 39.8661H31.9038C31.8893 39.8662 31.875 39.8633 31.8618 39.8574C31.8487 39.8514 31.8369 39.8427 31.8275 39.8318L28.9995 36.546C28.9862 36.5302 28.9685 36.519 28.9486 36.5137C28.9287 36.5085 28.9077 36.5095 28.8884 36.5167C28.8691 36.5238 28.8526 36.5368 28.8409 36.5537C28.8293 36.5707 28.8232 36.5908 28.8235 36.6114V39.7664C28.8235 39.7929 28.813 39.8182 28.7943 39.8369C28.7756 39.8556 28.7503 39.8661 28.7238 39.8661H27.2288C27.2023 39.8661 27.1767 39.8556 27.1578 39.837C27.1389 39.8183 27.128 39.793 27.1276 39.7664V28.9652C27.1272 28.9517 27.1295 28.9382 27.1344 28.9255C27.1393 28.9129 27.1467 28.9013 27.1561 28.8916C27.1656 28.8819 27.1769 28.8741 27.1894 28.8689C27.2019 28.8636 27.2153 28.8609 27.2288 28.8609Z" fill="#2E2E2E"/>
<path d="M38.2979 40C35.948 40 34.207 38.3353 34.207 35.7611C34.207 33.187 35.8732 31.5378 38.2979 31.5378C40.6338 31.5378 42.283 33.1589 42.283 35.568C42.2857 35.8469 42.2659 36.1255 42.2238 36.4012H36.0788C36.0641 36.4013 36.0495 36.4045 36.0361 36.4106C36.0227 36.4167 36.0106 36.4255 36.0008 36.4365C35.991 36.4475 35.9836 36.4604 35.979 36.4744C35.9745 36.4885 35.9729 36.5033 35.9745 36.518C36.138 37.8011 37.0848 38.572 38.2979 38.572C39.3101 38.572 39.8863 38.0939 40.204 37.4819C40.212 37.4661 40.2243 37.4527 40.2394 37.4434C40.2545 37.434 40.2719 37.429 40.2897 37.429H41.9154C41.9319 37.4291 41.948 37.4331 41.9626 37.4407C41.9772 37.4483 41.9897 37.4592 41.9993 37.4726C42.0089 37.4859 42.0151 37.5013 42.0176 37.5176C42.0201 37.5338 42.0187 37.5504 42.0136 37.566C41.5152 38.9317 40.2398 40 38.2979 40ZM36.099 35.0386H40.4033C40.4175 35.0384 40.4315 35.0353 40.4445 35.0296C40.4575 35.0239 40.4692 35.0157 40.4789 35.0053C40.4886 34.995 40.4962 34.9829 40.5011 34.9696C40.5061 34.9563 40.5083 34.9421 40.5077 34.928C40.4236 33.7273 39.4503 32.9721 38.2232 32.9721C37.1144 32.9721 36.2143 33.6962 35.9963 34.9171C35.9938 34.932 35.9946 34.9473 35.9986 34.9619C36.0026 34.9765 36.0098 34.9901 36.0195 35.0016C36.0293 35.0132 36.0415 35.0225 36.0552 35.0288C36.069 35.0352 36.0839 35.0385 36.099 35.0386Z" fill="#2E2E2E"/>
<path d="M43.6222 33.0546H42.6551V31.6717H43.6222V29.7345C43.6222 29.7081 43.6327 29.6827 43.6514 29.664C43.6701 29.6453 43.6954 29.6348 43.7219 29.6348H45.2324C45.2589 29.6348 45.2842 29.6453 45.3029 29.664C45.3216 29.6827 45.3321 29.7081 45.3321 29.7345V31.5721C45.3321 31.5985 45.3426 31.6239 45.3613 31.6425C45.38 31.6612 45.4053 31.6717 45.4318 31.6717H47.2257C47.2522 31.6717 47.2775 31.6822 47.2962 31.7009C47.3149 31.7196 47.3254 31.745 47.3254 31.7714V32.9549C47.3254 32.9814 47.3149 33.0067 47.2962 33.0254C47.2775 33.0441 47.2522 33.0546 47.2257 33.0546H45.4318C45.4052 33.055 45.3798 33.0658 45.3612 33.0848C45.3425 33.1037 45.3321 33.1292 45.3321 33.1558V37.5909C45.3321 38.2014 45.5703 38.4536 46.2836 38.4536H47.2257C47.2522 38.4536 47.2775 38.4641 47.2962 38.4828C47.3149 38.5015 47.3254 38.5269 47.3254 38.5533V39.7664C47.3254 39.7928 47.3149 39.8182 47.2962 39.8369C47.2775 39.8556 47.2522 39.8661 47.2257 39.8661H45.9877C44.5285 39.8661 43.6222 39.2572 43.6222 37.5909V33.0546Z" fill="#2E2E2E"/>
<path d="M52.9767 29.3514C55.2971 29.3514 57.0256 30.5116 57.7669 32.5049H56.6098C56.5909 32.5048 56.5723 32.4992 56.5565 32.4887C56.5407 32.4781 56.5284 32.4632 56.5211 32.4457C55.9324 31.0971 54.7224 30.2655 52.9767 30.2655C50.7016 30.2655 48.9621 31.9458 48.9621 34.6679C48.9621 37.39 50.7016 39.0548 52.9767 39.0548C54.7224 39.0548 55.9355 38.2169 56.5211 36.8964C56.5284 36.8793 56.5405 36.8647 56.556 36.8545C56.5715 36.8443 56.5897 36.8388 56.6083 36.8388H57.7747C57.0303 38.8025 55.3048 39.9533 52.9845 39.9533C50.0989 39.9533 47.8985 37.7825 47.8985 34.6586C47.8985 31.5347 50.0911 29.3514 52.9767 29.3514Z" fill="#2E2E2E"/>
<path d="M59.0002 29.4417C58.9956 29.3391 59.0118 29.2367 59.0478 29.1405C59.0839 29.0443 59.1391 28.9565 59.21 28.8823C59.281 28.808 59.3662 28.7489 59.4607 28.7086C59.5551 28.6682 59.6567 28.6474 59.7594 28.6474C59.8621 28.6474 59.9637 28.6682 60.0581 28.7086C60.1526 28.7489 60.2378 28.808 60.3088 28.8823C60.3797 28.9565 60.4349 29.0443 60.471 29.1405C60.507 29.2367 60.5232 29.3391 60.5186 29.4417C60.5232 29.5443 60.507 29.6468 60.471 29.7429C60.4349 29.8391 60.3797 29.9269 60.3088 30.0012C60.2378 30.0754 60.1526 30.1345 60.0581 30.1749C59.9637 30.2152 59.8621 30.236 59.7594 30.236C59.6567 30.236 59.5551 30.2152 59.4607 30.1749C59.3662 30.1345 59.281 30.0754 59.21 30.0012C59.1391 29.9269 59.0839 29.8391 59.0478 29.7429C59.0118 29.6468 58.9956 29.5443 59.0002 29.4417ZM59.3397 31.7449H60.1791C60.2059 31.7449 60.2317 31.7556 60.2507 31.7746C60.2696 31.7935 60.2803 31.8193 60.2803 31.8461V39.7664C60.2799 39.793 60.2691 39.8183 60.2501 39.837C60.2312 39.8556 60.2057 39.8661 60.1791 39.8661H59.3397C59.3131 39.8661 59.2876 39.8556 59.2687 39.837C59.2497 39.8183 59.2389 39.793 59.2385 39.7664V31.8461C59.2385 31.8193 59.2492 31.7935 59.2681 31.7746C59.2871 31.7556 59.3129 31.7449 59.3397 31.7449Z" fill="#2E2E2E"/>
<path d="M62.99 39.8661H62.1506C62.124 39.8661 62.0985 39.8556 62.0796 39.837C62.0606 39.8183 62.0498 39.793 62.0494 39.7664V31.8461C62.0494 31.8193 62.06 31.7936 62.079 31.7746C62.098 31.7556 62.1238 31.7449 62.1506 31.7449H62.99C63.0168 31.7449 63.0426 31.7556 63.0615 31.7746C63.0805 31.7936 63.0912 31.8193 63.0912 31.8461V33.1885C63.5257 32.2183 64.4258 31.6312 65.765 31.5985C65.7927 31.5985 65.8194 31.6092 65.8394 31.6283C65.8594 31.6475 65.8713 31.6736 65.8725 31.7013V32.6824H65.589C64.2358 32.6824 63.0974 33.2928 63.0974 35.3298V39.7664C63.0972 39.7801 63.0943 39.7936 63.0887 39.8062C63.0831 39.8187 63.0751 39.8299 63.065 39.8393C63.055 39.8486 63.0432 39.8558 63.0303 39.8604C63.0174 39.865 63.0036 39.8669 62.99 39.8661Z" fill="#2E2E2E"/>
<path d="M70.3045 31.6266C72.3414 31.6266 73.665 32.7166 74.0419 34.3938H73.0001C72.9789 34.3934 72.9583 34.386 72.9417 34.3728C72.9251 34.3596 72.9133 34.3412 72.9082 34.3206C72.617 33.2025 71.6484 32.5189 70.3091 32.5189C68.7176 32.5189 67.4235 33.609 67.4235 35.8063C67.4235 38.0036 68.7176 39.1077 70.3091 39.1077C71.6484 39.1077 72.603 38.4365 72.9082 37.2919C72.9133 37.2713 72.9251 37.253 72.9417 37.2397C72.9583 37.2265 72.9789 37.2191 73.0001 37.2187H74.0419C73.6697 38.8398 72.346 39.9844 70.3045 39.9844C68.0137 39.9844 66.363 38.3789 66.363 35.8063C66.363 33.2337 68.0137 31.6266 70.3045 31.6266Z" fill="#2E2E2E"/>
<path d="M75.4606 28.8609H76.3062C76.3327 28.8609 76.3582 28.8713 76.3772 28.89C76.3961 28.9086 76.407 28.934 76.4074 28.9605V39.7664C76.407 39.793 76.3961 39.8183 76.3772 39.837C76.3582 39.8556 76.3327 39.8661 76.3062 39.8661H75.4652C75.4388 39.8661 75.4134 39.8556 75.3948 39.8369C75.3761 39.8182 75.3656 39.7929 75.3656 39.7664V28.9652C75.3649 28.9521 75.3669 28.939 75.3713 28.9267C75.3758 28.9144 75.3826 28.903 75.3914 28.8933C75.4002 28.8836 75.4109 28.8758 75.4228 28.8702C75.4346 28.8646 75.4475 28.8615 75.4606 28.8609Z" fill="#2E2E2E"/>
<path d="M81.6819 39.9844C79.3771 39.9844 77.6968 38.3789 77.6968 35.8063C77.6968 33.2337 79.346 31.6266 81.6819 31.6266C84.0614 31.6266 85.519 33.3224 85.519 35.3889C85.5247 35.6623 85.5148 35.9358 85.4894 36.208H78.8616C78.8474 36.2082 78.8333 36.2113 78.8203 36.2171C78.8073 36.2229 78.7956 36.2314 78.786 36.2419C78.7764 36.2524 78.769 36.2647 78.7643 36.2782C78.7597 36.2917 78.7578 36.306 78.7589 36.3202C78.8943 38.15 80.1947 39.1077 81.6819 39.1077C83.0351 39.1077 83.9617 38.41 84.2794 37.362C84.2852 37.3421 84.2972 37.3247 84.3138 37.3123C84.3304 37.2999 84.3506 37.2933 84.3713 37.2935H85.3991C85.0269 38.8258 83.7188 39.9844 81.6819 39.9844ZM78.8632 35.3593H84.3588C84.3866 35.3589 84.4132 35.3476 84.4327 35.3278C84.4522 35.308 84.4631 35.2813 84.4631 35.2534C84.4631 33.4361 83.1114 32.5189 81.6367 32.5189C80.1947 32.5189 78.9239 33.433 78.7604 35.2456C78.7594 35.2599 78.7612 35.2743 78.7659 35.2878C78.7705 35.3014 78.7779 35.3139 78.7875 35.3245C78.7971 35.3351 78.8088 35.3437 78.8218 35.3497C78.8348 35.3557 78.8489 35.3589 78.8632 35.3593Z" fill="#2E2E2E"/>
<path d="M28.3656 22.5165C27.254 22.5137 26.1888 22.0707 25.4029 21.2845C24.617 20.4983 24.1744 19.4329 24.1719 18.3213V9.43393C24.1794 6.95407 25.16 4.57622 26.9027 2.81194C28.6454 1.04766 31.011 0.0379374 33.4906 -2.38522e-06H33.6043C34.7157 -0.00272254 35.8187 0.191839 36.8621 0.57463C35.523 1.63105 34.4403 2.97679 33.6952 4.51105C32.95 6.04531 32.5617 7.7283 32.5594 9.43393V18.3213C32.5569 19.4329 32.1143 20.4983 31.3284 21.2845C30.5425 22.0707 29.4773 22.5137 28.3656 22.5165Z" fill="#F4624E"/>
<path d="M41.1944 22.5165C40.0825 22.5141 39.0169 22.0713 38.2306 21.2851C37.4444 20.4988 37.0016 19.4332 36.9991 18.3213V9.43393C37.007 6.95393 37.9879 4.57608 39.7309 2.81184C41.4739 1.04761 43.8397 0.0379346 46.3194 9.85347e-08H46.4315C47.5434 -0.00283844 48.647 0.191724 49.6909 0.574632C48.3515 1.63082 47.2687 2.97652 46.5235 4.51083C45.7783 6.04514 45.3902 7.72824 45.3882 9.43393V18.3213C45.3857 19.4329 44.9431 20.4983 44.1572 21.2845C43.3713 22.0707 42.3061 22.5137 41.1944 22.5165Z" fill="#F4624E"/>
<path d="M54.0216 22.5165C52.9108 22.5124 51.8468 22.0689 51.0619 21.2829C50.277 20.4968 49.8351 19.4321 49.8326 18.3213V9.43393C49.84 6.95486 50.82 4.5777 52.5617 2.81355C54.3034 1.04941 56.6679 0.0391491 59.1466 -2.38522e-06H59.2603C60.3717 -0.00272254 61.4747 0.191839 62.5181 0.57463C61.179 1.63105 60.0963 2.97679 59.3512 4.51105C58.606 6.04531 58.2177 7.7283 58.2154 9.43393V18.3213C58.2129 19.4329 57.7703 20.4983 56.9844 21.2845C56.1985 22.0707 55.1333 22.5137 54.0216 22.5165Z" fill="#F4624E"/>
</g>
<defs>
<clipPath id="clip0_49_1571">
<rect width="85.519" height="40" fill="white"/>
</clipPath>
</defs>
</svg>
