<svg width="86" height="40" viewBox="0 0 86 40" fill="none" xmlns="http://www.w3.org/2000/svg">
<g clip-path="url(#clip0_49_1569)">
<path d="M0.137568 29.5305H1.80229C1.82162 29.5307 1.84049 29.5364 1.85674 29.5469C1.873 29.5573 1.88597 29.5722 1.89417 29.5897L5.40425 37.4305C5.41236 37.4481 5.42532 37.4629 5.4416 37.4733C5.45788 37.4837 5.4768 37.4893 5.49613 37.4893C5.51545 37.4893 5.53438 37.4837 5.55066 37.4733C5.56694 37.4629 5.5799 37.4481 5.58801 37.4305L9.08408 29.5881C9.09186 29.5706 9.10451 29.5557 9.12053 29.5452C9.13655 29.5347 9.15525 29.5291 9.1744 29.5289H10.8251C10.8515 29.5289 10.8769 29.5394 10.8956 29.5581C10.9143 29.5768 10.9248 29.6022 10.9248 29.6286V39.7649C10.9248 39.7913 10.9143 39.8166 10.8956 39.8353C10.8769 39.854 10.8515 39.8645 10.8251 39.8645H9.32857C9.30213 39.8645 9.27678 39.854 9.25809 39.8353C9.2394 39.8166 9.2289 39.7913 9.2289 39.7649V33.2586C9.22935 33.2354 9.2217 33.2128 9.20727 33.1947C9.19285 33.1765 9.17255 33.164 9.14987 33.1592C9.12719 33.1544 9.10354 33.1576 9.08301 33.1684C9.06247 33.1791 9.04633 33.1967 9.03736 33.2181L6.10191 39.8069C6.09413 39.8244 6.08147 39.8393 6.06545 39.8498C6.04944 39.8603 6.03073 39.8659 6.01159 39.8661H4.96666C4.94724 39.8662 4.92821 39.8607 4.91188 39.8502C4.89556 39.8397 4.88267 39.8246 4.87478 39.8069L1.92531 33.215C1.91631 33.1935 1.90003 33.1758 1.87933 33.165C1.85862 33.1543 1.83479 33.1511 1.812 33.1561C1.78921 33.1611 1.76889 33.174 1.7546 33.1924C1.7403 33.2108 1.73293 33.2337 1.73377 33.257V39.7664C1.73336 39.793 1.72251 39.8183 1.70358 39.837C1.68464 39.8556 1.65912 39.8661 1.63255 39.8661H0.137568C0.111135 39.8661 0.0857849 39.8556 0.0670941 39.8369C0.0484032 39.8182 0.0379028 39.7928 0.0379028 39.7664L0.0379028 29.6302C0.0379028 29.6037 0.0484032 29.5784 0.0670941 29.5597C0.0857849 29.541 0.111135 29.5305 0.137568 29.5305Z" fill="#F7F6F5"/>
<path d="M15.8629 31.5378C17.2457 31.5378 18.1988 32.1919 18.7033 32.8615V31.7714C18.7033 31.745 18.7138 31.7196 18.7325 31.7009C18.7512 31.6822 18.7765 31.6717 18.803 31.6717H20.3135C20.34 31.6717 20.3653 31.6822 20.384 31.7009C20.4027 31.7196 20.4132 31.745 20.4132 31.7714V39.7664C20.4132 39.7929 20.4027 39.8182 20.384 39.8369C20.3653 39.8556 20.34 39.8661 20.3135 39.8661H18.803C18.7765 39.8661 18.7512 39.8556 18.7325 39.8369C18.7138 39.8182 18.7033 39.7929 18.7033 39.7664V38.6467C18.1832 39.346 17.2005 40 15.8333 40C13.706 40 11.9962 38.2605 11.9962 35.7315C11.9962 33.2025 13.706 31.5378 15.8629 31.5378ZM16.2195 33.0094C14.955 33.0094 13.7278 33.9625 13.7278 35.7315C13.7278 37.5006 14.9472 38.5346 16.2195 38.5346C17.4918 38.5346 18.7111 37.538 18.7111 35.7674C18.7111 33.9967 17.498 33.0141 16.2195 33.0141V33.0094Z" fill="#F7F6F5"/>
<path d="M23.6445 39.8661H22.1511C22.1247 39.8661 22.0993 39.8556 22.0806 39.8369C22.062 39.8182 22.0515 39.7928 22.0515 39.7664V31.7683C22.0515 31.7418 22.062 31.7165 22.0806 31.6978C22.0993 31.6791 22.1247 31.6686 22.1511 31.6686H23.6461C23.6727 31.6686 23.6982 31.6791 23.7171 31.6977C23.7361 31.7163 23.7469 31.7417 23.7473 31.7683V32.8584C24.2145 32.0657 24.9931 31.5674 26.0926 31.5362C26.1065 31.536 26.1203 31.5386 26.1332 31.5437C26.1461 31.5488 26.1579 31.5565 26.1679 31.5661C26.1779 31.5758 26.1859 31.5874 26.1914 31.6002C26.1969 31.6129 26.1998 31.6267 26.2 31.6406V33.2897H25.7687C24.5228 33.2897 23.7442 33.8098 23.7442 35.5493V39.7633C23.7444 39.7766 23.742 39.7898 23.7371 39.8021C23.7322 39.8145 23.7249 39.8258 23.7157 39.8353C23.7064 39.8449 23.6954 39.8525 23.6832 39.8578C23.671 39.863 23.6578 39.8659 23.6445 39.8661Z" fill="#F7F6F5"/>
<path d="M27.2667 28.8609H28.7617C28.7881 28.8609 28.8135 28.8714 28.8322 28.8901C28.8509 28.9088 28.8614 28.9341 28.8614 28.9605V34.9778C28.861 34.9986 28.8672 35.019 28.879 35.0361C28.8908 35.0532 28.9077 35.0662 28.9273 35.0733C28.9469 35.0803 28.9682 35.081 28.9882 35.0754C29.0082 35.0697 29.0259 35.0579 29.0389 35.0417L31.8062 31.7076C31.8156 31.6965 31.8273 31.6875 31.8404 31.6813C31.8536 31.6751 31.8679 31.6719 31.8825 31.6717H33.9583C33.9779 31.6716 33.997 31.6772 34.0134 31.6878C34.0298 31.6985 34.0427 31.7137 34.0505 31.7316C34.0583 31.7496 34.0607 31.7694 34.0573 31.7886C34.0539 31.8079 34.045 31.8257 34.0315 31.8399L30.47 35.7082C30.4532 35.727 30.4439 35.7514 30.4439 35.7767C30.4439 35.802 30.4532 35.8264 30.47 35.8452L34.0284 39.6979C34.0418 39.7121 34.0508 39.7299 34.0542 39.7492C34.0576 39.7684 34.0552 39.7883 34.0474 39.8062C34.0396 39.8241 34.0267 39.8394 34.0103 39.85C33.9939 39.8607 33.9748 39.8662 33.9552 39.8661H31.9417C31.9272 39.8662 31.9129 39.8633 31.8997 39.8574C31.8866 39.8514 31.8748 39.8427 31.8654 39.8318L29.0374 36.546C29.0241 36.5302 29.0064 36.519 28.9865 36.5137C28.9666 36.5085 28.9456 36.5095 28.9263 36.5167C28.907 36.5238 28.8905 36.5368 28.8788 36.5537C28.8672 36.5707 28.8611 36.5908 28.8614 36.6114V39.7664C28.8614 39.7929 28.8509 39.8182 28.8322 39.8369C28.8135 39.8556 28.7881 39.8661 28.7617 39.8661H27.2667C27.2402 39.8661 27.2146 39.8556 27.1957 39.837C27.1768 39.8183 27.1659 39.793 27.1655 39.7664V28.9652C27.1651 28.9517 27.1674 28.9382 27.1723 28.9255C27.1772 28.9129 27.1846 28.9013 27.194 28.8916C27.2035 28.8819 27.2148 28.8741 27.2273 28.8689C27.2398 28.8636 27.2532 28.8609 27.2667 28.8609Z" fill="#F7F6F5"/>
<path d="M38.3358 40C35.9859 40 34.2449 38.3353 34.2449 35.7611C34.2449 33.187 35.9111 31.5378 38.3358 31.5378C40.6717 31.5378 42.3209 33.1589 42.3209 35.568C42.3236 35.8469 42.3038 36.1255 42.2617 36.4012H36.1167C36.102 36.4013 36.0874 36.4045 36.074 36.4106C36.0606 36.4167 36.0486 36.4255 36.0387 36.4365C36.0289 36.4475 36.0215 36.4604 36.017 36.4744C36.0124 36.4885 36.0109 36.5033 36.0124 36.518C36.1759 37.8011 37.1227 38.572 38.3358 38.572C39.348 38.572 39.9242 38.0939 40.2419 37.4819C40.2499 37.4661 40.2622 37.4527 40.2773 37.4434C40.2924 37.434 40.3098 37.429 40.3276 37.429H41.9534C41.9698 37.4291 41.9859 37.4331 42.0005 37.4407C42.0151 37.4483 42.0277 37.4592 42.0372 37.4726C42.0468 37.4859 42.0531 37.5013 42.0555 37.5176C42.058 37.5338 42.0566 37.5504 42.0515 37.566C41.5531 38.9317 40.2777 40 38.3358 40ZM36.137 35.0386H40.4412C40.4554 35.0384 40.4694 35.0353 40.4824 35.0296C40.4954 35.0239 40.5071 35.0157 40.5168 35.0053C40.5265 34.995 40.5341 34.9829 40.539 34.9696C40.544 34.9563 40.5462 34.9421 40.5456 34.928C40.4615 33.7273 39.4882 32.9721 38.2611 32.9721C37.1523 32.9721 36.2522 33.6962 36.0342 34.9171C36.0317 34.932 36.0325 34.9473 36.0365 34.9619C36.0405 34.9765 36.0477 34.9901 36.0574 35.0016C36.0672 35.0132 36.0794 35.0225 36.0931 35.0288C36.1069 35.0352 36.1218 35.0385 36.137 35.0386Z" fill="#F7F6F5"/>
<path d="M43.6601 33.0546H42.6931V31.6717H43.6601V29.7345C43.6601 29.7081 43.6706 29.6827 43.6893 29.664C43.708 29.6453 43.7334 29.6348 43.7598 29.6348H45.2703C45.2968 29.6348 45.3221 29.6453 45.3408 29.664C45.3595 29.6827 45.37 29.7081 45.37 29.7345V31.5721C45.37 31.5985 45.3805 31.6239 45.3992 31.6425C45.4179 31.6612 45.4432 31.6717 45.4697 31.6717H47.2636C47.2901 31.6717 47.3154 31.6822 47.3341 31.7009C47.3528 31.7196 47.3633 31.745 47.3633 31.7714V32.9549C47.3633 32.9814 47.3528 33.0067 47.3341 33.0254C47.3154 33.0441 47.2901 33.0546 47.2636 33.0546H45.4697C45.4431 33.055 45.4177 33.0658 45.3991 33.0848C45.3804 33.1037 45.37 33.1292 45.37 33.1558V37.5909C45.37 38.2014 45.6083 38.4536 46.3215 38.4536H47.2636C47.2901 38.4536 47.3154 38.4641 47.3341 38.4828C47.3528 38.5015 47.3633 38.5269 47.3633 38.5533V39.7664C47.3633 39.7928 47.3528 39.8182 47.3341 39.8369C47.3154 39.8556 47.2901 39.8661 47.2636 39.8661H46.0256C44.5664 39.8661 43.6601 39.2572 43.6601 37.5909V33.0546Z" fill="#F7F6F5"/>
<path d="M53.0146 29.3514C55.335 29.3514 57.0635 30.5116 57.8048 32.5049H56.6477C56.6288 32.5048 56.6102 32.4992 56.5944 32.4887C56.5787 32.4781 56.5663 32.4632 56.559 32.4457C55.9703 31.0971 54.7603 30.2655 53.0146 30.2655C50.7395 30.2655 49 31.9458 49 34.6679C49 37.39 50.7395 39.0548 53.0146 39.0548C54.7603 39.0548 55.9734 38.2169 56.559 36.8964C56.5663 36.8793 56.5784 36.8647 56.5939 36.8545C56.6094 36.8443 56.6276 36.8388 56.6462 36.8388H57.8126C57.0682 38.8025 55.3427 39.9533 53.0224 39.9533C50.1368 39.9533 47.9364 37.7825 47.9364 34.6586C47.9364 31.5347 50.129 29.3514 53.0146 29.3514Z" fill="#F7F6F5"/>
<path d="M59.0381 29.4417C59.0335 29.3391 59.0497 29.2367 59.0857 29.1405C59.1218 29.0443 59.177 28.9565 59.2479 28.8823C59.3189 28.808 59.4041 28.7489 59.4986 28.7086C59.593 28.6682 59.6946 28.6474 59.7973 28.6474C59.9 28.6474 60.0016 28.6682 60.096 28.7086C60.1905 28.7489 60.2757 28.808 60.3467 28.8823C60.4176 28.9565 60.4728 29.0443 60.5089 29.1405C60.5449 29.2367 60.5611 29.3391 60.5565 29.4417C60.5611 29.5443 60.5449 29.6468 60.5089 29.7429C60.4728 29.8391 60.4176 29.9269 60.3467 30.0012C60.2757 30.0754 60.1905 30.1345 60.096 30.1749C60.0016 30.2152 59.9 30.236 59.7973 30.236C59.6946 30.236 59.593 30.2152 59.4986 30.1749C59.4041 30.1345 59.3189 30.0754 59.2479 30.0012C59.177 29.9269 59.1218 29.8391 59.0857 29.7429C59.0497 29.6468 59.0335 29.5443 59.0381 29.4417ZM59.3776 31.7449H60.217C60.2438 31.7449 60.2696 31.7556 60.2886 31.7746C60.3075 31.7935 60.3182 31.8193 60.3182 31.8461V39.7664C60.3178 39.793 60.307 39.8183 60.288 39.837C60.2691 39.8556 60.2436 39.8661 60.217 39.8661H59.3776C59.351 39.8661 59.3255 39.8556 59.3066 39.837C59.2876 39.8183 59.2768 39.793 59.2764 39.7664V31.8461C59.2764 31.8193 59.2871 31.7935 59.306 31.7746C59.325 31.7556 59.3508 31.7449 59.3776 31.7449Z" fill="#F7F6F5"/>
<path d="M63.0279 39.8661H62.1885C62.1619 39.8661 62.1364 39.8556 62.1175 39.837C62.0985 39.8183 62.0877 39.793 62.0873 39.7664V31.8461C62.0873 31.8193 62.0979 31.7936 62.1169 31.7746C62.1359 31.7556 62.1617 31.7449 62.1885 31.7449H63.0279C63.0547 31.7449 63.0805 31.7556 63.0994 31.7746C63.1184 31.7936 63.1291 31.8193 63.1291 31.8461V33.1885C63.5636 32.2183 64.4637 31.6312 65.8029 31.5985C65.8306 31.5985 65.8573 31.6092 65.8773 31.6283C65.8973 31.6475 65.9092 31.6736 65.9104 31.7013V32.6824H65.6269C64.2737 32.6824 63.1353 33.2928 63.1353 35.3298V39.7664C63.1351 39.7801 63.1322 39.7936 63.1266 39.8062C63.121 39.8187 63.113 39.8299 63.1029 39.8393C63.0929 39.8486 63.0811 39.8558 63.0682 39.8604C63.0553 39.865 63.0415 39.8669 63.0279 39.8661Z" fill="#F7F6F5"/>
<path d="M70.3424 31.6266C72.3793 31.6266 73.7029 32.7166 74.0798 34.3938H73.038C73.0168 34.3934 72.9962 34.386 72.9796 34.3728C72.963 34.3596 72.9512 34.3412 72.9461 34.3206C72.6549 33.2025 71.6863 32.5189 70.347 32.5189C68.7555 32.5189 67.4614 33.609 67.4614 35.8063C67.4614 38.0036 68.7555 39.1077 70.347 39.1077C71.6863 39.1077 72.6409 38.4365 72.9461 37.2919C72.9512 37.2713 72.963 37.253 72.9796 37.2397C72.9962 37.2265 73.0168 37.2191 73.038 37.2187H74.0798C73.7076 38.8398 72.3839 39.9844 70.3424 39.9844C68.0516 39.9844 66.4009 38.3789 66.4009 35.8063C66.4009 33.2337 68.0516 31.6266 70.3424 31.6266Z" fill="#F7F6F5"/>
<path d="M75.4985 28.8609H76.3441C76.3706 28.8609 76.3961 28.8713 76.4151 28.89C76.434 28.9086 76.4449 28.934 76.4453 28.9605V39.7664C76.4449 39.793 76.434 39.8183 76.4151 39.837C76.3961 39.8556 76.3706 39.8661 76.3441 39.8661H75.5031C75.4767 39.8661 75.4514 39.8556 75.4327 39.8369C75.414 39.8182 75.4035 39.7929 75.4035 39.7664V28.9652C75.4028 28.9521 75.4048 28.939 75.4092 28.9267C75.4137 28.9144 75.4205 28.903 75.4293 28.8933C75.4381 28.8836 75.4488 28.8758 75.4607 28.8702C75.4725 28.8646 75.4854 28.8615 75.4985 28.8609Z" fill="#F7F6F5"/>
<path d="M81.7198 39.9844C79.415 39.9844 77.7347 38.3789 77.7347 35.8063C77.7347 33.2337 79.3839 31.6266 81.7198 31.6266C84.0993 31.6266 85.5569 33.3224 85.5569 35.3889C85.5626 35.6623 85.5527 35.9358 85.5273 36.208H78.8995C78.8853 36.2082 78.8712 36.2113 78.8582 36.2171C78.8452 36.2229 78.8335 36.2314 78.8239 36.2419C78.8143 36.2524 78.8069 36.2647 78.8022 36.2782C78.7976 36.2917 78.7957 36.306 78.7968 36.3202C78.9323 38.15 80.2326 39.1077 81.7198 39.1077C83.073 39.1077 83.9996 38.41 84.3173 37.362C84.3231 37.3421 84.3351 37.3247 84.3517 37.3123C84.3683 37.2999 84.3885 37.2933 84.4092 37.2935H85.437C85.0648 38.8258 83.7567 39.9844 81.7198 39.9844ZM78.9011 35.3593H84.3967C84.4245 35.3589 84.4511 35.3476 84.4706 35.3278C84.4901 35.308 84.501 35.2813 84.501 35.2534C84.501 33.4361 83.1493 32.5189 81.6746 32.5189C80.2326 32.5189 78.9618 33.433 78.7983 35.2456C78.7973 35.2599 78.7991 35.2743 78.8038 35.2878C78.8084 35.3014 78.8158 35.3139 78.8254 35.3245C78.835 35.3351 78.8467 35.3437 78.8597 35.3497C78.8727 35.3557 78.8868 35.3589 78.9011 35.3593Z" fill="#F7F6F5"/>
<path d="M28.4036 22.5165C27.2919 22.5137 26.2267 22.0707 25.4408 21.2845C24.6549 20.4983 24.2123 19.4329 24.2098 18.3213V9.43393C24.2173 6.95407 25.1979 4.57622 26.9406 2.81194C28.6833 1.04766 31.0489 0.0379374 33.5285 -2.38522e-06H33.6422C34.7536 -0.00272254 35.8566 0.191839 36.9 0.57463C35.5609 1.63105 34.4782 2.97679 33.7331 4.51105C32.9879 6.04531 32.5996 7.7283 32.5973 9.43393V18.3213C32.5948 19.4329 32.1522 20.4983 31.3663 21.2845C30.5804 22.0707 29.5152 22.5137 28.4036 22.5165Z" fill="#F7F6F5"/>
<path d="M41.2323 22.5165C40.1204 22.5141 39.0548 22.0713 38.2685 21.2851C37.4823 20.4988 37.0395 19.4332 37.037 18.3213V9.43393C37.0449 6.95393 38.0258 4.57608 39.7688 2.81184C41.5118 1.04761 43.8776 0.0379346 46.3573 9.85347e-08H46.4694C47.5813 -0.00283844 48.6849 0.191724 49.7288 0.574632C48.3894 1.63082 47.3066 2.97652 46.5614 4.51083C45.8162 6.04514 45.4281 7.72824 45.4261 9.43393V18.3213C45.4236 19.4329 44.981 20.4983 44.1951 21.2845C43.4092 22.0707 42.344 22.5137 41.2323 22.5165Z" fill="#F7F6F5"/>
<path d="M54.0595 22.5165C52.9487 22.5124 51.8847 22.0689 51.0998 21.2829C50.3149 20.4968 49.8729 19.4321 49.8705 18.3213V9.43393C49.8779 6.95486 50.8579 4.5777 52.5996 2.81355C54.3413 1.04941 56.7057 0.0391491 59.1845 -2.38522e-06H59.2982C60.4096 -0.00272254 61.5126 0.191839 62.556 0.57463C61.2169 1.63105 60.1342 2.97679 59.3891 4.51105C58.6439 6.04531 58.2556 7.7283 58.2533 9.43393V18.3213C58.2508 19.4329 57.8082 20.4983 57.0223 21.2845C56.2364 22.0707 55.1712 22.5137 54.0595 22.5165Z" fill="#F7F6F5"/>
</g>
<defs>
<clipPath id="clip0_49_1569">
<rect width="85.519" height="40" fill="white" transform="translate(0.0379028)"/>
</clipPath>
</defs>
</svg>
