<svg width="220" height="40" viewBox="0 0 220 40" fill="none" xmlns="http://www.w3.org/2000/svg">
<g clip-path="url(#clip0_49_1487)">
<path d="M73.7705 11.7785H76.6114C76.6441 11.779 76.6761 11.7887 76.7036 11.8065C76.731 11.8243 76.753 11.8495 76.7668 11.8792L82.7648 25.2796C82.7784 25.3098 82.8004 25.3355 82.8282 25.3535C82.856 25.3714 82.8884 25.381 82.9216 25.381C82.9547 25.381 82.9872 25.3714 83.015 25.3535C83.0428 25.3355 83.0648 25.3098 83.0783 25.2796L89.0628 11.8792C89.0768 11.8491 89.0991 11.8236 89.1271 11.8058C89.1551 11.788 89.1877 11.7785 89.2209 11.7785H92.0427C92.0883 11.7785 92.1319 11.7965 92.1641 11.8287C92.1964 11.8608 92.2145 11.9045 92.2145 11.9499V29.2693C92.2145 29.3148 92.1964 29.3584 92.1641 29.3905C92.1319 29.4227 92.0883 29.4407 92.0427 29.4407H89.5072C89.4616 29.4407 89.4179 29.4227 89.3857 29.3905C89.3535 29.3584 89.3354 29.3148 89.3354 29.2693V18.1494C89.3363 18.1095 89.3233 18.0706 89.2985 18.0393C89.2738 18.008 89.2388 17.9862 89.1998 17.9779C89.1607 17.9695 89.1199 17.975 89.0845 17.9934C89.049 18.0118 89.0211 18.0419 89.0055 18.0786L83.9726 29.34C83.9586 29.3701 83.9363 29.3956 83.9082 29.4134C83.8802 29.4312 83.8477 29.4407 83.8145 29.4407H82.0369C82.0039 29.4412 81.9715 29.4319 81.9438 29.414C81.9162 29.3961 81.8944 29.3703 81.8815 29.34L76.8322 18.0759C76.8166 18.0392 76.7887 18.009 76.7532 17.9906C76.7178 17.9722 76.677 17.9668 76.6379 17.9751C76.5989 17.9835 76.564 18.0052 76.5392 18.0365C76.5144 18.0679 76.5014 18.1068 76.5023 18.1467V29.2693C76.5023 29.3148 76.4842 29.3584 76.452 29.3905C76.4198 29.4227 76.3761 29.4407 76.3306 29.4407H73.7705C73.7254 29.44 73.6824 29.4216 73.6508 29.3896C73.6192 29.3575 73.6014 29.3143 73.6014 29.2693V11.9499C73.6014 11.9049 73.6192 11.8617 73.6508 11.8296C73.6824 11.7976 73.7254 11.7792 73.7705 11.7785Z" fill="#232323"/>
<path d="M100.691 15.2102C103.057 15.2102 104.693 16.3288 105.555 17.4718V15.6103C105.555 15.5653 105.572 15.5221 105.604 15.49C105.636 15.4579 105.679 15.4396 105.724 15.4388H108.311C108.357 15.4388 108.4 15.4569 108.432 15.4891C108.465 15.5212 108.483 15.5648 108.483 15.6103V29.2693C108.483 29.3148 108.465 29.3584 108.432 29.3905C108.4 29.4227 108.357 29.4407 108.311 29.4407H105.724C105.679 29.44 105.636 29.4217 105.604 29.3896C105.572 29.3575 105.555 29.3143 105.555 29.2693V27.3643C104.663 28.559 102.981 29.6775 100.647 29.6775C96.9993 29.6639 94.0602 26.6975 94.0602 22.3758C94.0602 18.0542 96.9993 15.2102 100.691 15.2102ZM101.301 17.7249C99.1367 17.7249 97.0483 19.3577 97.0483 22.3758C97.0483 25.3939 99.1367 27.1547 101.301 27.1547C103.466 27.1547 105.555 25.4511 105.555 22.4275C105.555 19.404 103.491 17.7249 101.301 17.7249Z" fill="#232323"/>
<path d="M114.015 29.4407H111.455C111.409 29.4407 111.365 29.4227 111.333 29.3905C111.301 29.3584 111.283 29.3147 111.283 29.2693V15.6103C111.283 15.5648 111.301 15.5212 111.333 15.489C111.365 15.4569 111.409 15.4388 111.455 15.4388H114.015C114.06 15.4388 114.104 15.4569 114.136 15.489C114.168 15.5212 114.186 15.5648 114.186 15.6103V17.4718C114.974 16.111 116.313 15.2646 118.202 15.2129C118.226 15.2126 118.249 15.2169 118.271 15.2256C118.293 15.2343 118.313 15.2472 118.33 15.2636C118.347 15.28 118.361 15.2996 118.37 15.3213C118.38 15.343 118.385 15.3662 118.385 15.3898V18.2093H117.646C115.509 18.2093 114.186 19.0965 114.186 22.071V29.2693C114.186 29.2918 114.182 29.3141 114.173 29.3349C114.165 29.3557 114.152 29.3746 114.136 29.3905C114.12 29.4064 114.101 29.4191 114.08 29.4277C114.059 29.4363 114.037 29.4407 114.015 29.4407Z" fill="#232323"/>
<path d="M120.212 10.6355H122.772C122.794 10.6355 122.817 10.6399 122.837 10.6485C122.858 10.6571 122.877 10.6698 122.893 10.6857C122.909 10.7016 122.922 10.7205 122.93 10.7413C122.939 10.7621 122.944 10.7844 122.944 10.8069V21.0886C122.944 21.1235 122.955 21.1574 122.975 21.1859C122.996 21.2143 123.024 21.2359 123.057 21.2477C123.09 21.2596 123.126 21.2611 123.159 21.2521C123.193 21.2431 123.223 21.224 123.246 21.1974L127.985 15.5123C128 15.4928 128.02 15.4771 128.043 15.4663C128.066 15.4555 128.09 15.4498 128.115 15.4497H131.66C131.693 15.449 131.726 15.4582 131.754 15.4762C131.783 15.4942 131.805 15.5201 131.818 15.5507C131.832 15.5813 131.836 15.6152 131.83 15.6481C131.824 15.681 131.808 15.7114 131.785 15.7355L125.686 22.3377C125.657 22.369 125.64 22.4104 125.64 22.4534C125.64 22.4964 125.657 22.5378 125.686 22.5691L131.78 29.155C131.802 29.1797 131.816 29.2102 131.821 29.2429C131.827 29.2756 131.822 29.3091 131.808 29.3393C131.795 29.3696 131.773 29.3952 131.745 29.4132C131.717 29.4312 131.685 29.4408 131.652 29.4407H128.216C128.192 29.4406 128.167 29.4352 128.144 29.4249C128.122 29.4146 128.102 29.3996 128.085 29.3809L123.246 23.7665C123.223 23.7397 123.193 23.7206 123.159 23.7117C123.125 23.7028 123.089 23.7045 123.056 23.7167C123.023 23.7289 122.994 23.7509 122.974 23.7798C122.954 23.8086 122.943 23.8429 122.944 23.8781V29.2693C122.944 29.3148 122.925 29.3584 122.893 29.3905C122.861 29.4227 122.817 29.4407 122.772 29.4407H120.212C120.167 29.44 120.124 29.4217 120.092 29.3896C120.06 29.3575 120.043 29.3143 120.043 29.2693V10.8069C120.043 10.7619 120.06 10.7187 120.092 10.6866C120.124 10.6546 120.167 10.6362 120.212 10.6355Z" fill="#232323"/>
<path d="M139.163 29.6639C135.139 29.6639 132.159 26.82 132.159 22.4221C132.159 18.0242 135.01 15.2048 139.163 15.2048C143.16 15.2048 145.979 17.9725 145.979 22.0901C145.983 22.5674 145.949 23.0442 145.878 23.5161H135.362C135.337 23.5168 135.313 23.5225 135.29 23.533C135.267 23.5435 135.247 23.5585 135.23 23.5772C135.214 23.5958 135.201 23.6176 135.193 23.6413C135.186 23.665 135.183 23.69 135.185 23.7148C135.458 25.9083 137.093 27.2255 139.163 27.2255C140.894 27.2255 141.889 26.409 142.434 25.3586C142.448 25.3312 142.469 25.3082 142.495 25.2923C142.521 25.2764 142.551 25.2682 142.582 25.2688H145.363C145.391 25.2685 145.419 25.2751 145.444 25.2879C145.469 25.3007 145.491 25.3193 145.508 25.3422C145.524 25.3651 145.535 25.3917 145.539 25.4196C145.543 25.4475 145.541 25.4761 145.532 25.5028C144.67 27.8378 142.489 29.6639 139.163 29.6639ZM135.398 21.1811H142.759C142.783 21.1808 142.807 21.1755 142.83 21.1657C142.852 21.1559 142.872 21.1417 142.889 21.1239C142.906 21.1061 142.919 21.0852 142.928 21.0623C142.936 21.0394 142.94 21.015 142.939 20.9906C142.794 18.9414 141.126 17.6487 139.026 17.6487C137.118 17.6487 135.588 18.8897 135.21 20.9743C135.205 21.0008 135.207 21.0278 135.215 21.0535C135.223 21.0791 135.236 21.1027 135.254 21.1225C135.272 21.1424 135.294 21.1579 135.319 21.1681C135.344 21.1782 135.371 21.1827 135.398 21.1811Z" fill="#232323"/>
<path d="M148.277 17.8011H146.622V15.4389H148.277V12.1268C148.277 12.0814 148.295 12.0378 148.327 12.0056C148.36 11.9734 148.403 11.9554 148.449 11.9554H151.042C151.087 11.9554 151.131 11.9734 151.163 12.0056C151.195 12.0378 151.213 12.0814 151.213 12.1268V15.2674C151.213 15.3129 151.231 15.3565 151.264 15.3886C151.296 15.4208 151.34 15.4389 151.385 15.4389H154.452C154.498 15.4389 154.542 15.4569 154.574 15.4891C154.606 15.5212 154.624 15.5648 154.624 15.6103V17.6323C154.623 17.6773 154.605 17.7203 154.573 17.7518C154.541 17.7834 154.497 17.8011 154.452 17.8011H151.377C151.331 17.8011 151.288 17.8191 151.256 17.8513C151.223 17.8834 151.205 17.9271 151.205 17.9725V25.5518C151.205 26.5941 151.611 27.0268 152.841 27.0268H154.452C154.498 27.0268 154.542 27.0449 154.574 27.077C154.606 27.1092 154.624 27.1528 154.624 27.1983V29.2693C154.624 29.3148 154.606 29.3584 154.574 29.3905C154.542 29.4227 154.498 29.4408 154.452 29.4408H152.334C149.839 29.4408 148.285 28.4012 148.285 25.5518L148.277 17.8011Z" fill="#232323"/>
<path d="M164.292 11.4737C168.264 11.4737 171.217 13.4549 172.49 16.8622H170.511C170.479 16.8619 170.447 16.8523 170.421 16.8344C170.394 16.8164 170.373 16.7911 170.361 16.7615C169.349 14.4564 167.28 13.0249 164.292 13.0249C160.396 13.0249 157.419 15.896 157.419 20.547C157.419 25.198 160.396 28.0446 164.292 28.0446C167.291 28.0446 169.349 26.6104 170.358 24.3543C170.371 24.3252 170.392 24.3004 170.418 24.283C170.445 24.2656 170.476 24.2563 170.508 24.2564H172.49C171.217 27.6119 168.264 29.5931 164.292 29.5931C159.352 29.5931 155.584 25.8838 155.584 20.547C155.584 15.2102 159.352 11.4737 164.292 11.4737Z" fill="#232323"/>
<path d="M174.603 11.6261C174.618 11.2924 174.762 10.9775 175.004 10.7468C175.246 10.5161 175.568 10.3874 175.902 10.3874C176.237 10.3874 176.558 10.5161 176.8 10.7468C177.042 10.9775 177.186 11.2924 177.201 11.6261C177.209 11.8014 177.182 11.9765 177.12 12.1408C177.058 12.3051 176.964 12.4553 176.843 12.5822C176.721 12.709 176.575 12.81 176.414 12.8791C176.252 12.9481 176.078 12.9836 175.902 12.9836C175.726 12.9836 175.552 12.9481 175.391 12.8791C175.229 12.81 175.083 12.709 174.962 12.5822C174.84 12.4553 174.746 12.3051 174.684 12.1408C174.623 11.9765 174.595 11.8014 174.603 11.6261ZM175.184 15.564H176.623C176.669 15.564 176.712 15.5821 176.745 15.6142C176.777 15.6464 176.795 15.69 176.795 15.7355V29.2693C176.795 29.3148 176.777 29.3584 176.745 29.3905C176.712 29.4227 176.669 29.4407 176.623 29.4407H175.184C175.138 29.4407 175.094 29.4227 175.062 29.3905C175.03 29.3584 175.012 29.3148 175.012 29.2693V15.7355C175.012 15.69 175.03 15.6464 175.062 15.6142C175.094 15.5821 175.138 15.564 175.184 15.564Z" fill="#232323"/>
<path d="M181.433 29.4408H179.996C179.95 29.4408 179.907 29.4227 179.874 29.3905C179.842 29.3584 179.824 29.3148 179.824 29.2693V15.7355C179.824 15.69 179.842 15.6464 179.874 15.6143C179.907 15.5821 179.95 15.564 179.996 15.564H181.433C181.478 15.564 181.522 15.5821 181.554 15.6143C181.586 15.6464 181.604 15.69 181.604 15.7355V18.0297C182.349 16.3723 183.892 15.3654 186.182 15.3082C186.23 15.3075 186.276 15.3256 186.311 15.3587C186.346 15.3918 186.366 15.4372 186.367 15.4851V17.1615H185.882C183.565 17.1615 181.604 18.2039 181.604 21.6846V29.2639C181.605 29.2868 181.601 29.3097 181.593 29.3311C181.585 29.3526 181.572 29.3721 181.556 29.3886C181.54 29.4051 181.521 29.4182 181.5 29.4272C181.478 29.4362 181.456 29.4408 181.433 29.4408Z" fill="#232323"/>
<path d="M193.955 15.3626C197.442 15.3626 199.708 17.216 200.346 20.0898H198.562C198.526 20.0896 198.49 20.0772 198.462 20.0545C198.433 20.0318 198.413 20.0001 198.404 19.9646C197.905 18.0596 196.248 16.8867 193.955 16.8867C191.229 16.8867 189.015 18.7427 189.015 22.5037C189.015 26.2648 191.229 28.1453 193.955 28.1453C196.248 28.1453 197.884 26.9996 198.404 25.0429C198.413 25.0074 198.433 24.9757 198.462 24.953C198.49 24.9303 198.526 24.9179 198.562 24.9177H200.346C199.708 27.6881 197.442 29.6449 193.955 29.6449C190.034 29.6449 187.207 26.8989 187.207 22.5037C187.207 18.1086 190.029 15.3626 193.955 15.3626Z" fill="#232323"/>
<path d="M202.783 10.6355H204.222C204.245 10.6355 204.267 10.6399 204.288 10.6485C204.309 10.6571 204.328 10.6698 204.344 10.6857C204.36 10.7016 204.372 10.7205 204.381 10.7413C204.39 10.7621 204.394 10.7844 204.394 10.8069V29.2693C204.394 29.3148 204.376 29.3584 204.344 29.3905C204.312 29.4227 204.268 29.4407 204.222 29.4407H202.783C202.737 29.4407 202.694 29.4227 202.661 29.3905C202.629 29.3584 202.611 29.3148 202.611 29.2693V10.8069C202.611 10.7844 202.616 10.7621 202.624 10.7413C202.633 10.7205 202.645 10.7016 202.661 10.6857C202.677 10.6698 202.696 10.6571 202.717 10.6485C202.738 10.6399 202.76 10.6355 202.783 10.6355Z" fill="#232323"/>
<path d="M213.432 29.6449C209.484 29.6449 206.616 26.8989 206.616 22.5037C206.616 18.1086 209.443 15.3626 213.432 15.3626C217.505 15.3626 220 18.2583 220 21.7907C220.01 22.2576 219.993 22.7247 219.948 23.1896H208.604C208.579 23.1899 208.555 23.1951 208.533 23.205C208.511 23.2149 208.491 23.2291 208.474 23.2469C208.458 23.2647 208.445 23.2857 208.437 23.3086C208.429 23.3315 208.425 23.3558 208.427 23.3801C208.658 26.5097 210.88 28.1453 213.432 28.1453C215.747 28.1453 217.334 26.9533 217.879 25.1517C217.888 25.1177 217.908 25.0877 217.936 25.0665C217.965 25.0453 217.999 25.0341 218.034 25.0347H219.796C219.16 27.6636 216.919 29.6449 213.432 29.6449ZM208.606 21.7526H218.015C218.063 21.7519 218.109 21.7324 218.143 21.6983C218.176 21.6641 218.195 21.6182 218.195 21.5703C218.179 18.4624 215.878 16.8975 213.356 16.8975C210.886 16.8975 208.721 18.4597 208.429 21.5567C208.429 21.6044 208.448 21.6503 208.481 21.6847C208.514 21.7192 208.559 21.7396 208.606 21.7417V21.7526Z" fill="#232323"/>
<path d="M7.46484 40.0055C5.48476 40.0033 3.58648 39.2169 2.18687 37.8187C0.787251 36.4206 0.000721207 34.5252 0 32.5487L0 16.7643C0.0123516 12.3576 1.75741 8.13189 4.85961 4.99661C7.96181 1.86132 12.1732 0.0670961 16.5873 6.43669e-05H16.7863C18.7649 -0.00543164 20.7286 0.341075 22.5854 1.02333C20.2021 2.89924 18.2754 5.28941 16.9495 8.0146C15.6236 10.7398 14.9331 13.7293 14.9297 16.7588V32.5433C14.9304 34.5207 14.1445 36.4175 12.7447 37.8168C11.345 39.2161 9.44586 40.0033 7.46484 40.0055Z" fill="#232323"/>
<path d="M30.2956 40.0055C28.3155 40.0033 26.4172 39.2168 25.0176 37.8187C23.618 36.4206 22.8314 34.5252 22.8307 32.5487V16.7642C22.8431 12.3575 24.5881 8.13183 27.6903 4.99654C30.7925 1.86126 35.0039 0.0670351 39.418 3.33173e-06H39.6171C41.5956 -0.00549268 43.5593 0.341014 45.4161 1.02327C43.0329 2.89918 41.1061 5.28935 39.7802 8.01454C38.4543 10.7397 37.7638 13.7292 37.7604 16.7587V32.5432C37.7611 34.5207 36.9752 36.4175 35.5755 37.8168C34.1757 39.216 32.2766 40.0033 30.2956 40.0055Z" fill="#232323"/>
<path d="M53.1263 40.0055C51.1472 40.0033 49.2497 39.2175 47.8503 37.8206C46.4508 36.4237 45.6636 34.5297 45.6615 32.5541V16.7696C45.6724 12.3625 47.4164 8.13581 50.5182 4.99943C53.62 1.86305 57.8314 0.0677595 62.2461 3.33173e-06H62.4478C64.4264 -0.00549268 66.3901 0.341014 68.2468 1.02327C65.8636 2.89918 63.9368 5.28935 62.611 8.01454C61.2851 10.7397 60.5946 13.7292 60.5911 16.7587V32.5432C60.5919 34.5207 59.806 36.4175 58.4062 37.8168C57.0064 39.216 55.1073 40.0033 53.1263 40.0055Z" fill="#232323"/>
</g>
<defs>
<clipPath id="clip0_49_1487">
<rect width="220" height="40" fill="white"/>
</clipPath>
</defs>
</svg>
